<svg width="74" height="74" viewBox="0 0 74 74" fill="none" xmlns="http://www.w3.org/2000/svg">
<g filter="url(#filter0_d_788_56242)">
<rect x="7" y="6" width="58" height="58" rx="10" fill="#FFE7D5"/>
<path d="M32.624 46.321C32.624 45.5154 32.9261 44.8987 33.5302 44.4707C34.1344 44.0428 34.8141 43.8288 35.5693 43.8288C36.2993 43.8288 36.9664 44.0428 37.5706 44.4707C38.1748 44.8987 38.4769 45.4525 38.4769 46.1322C38.4769 46.9125 38.1874 47.5419 37.6084 48.0202C37.0294 48.4985 36.3371 48.7376 35.5315 48.7376C35.1791 48.7376 34.8267 48.6747 34.4743 48.5488C34.1218 48.423 33.8071 48.2467 33.5302 48.0202C33.2533 47.7936 33.0268 47.5419 32.8506 47.265C32.6995 46.9629 32.624 46.6482 32.624 46.321ZM30.4339 25.7038C31.0129 25.0241 31.8058 24.4703 32.8128 24.0423C33.8449 23.6144 34.8896 23.4004 35.9469 23.4004C38.0363 23.4004 39.6223 23.9416 40.7047 25.0241C41.8124 26.1066 42.3662 27.6925 42.3662 29.7819C42.3662 30.3105 42.2529 30.877 42.0263 31.4811C41.7998 32.0853 41.5103 32.702 41.1578 33.3314C40.8054 33.9355 40.4152 34.5523 39.9873 35.1816C39.5593 35.811 39.1314 36.4277 38.7034 37.0319L38.3636 37.5228H38.4013C38.1244 37.8752 37.923 38.3158 37.7972 38.8444C37.6965 39.373 37.6084 39.8891 37.5328 40.3926C37.5077 40.5184 37.4825 40.6947 37.4573 40.9212C37.4573 41.1478 37.4322 41.3114 37.3818 41.4121C37.2811 41.7394 37.0545 41.9911 36.7021 42.1673C36.3497 42.3435 35.9343 42.4316 35.456 42.4316C35.1539 42.4316 34.8519 42.3939 34.5498 42.3184C34.2729 42.2428 34.0211 42.1296 33.7946 41.9785C33.568 41.8023 33.3918 41.6009 33.2659 41.3743C33.14 41.1226 33.0897 40.8331 33.1149 40.5059C33.1652 39.8513 33.2533 39.1087 33.3792 38.278C33.5302 37.4221 33.8197 36.6669 34.2477 36.0124C34.3987 35.811 34.5624 35.597 34.7386 35.3704C34.9148 35.1187 35.0658 34.8921 35.1917 34.6908C35.4938 34.2628 35.7959 33.8349 36.0979 33.4069C36.4252 32.9538 36.7021 32.5258 36.9287 32.123C37.1804 31.6951 37.3818 31.2923 37.5328 30.9147C37.7091 30.5119 37.7972 30.1595 37.7972 29.8574C37.7972 28.8505 37.621 28.1456 37.2685 27.7428C36.9161 27.3149 36.4881 27.1009 35.9847 27.1009C35.6574 27.1009 35.242 27.2268 34.7386 27.4785C34.2351 27.7303 33.8575 27.9694 33.6058 28.196C33.1023 28.6743 32.5988 28.8757 32.0953 28.8001C31.617 28.6994 31.2143 28.4729 30.887 28.1204C30.5598 27.768 30.3458 27.3526 30.2451 26.8743C30.1444 26.3961 30.2073 26.0059 30.4339 25.7038Z" fill="#FF7F21"/>
</g>
<defs>
<filter id="filter0_d_788_56242" x="0" y="0" width="74" height="74" filterUnits="userSpaceOnUse" color-interpolation-filters="sRGB">
<feFlood flood-opacity="0" result="BackgroundImageFix"/>
<feColorMatrix in="SourceAlpha" type="matrix" values="0 0 0 0 0 0 0 0 0 0 0 0 0 0 0 0 0 0 127 0" result="hardAlpha"/>
<feOffset dx="1" dy="2"/>
<feGaussianBlur stdDeviation="4"/>
<feComposite in2="hardAlpha" operator="out"/>
<feColorMatrix type="matrix" values="0 0 0 0 0 0 0 0 0 0 0 0 0 0 0 0 0 0 0.09 0"/>
<feBlend mode="normal" in2="BackgroundImageFix" result="effect1_dropShadow_788_56242"/>
<feBlend mode="normal" in="SourceGraphic" in2="effect1_dropShadow_788_56242" result="shape"/>
</filter>
</defs>
</svg>
