<svg width="46" height="46" viewBox="0 0 46 46" fill="none" xmlns="http://www.w3.org/2000/svg">
<rect width="46" height="46" rx="23" fill="#F6F6F6"/>
<path d="M23.0001 31.4612H26.3847C27.7387 31.4612 28.4157 31.4612 28.9329 31.1966C29.3877 30.964 29.7576 30.5926 29.9893 30.1359C30.2529 29.6168 30.2529 28.937 30.2529 27.5777V21.7525H15.7474V27.5777C15.7474 28.937 15.7474 29.6168 16.0109 30.1359C16.2426 30.5926 16.6125 30.964 17.0674 31.1966C17.5845 31.4612 18.2615 31.4612 19.6155 31.4612H23.0001ZM23.0001 31.4612V18.1118M23.0001 18.1118H29.6485C30.2116 18.1118 30.4933 18.1118 30.7155 18.2042C31.0116 18.3274 31.247 18.5636 31.3697 18.861C31.4616 19.084 31.4617 19.3667 31.4617 19.9322C31.4617 20.4976 31.4616 20.7804 31.3697 21.0034C31.247 21.3007 31.0116 21.537 30.7155 21.6602C30.4933 21.7525 30.2116 21.7525 29.6485 21.7525H16.3518C15.7885 21.7525 15.5069 21.7525 15.2848 21.6602C14.9886 21.537 14.7533 21.3007 14.6306 21.0034C14.5386 20.7804 14.5386 20.4976 14.5386 19.9322C14.5386 19.3667 14.5386 19.084 14.6306 18.861C14.7533 18.5636 14.9886 18.3274 15.2848 18.2042C15.5069 18.1118 15.7885 18.1118 16.3518 18.1118H18.1649M23.0001 18.1118C23.0001 15.0824 20.6992 14.2729 19.3832 14.6089C17.5702 15.0719 17.7145 17.3265 18.1649 18.1118M23.0001 18.1118H18.1649M23.0001 18.1118C23.0001 15.0824 25.301 14.2729 26.6169 14.6089C28.43 15.0719 28.2858 17.3265 27.8353 18.1118H23.0001Z" stroke="#FF7F21" stroke-width="2" stroke-linecap="round" stroke-linejoin="round"/>
</svg>
