<svg width="126" height="125" viewBox="0 0 126 125" fill="none" xmlns="http://www.w3.org/2000/svg">
<path d="M47.3753 88.5417H57.792M47.3753 67.7083H63.0003M47.3753 46.875H52.5837M68.2087 15.625H43.2087C37.3748 15.625 34.4578 15.625 32.2296 16.7603C30.2696 17.759 28.676 19.3526 27.6773 21.3126C26.542 23.5408 26.542 26.4578 26.542 32.2917V92.7083C26.542 98.5422 26.542 101.459 27.6773 103.687C28.676 105.647 30.2696 107.241 32.2296 108.24C34.4578 109.375 37.3748 109.375 43.2087 109.375H63.0003M68.2087 15.625L99.4587 46.875M68.2087 15.625V30.2083C68.2087 36.0422 68.2087 38.9592 69.344 41.1874C70.3427 43.1474 71.9362 44.741 73.8963 45.7397C76.1245 46.875 79.0414 46.875 84.8753 46.875H99.4587M99.4587 46.875V52.0833M109.875 79.2186C109.52 79.24 108.499 79.2186 108.139 79.2186C102.803 79.2186 97.936 76.8356 94.2502 72.9167C90.5644 76.8355 85.6972 79.2184 80.3614 79.2184C80.0017 79.2184 78.9814 79.24 78.6261 79.2186C78.6261 79.2186 78.6253 83.2577 78.6253 85.4059C78.6253 96.9378 85.2648 106.628 94.2503 109.375C103.236 106.628 109.875 96.9378 109.875 85.4059C109.875 83.2578 109.875 79.2186 109.875 79.2186Z" stroke="#131A29" stroke-width="6" stroke-linecap="round" stroke-linejoin="round"/>
</svg>
