<svg width="36" height="36" viewBox="0 0 36 36" fill="none" xmlns="http://www.w3.org/2000/svg">
<rect width="36" height="36" rx="18" fill="white"/>
<path fill-rule="evenodd" clip-rule="evenodd" d="M11 17.1257C11 13.7583 13.7807 11 17.2463 11C20.7119 11 23.4925 13.7583 23.4925 17.1257C23.4925 20.493 20.7119 23.2513 17.2463 23.2513C13.7807 23.2513 11 20.493 11 17.1257ZM17.2463 9C12.7079 9 9 12.6222 9 17.1257C9 21.6291 12.7079 25.2513 17.2463 25.2513C19.1593 25.2513 20.9248 24.6077 22.3272 23.5258L25.6029 26.747C25.9967 27.1342 26.6299 27.1289 27.0171 26.7351C27.4043 26.3413 27.399 25.7082 27.0052 25.321L23.7511 22.121C24.8415 20.7451 25.4925 19.0127 25.4925 17.1257C25.4925 12.6222 21.7847 9 17.2463 9Z" fill="#FF7F21"/>
</svg>
