<svg width="34" height="34" viewBox="0 0 34 34" fill="none" xmlns="http://www.w3.org/2000/svg">
<path fill-rule="evenodd" clip-rule="evenodd" d="M13.1865 5.667H21.0079C21.0891 5.667 21.1699 5.6722 21.2502 5.68259C24.4339 5.90523 26.9061 8.54736 26.9168 11.7388V20.8466C26.9051 24.207 24.1743 26.9233 20.8138 26.917H13.1865C9.82547 26.9233 7.09443 24.2062 7.0835 20.8452V11.7388C7.09443 8.37782 9.82547 5.66073 13.1865 5.667Z" stroke="#222222" stroke-width="1.5" stroke-linecap="round" stroke-linejoin="round"/>
<path d="M26.9168 12.4889C27.331 12.4889 27.6668 12.1531 27.6668 11.7389C27.6668 11.3247 27.331 10.9889 26.9168 10.9889V12.4889ZM21.2502 11.7389H20.5002C20.5002 12.1531 20.8359 12.4889 21.2502 12.4889V11.7389ZM22.0002 5.68262C22.0002 5.2684 21.6644 4.93262 21.2502 4.93262C20.8359 4.93262 20.5002 5.2684 20.5002 5.68262H22.0002ZM19.8335 17.7504C20.2477 17.7504 20.5835 17.4146 20.5835 17.0004C20.5835 16.5862 20.2477 16.2504 19.8335 16.2504V17.7504ZM11.3335 16.2504C10.9193 16.2504 10.5835 16.5862 10.5835 17.0004C10.5835 17.4146 10.9193 17.7504 11.3335 17.7504V16.2504ZM15.5835 13.5004C15.9977 13.5004 16.3335 13.1646 16.3335 12.7504C16.3335 12.3362 15.9977 12.0004 15.5835 12.0004V13.5004ZM11.3335 12.0004C10.9193 12.0004 10.5835 12.3362 10.5835 12.7504C10.5835 13.1646 10.9193 13.5004 11.3335 13.5004V12.0004ZM21.2502 22.0004C21.6644 22.0004 22.0002 21.6646 22.0002 21.2504C22.0002 20.8362 21.6644 20.5004 21.2502 20.5004V22.0004ZM11.3335 20.5004C10.9193 20.5004 10.5835 20.8362 10.5835 21.2504C10.5835 21.6646 10.9193 22.0004 11.3335 22.0004V20.5004ZM26.9168 10.9889H21.2502V12.4889H26.9168V10.9889ZM22.0002 11.7389V5.68262H20.5002V11.7389H22.0002ZM19.8335 16.2504H11.3335V17.7504H19.8335V16.2504ZM15.5835 12.0004H11.3335V13.5004H15.5835V12.0004ZM21.2502 20.5004H11.3335V22.0004H21.2502V20.5004Z" fill="#222222"/>
</svg>
