<svg width="148" height="103" viewBox="0 0 148 103" fill="none" xmlns="http://www.w3.org/2000/svg">
<path fill-rule="evenodd" clip-rule="evenodd" d="M131.366 15.8137C133.761 18.2086 133.761 22.0915 131.366 24.4864L69.1654 86.6872C66.7705 89.0821 62.8876 89.0821 60.4927 86.6872L15.8133 42.0077C13.4184 39.6129 13.4184 35.73 15.8133 33.3351C18.2081 30.9402 22.091 30.9402 24.4859 33.3351L64.8291 73.6783L122.694 15.8137C125.088 13.4189 128.971 13.4189 131.366 15.8137Z" fill="#FF9D54"/>
<path fill-rule="evenodd" clip-rule="evenodd" d="M112.782 5.90168C120.651 -1.96723 133.409 -1.96723 141.278 5.90168C149.147 13.7706 149.147 26.5286 141.278 34.3975L132.605 25.7248L141.278 34.3975L79.077 96.5983C71.2081 104.467 58.4501 104.467 50.5812 96.5983L5.90167 51.9188C-1.96722 44.0499 -1.96722 31.2919 5.90167 23.423C13.7706 15.5541 26.5286 15.5541 34.3975 23.423L64.8291 53.8546L112.782 5.90168Z" fill="#FF7F21"/>
<path fill-rule="evenodd" clip-rule="evenodd" d="M131.366 15.8137C133.761 18.2086 133.761 22.0915 131.366 24.4864L69.1654 86.6872C66.7705 89.0821 62.8876 89.0821 60.4927 86.6872L15.8133 42.0077C13.4184 39.6129 13.4184 35.73 15.8133 33.3351C18.2081 30.9402 22.091 30.9402 24.4859 33.3351L64.8291 73.6783L122.694 15.8137C125.088 13.4189 128.971 13.4189 131.366 15.8137Z" fill="white"/>
</svg>
