<svg width="28" height="35" viewBox="0 0 28 35" fill="none" xmlns="http://www.w3.org/2000/svg">
<g opacity="0.3">
<path opacity="0.3" d="M19.5536 7.69423C18.7881 7.69386 18.054 7.3896 17.5127 6.84831C16.9714 6.30702 16.6672 5.57297 16.6668 4.80747V0.80072H3.76737C3.27252 0.80072 2.78252 0.898206 2.32535 1.08762C1.86818 1.27704 1.45278 1.55466 1.10293 1.90464C0.753081 2.25462 0.475633 2.6701 0.286388 3.12734C0.0971433 3.58457 -0.000183632 4.07462 2.60101e-07 4.56948V27.2786C-0.000183632 27.7734 0.0971433 28.2635 0.286388 28.7207C0.475633 29.1779 0.753081 29.5934 1.10293 29.9434C1.45278 30.2934 1.86818 30.571 2.32535 30.7604C2.78252 30.9498 3.27252 31.0473 3.76737 31.0473H19.2511C19.746 31.0473 20.236 30.9498 20.6932 30.7604C21.1503 30.571 21.5657 30.2934 21.9156 29.9434C22.2654 29.5934 22.5429 29.1779 22.7321 28.7207C22.9214 28.2635 23.0187 27.7734 23.0185 27.2786V7.69563L19.5536 7.69423Z" fill="#00C650"/>
</g>
<path d="M23.0177 7.69423H19.5528C18.7873 7.69386 18.0532 7.3896 17.512 6.84831C16.9707 6.30702 16.6664 5.57297 16.666 4.80747V0.80072L23.0177 7.69423Z" fill="#00C650"/>
<path d="M25.7518 24.6844H8.24643C7.00468 24.6844 5.99805 25.691 5.99805 26.9328V32.1519C5.99805 33.3936 7.00468 34.4003 8.24643 34.4003H25.7518C26.9935 34.4003 28.0001 33.3936 28.0001 32.1519V26.9328C28.0001 25.691 26.9935 24.6844 25.7518 24.6844Z" fill="#00C650"/>
<path d="M11.79 30.6721V31.6913H10.7358V30.6721H11.79Z" fill="white"/>
<path d="M14.9198 27.4816V30.3571C14.9198 30.7986 14.7998 31.1379 14.56 31.3749C14.4261 31.4984 14.2687 31.5936 14.0972 31.655C13.9257 31.7163 13.7436 31.7425 13.5618 31.7319C13.3627 31.7426 13.1634 31.7137 12.9755 31.6469C12.7876 31.5801 12.6147 31.4767 12.467 31.3427C12.1973 31.0823 12.062 30.709 12.061 30.2227H13.0676C13.0676 30.6161 13.2174 30.8121 13.5142 30.8121C13.7732 30.8121 13.902 30.6609 13.902 30.3599V27.4844L14.9198 27.4816Z" fill="white"/>
<path d="M16.6081 30.2143V31.6913H15.5903V27.4816H17.2395C17.7388 27.4816 18.1196 27.6052 18.3819 27.8526C18.5146 27.9826 18.6183 28.1393 18.6861 28.3123C18.7539 28.4853 18.7843 28.6708 18.7753 28.8564C18.7791 29.101 18.7188 29.3423 18.6003 29.5563C18.4784 29.765 18.2971 29.9327 18.0795 30.0379C17.8174 30.1623 17.5295 30.2228 17.2395 30.2143H16.6081ZM17.7393 28.8564C17.7393 28.483 17.5349 28.2964 17.1261 28.2964H16.6081V29.3925H17.1261C17.5349 29.3963 17.7393 29.2176 17.7393 28.8564Z" fill="white"/>
<path d="M22.5506 27.8204C22.8896 28.0753 23.1176 28.4507 23.1876 28.869H22.1096C22.0367 28.7224 21.9216 28.6011 21.7792 28.5204C21.6189 28.4251 21.4351 28.3766 21.2486 28.3804C21.1039 28.3745 20.9596 28.4005 20.826 28.4566C20.6925 28.5128 20.5729 28.5976 20.4758 28.7052C20.2705 28.9501 20.1659 29.2638 20.1832 29.5829C20.1832 29.9833 20.2854 30.2909 20.4898 30.5055C20.6048 30.617 20.7417 30.7032 20.8919 30.7587C21.0421 30.8141 21.2022 30.8376 21.362 30.8275C21.5904 30.8317 21.814 30.7614 21.999 30.6273C22.1879 30.4863 22.3244 30.2863 22.3868 30.0589H21.1002V29.3268H23.238V30.3333C23.1563 30.5839 23.027 30.8164 22.8572 31.0179C22.6733 31.2351 22.4445 31.4099 22.1866 31.5303C21.895 31.665 21.5768 31.732 21.2556 31.7263C20.865 31.7366 20.4786 31.6433 20.1356 31.4561C19.8219 31.2797 19.5664 31.0155 19.4006 30.6959C19.2225 30.35 19.1335 29.965 19.1416 29.576C19.1346 29.1893 19.2236 28.8068 19.4006 28.463C19.5661 28.1441 19.8205 27.8801 20.1328 27.7028C20.4708 27.517 20.8518 27.4238 21.2374 27.4326C21.7061 27.4121 22.1682 27.5486 22.5506 27.8204Z" fill="white"/>
<path d="M14.6028 21.2979H8.41912C7.81376 21.2971 7.2334 21.0563 6.80535 20.6283C6.37729 20.2002 6.13648 19.6198 6.13574 19.0145V12.8308C6.13648 12.2254 6.37729 11.6451 6.80535 11.217C7.2334 10.7889 7.81376 10.5481 8.41912 10.5474H14.6028C15.2081 10.5481 15.7883 10.789 16.2161 11.2171C16.6439 11.6452 16.8844 12.2255 16.8848 12.8308V19.0145C16.8844 19.6197 16.6439 20.2001 16.2161 20.6282C15.7883 21.0563 15.2081 21.2971 14.6028 21.2979ZM8.41912 11.5568C8.08135 11.5571 7.75751 11.6915 7.51867 11.9303C7.27983 12.1692 7.14549 12.493 7.14512 12.8308V19.0145C7.14549 19.3522 7.27983 19.6761 7.51867 19.9149C7.75751 20.1538 8.08135 20.2881 8.41912 20.2885H14.6028C14.9405 20.2881 15.2642 20.1537 15.5028 19.9148C15.7414 19.676 15.8754 19.3521 15.8754 19.0145V12.8308C15.8754 12.4931 15.7414 12.1693 15.5028 11.9304C15.2642 11.6915 14.9405 11.5571 14.6028 11.5568H8.41912Z" fill="#00C650"/>
<path d="M16.3793 17.8385V19.0145C16.3789 19.4859 16.1915 19.9379 15.8581 20.2713C15.5248 20.6046 15.0728 20.7921 14.6013 20.7924H8.41762C7.94607 20.7924 7.49384 20.6051 7.1604 20.2717C6.82697 19.9382 6.63965 19.486 6.63965 19.0145V17.0405C7.62944 16.8277 9.1372 16.7605 10.967 17.4913L12.101 16.4105L12.8737 18.3705C12.8737 18.3705 13.0809 17.6495 13.7501 17.7517C14.4193 17.8539 15.5029 18.2165 15.9663 17.9071C16.0912 17.835 16.2379 17.8107 16.3793 17.8385Z" fill="#00C650"/>
<path d="M14.2133 14.0935C14.5929 14.0935 14.9007 13.7858 14.9007 13.4061C14.9007 13.0265 14.5929 12.7188 14.2133 12.7188C13.8336 12.7188 13.5259 13.0265 13.5259 13.4061C13.5259 13.7858 13.8336 14.0935 14.2133 14.0935Z" fill="#00C650"/>
</svg>
