<svg width="46" height="46" viewBox="0 0 46 46" fill="none" xmlns="http://www.w3.org/2000/svg">
<rect width="46" height="46" rx="23" fill="#F6F6F6"/>
<path d="M23.9026 31.2012L23.7944 30.2071L23.2993 30.2609L23.044 30.6885L23.9026 31.2012ZM17.9177 29.4992L18.5317 30.2885L19.5431 29.5018L18.5343 28.7118L17.9177 29.4992ZM15.8967 31.0711L15.2828 30.2817L15.2828 30.2817L15.8967 31.0711ZM30.25 23C30.25 26.7354 27.4243 29.8121 23.7944 30.2071L24.0108 32.1953C28.6444 31.6911 32.25 27.7673 32.25 23H30.25ZM23 15.75C27.0041 15.75 30.25 18.9959 30.25 23H32.25C32.25 17.8914 28.1086 13.75 23 13.75V15.75ZM15.75 23C15.75 18.9959 18.9959 15.75 23 15.75V13.75C17.8914 13.75 13.75 17.8914 13.75 23H15.75ZM18.5343 28.7118C16.8375 27.3831 15.75 25.3188 15.75 23H13.75C13.75 25.9597 15.1411 28.595 17.3012 30.2865L18.5343 28.7118ZM16.5107 31.8604L18.5317 30.2885L17.3038 28.7098L15.2828 30.2817L16.5107 31.8604ZM15.9581 30.25C16.8151 30.25 17.1871 31.3343 16.5107 31.8604L15.2828 30.2817C14.4561 30.9247 14.9107 32.25 15.9581 32.25V30.25ZM23 30.25H15.9581V32.25H23V30.25ZM23.8167 30.25H23V32.25H23.8167V30.25ZM23.044 30.6885C23.1995 30.4281 23.4867 30.25 23.8167 30.25V32.25C24.2197 32.25 24.5708 32.0327 24.7612 31.7139L23.044 30.6885Z" fill="#FF7F21"/>
<path d="M20.2498 22.9997C20.2498 23.5059 19.8394 23.9163 19.3332 23.9163C18.8269 23.9163 18.4165 23.5059 18.4165 22.9997C18.4165 22.4934 18.8269 22.083 19.3332 22.083C19.8394 22.083 20.2498 22.4934 20.2498 22.9997Z" fill="#FF7F21"/>
<path d="M23.9165 22.9997C23.9165 23.5059 23.5061 23.9163 22.9998 23.9163C22.4936 23.9163 22.0832 23.5059 22.0832 22.9997C22.0832 22.4934 22.4936 22.083 22.9998 22.083C23.5061 22.083 23.9165 22.4934 23.9165 22.9997Z" fill="#FF7F21"/>
<path d="M27.5832 22.9997C27.5832 23.5059 27.1728 23.9163 26.6665 23.9163C26.1602 23.9163 25.7498 23.5059 25.7498 22.9997C25.7498 22.4934 26.1602 22.083 26.6665 22.083C27.1728 22.083 27.5832 22.4934 27.5832 22.9997Z" fill="#FF7F21"/>
</svg>
