<svg width="24" height="24" viewBox="0 0 24 24" fill="none" xmlns="http://www.w3.org/2000/svg">
<path fill-rule="evenodd" clip-rule="evenodd" d="M14.909 5.18186C14.909 3.67563 13.6066 2.45459 11.9999 2.45459C10.3933 2.45459 9.09082 3.67563 9.09082 5.18186H14.909Z" stroke="#555555" stroke-width="1.5" stroke-linecap="round" stroke-linejoin="round"/>
<path d="M8.14928 12.8167C7.8471 12.5334 7.37247 12.5487 7.08918 12.8509C6.80588 13.1531 6.82119 13.6277 7.12337 13.911L8.14928 12.8167ZM10.5454 16.0911L10.0325 16.6383C10.321 16.9088 10.7699 16.9088 11.0584 16.6383L10.5454 16.0911ZM16.8766 11.1837C17.1787 10.9005 17.1941 10.4258 16.9108 10.1236C16.6275 9.82146 16.1528 9.80615 15.8506 10.0894L16.8766 11.1837ZM14.9091 4.43182C14.4949 4.43182 14.1591 4.7676 14.1591 5.18182C14.1591 5.59603 14.4949 5.93182 14.9091 5.93182V4.43182ZM17.3338 5.18182V5.93182C17.3413 5.93182 17.3489 5.9317 17.3564 5.93148L17.3338 5.18182ZM20 7.51909H20.75C20.75 7.50977 20.7498 7.50045 20.7495 7.49114L20 7.51909ZM20 19.2068L20.7495 19.2343C20.7498 19.2252 20.75 19.216 20.75 19.2068H20ZM17.3338 21.5455L17.3564 20.7958C17.3489 20.7956 17.3413 20.7955 17.3338 20.7955V21.5455ZM6.66618 21.5455V20.7955C6.65865 20.7955 6.65112 20.7956 6.64359 20.7958L6.66618 21.5455ZM4 19.2082H3.25C3.25 19.2175 3.25017 19.2268 3.25052 19.2361L4 19.2082ZM4 7.51909L3.25052 7.49114C3.25017 7.50045 3.25 7.50977 3.25 7.51909H4ZM6.66618 5.18182L6.64359 5.93148C6.65112 5.9317 6.65865 5.93182 6.66618 5.93182V5.18182ZM9.09091 5.93182C9.50512 5.93182 9.84091 5.59603 9.84091 5.18182C9.84091 4.7676 9.50512 4.43182 9.09091 4.43182V5.93182ZM7.12337 13.911L10.0325 16.6383L11.0584 15.544L8.14928 12.8167L7.12337 13.911ZM11.0584 16.6383L16.8766 11.1837L15.8506 10.0894L10.0325 15.544L11.0584 16.6383ZM14.9091 5.93182H17.3338V4.43182H14.9091V5.93182ZM17.3564 5.93148C18.4141 5.89961 19.2178 6.66832 19.2505 7.54704L20.7495 7.49114C20.6827 5.70024 19.1014 4.37822 17.3112 4.43216L17.3564 5.93148ZM19.25 7.51909V19.2068H20.75V7.51909H19.25ZM19.2505 19.1793C19.2183 20.0584 18.4145 20.8277 17.3564 20.7958L17.3112 22.2951C19.1021 22.349 20.6838 21.026 20.7495 19.2343L19.2505 19.1793ZM17.3338 20.7955H6.66618V22.2955H17.3338V20.7955ZM6.64359 20.7958C5.58588 20.8277 4.78225 20.059 4.74948 19.1802L3.25052 19.2361C3.3173 21.027 4.89862 22.3491 6.68877 22.2951L6.64359 20.7958ZM4.75 19.2082V7.51909H3.25V19.2082H4.75ZM4.74948 7.54704C4.78225 6.66832 5.58589 5.89961 6.64359 5.93148L6.68877 4.43216C4.89862 4.37822 3.3173 5.70025 3.25052 7.49114L4.74948 7.54704ZM6.66618 5.93182H9.09091V4.43182H6.66618V5.93182Z" fill="#555555"/>
</svg>
