<svg width="24" height="24" viewBox="0 0 24 24" fill="none" xmlns="http://www.w3.org/2000/svg">
<path d="M2.86621 5.8C2.86621 5.24772 2.4185 4.8 1.86621 4.8C1.31393 4.8 0.866212 5.24772 0.866212 5.8H2.86621ZM1.86621 18.9138L2.86621 18.915V18.9138H1.86621ZM2.47471 20.3879L3.18268 19.6817L2.47471 20.3879ZM3.94735 21L3.94613 22H3.94735V21ZM20.0517 21V22L20.053 22L20.0517 21ZM21.5244 20.3879L20.8164 19.6817L21.5244 20.3879ZM22.1329 18.9138H21.1329L21.1329 18.915L22.1329 18.9138ZM22.1329 7.8862L21.1329 7.88498V7.8862H22.1329ZM21.5244 6.41208L20.8164 7.11833V7.11833L21.5244 6.41208ZM20.0517 5.8L20.053 4.8H20.0517V5.8ZM12.6785 4.8C12.1262 4.8 11.6785 5.24772 11.6785 5.8C11.6785 6.35228 12.1262 6.8 12.6785 6.8V4.8ZM0.866245 5.8C0.866245 6.35228 1.31396 6.8 1.86625 6.8C2.41853 6.8 2.86625 6.35228 2.86625 5.8H0.866245ZM1.86625 4.0862H2.86625L2.86624 4.08498L1.86625 4.0862ZM3.94738 2V0.999999L3.94616 1L3.94738 2ZM10.5974 2L10.5986 1H10.5974V2ZM12.6785 4.0862L11.6785 4.08499V4.0862H12.6785ZM11.6785 5.8C11.6785 6.35228 12.1262 6.8 12.6785 6.8C13.2308 6.8 13.6785 6.35228 13.6785 5.8H11.6785ZM1.86621 4.8C1.31393 4.8 0.866211 5.24772 0.866211 5.8C0.866211 6.35228 1.31393 6.8 1.86621 6.8V4.8ZM12.6785 6.8C13.2308 6.8 13.6785 6.35228 13.6785 5.8C13.6785 5.24772 13.2308 4.8 12.6785 4.8V6.8ZM0.866212 5.8V18.9138H2.86621V5.8H0.866212ZM0.866213 18.9126C0.865218 19.7304 1.18915 20.5152 1.76675 21.0942L3.18268 19.6817C2.9797 19.4782 2.86586 19.2024 2.86621 18.915L0.866213 18.9126ZM1.76675 21.0942C2.34434 21.6732 3.12829 21.999 3.94613 22L3.94856 20C3.66115 19.9997 3.38566 19.8851 3.18268 19.6817L1.76675 21.0942ZM3.94735 22H20.0517V20H3.94735V22ZM20.053 22C20.8708 21.999 21.6547 21.6732 22.2323 21.0942L20.8164 19.6817C20.6134 19.8851 20.3379 19.9997 20.0505 20L20.053 22ZM22.2323 21.0942C22.8099 20.5152 23.1339 19.7304 23.1329 18.9126L21.1329 18.915C21.1332 19.2024 21.0194 19.4782 20.8164 19.6817L22.2323 21.0942ZM23.1329 18.9138V7.8862H21.1329V18.9138H23.1329ZM23.1329 7.88742C23.1339 7.06958 22.8099 6.28484 22.2323 5.70584L20.8164 7.11833C21.0194 7.3218 21.1332 7.59758 21.1329 7.88498L23.1329 7.88742ZM22.2323 5.70584C21.6547 5.12683 20.8708 4.80099 20.053 4.8L20.0505 6.8C20.3379 6.80035 20.6134 6.91486 20.8164 7.11833L22.2323 5.70584ZM20.0517 4.8H12.6785V6.8H20.0517V4.8ZM2.86625 5.8V4.0862H0.866245V5.8H2.86625ZM2.86624 4.08498C2.86589 3.79758 2.97973 3.5218 3.18271 3.31833L1.76678 1.90584C1.18918 2.48484 0.865251 3.26958 0.866246 4.08742L2.86624 4.08498ZM3.18271 3.31833C3.38569 3.11486 3.66119 3.00035 3.94859 3L3.94616 1C3.12832 1.00099 2.34438 1.32683 1.76678 1.90584L3.18271 3.31833ZM3.94738 3H10.5974V1H3.94738V3ZM10.5962 3C10.8836 3.00035 11.1591 3.11486 11.362 3.31833L12.778 1.90584C12.2004 1.32683 11.4164 1.00099 10.5986 1L10.5962 3ZM11.362 3.31833C11.565 3.5218 11.6789 3.79758 11.6785 4.08499L13.6785 4.08741C13.6795 3.26958 13.3556 2.48484 12.778 1.90584L11.362 3.31833ZM11.6785 4.0862V5.8H13.6785V4.0862H11.6785ZM1.86621 6.8H12.6785V4.8H1.86621V6.8Z" fill="#FF7F21"/>
<path d="M9.4668 12.3986C8.91451 12.3986 8.4668 12.8463 8.4668 13.3986C8.4668 13.9509 8.91451 14.3986 9.4668 14.3986V12.3986ZM12.0001 14.3986C12.5524 14.3986 13.0001 13.9509 13.0001 13.3986C13.0001 12.8463 12.5524 12.3986 12.0001 12.3986V14.3986ZM12.0001 12.3986C11.4478 12.3986 11.0001 12.8463 11.0001 13.3986C11.0001 13.9509 11.4478 14.3986 12.0001 14.3986V12.3986ZM14.5335 14.3986C15.0857 14.3986 15.5335 13.9509 15.5335 13.3986C15.5335 12.8463 15.0857 12.3986 14.5335 12.3986V14.3986ZM13.0001 13.3986C13.0001 12.8463 12.5524 12.3986 12.0001 12.3986C11.4478 12.3986 11.0001 12.8463 11.0001 13.3986H13.0001ZM11.0001 15.9319C11.0001 16.4842 11.4478 16.9319 12.0001 16.9319C12.5524 16.9319 13.0001 16.4842 13.0001 15.9319H11.0001ZM11.0001 13.3986C11.0001 13.9509 11.4478 14.3986 12.0001 14.3986C12.5524 14.3986 13.0001 13.9509 13.0001 13.3986H11.0001ZM13.0001 10.8652C13.0001 10.3129 12.5524 9.86523 12.0001 9.86523C11.4478 9.86523 11.0001 10.3129 11.0001 10.8652H13.0001ZM9.4668 14.3986H12.0001V12.3986H9.4668V14.3986ZM12.0001 14.3986H14.5335V12.3986H12.0001V14.3986ZM11.0001 13.3986V15.9319H13.0001V13.3986H11.0001ZM13.0001 13.3986V10.8652H11.0001V13.3986H13.0001Z" fill="#FF7F21"/>
</svg>
