<svg width="36" height="36" viewBox="0 0 36 36" fill="none" xmlns="http://www.w3.org/2000/svg">
<path fill-rule="evenodd" clip-rule="evenodd" d="M9.09569 24.3664C7.61309 22.8525 6.60751 20.9368 6.20368 18.8567C5.7965 16.7707 6.00559 14.6114 6.80539 12.6424C7.59837 10.6844 8.95219 9.00431 10.6968 7.81319C14.2366 5.3956 18.8966 5.3956 22.4363 7.81319C24.181 9.00431 25.5348 10.6844 26.3278 12.6424C27.1276 14.6114 27.3366 16.7707 26.9295 18.8567C26.5256 20.9368 25.5201 22.8525 24.0375 24.3664C22.074 26.3813 19.3799 27.5177 16.5666 27.5177C13.7532 27.5177 11.0591 26.3813 9.09569 24.3664V24.3664Z" stroke="white" stroke-width="2.5" stroke-linecap="round" stroke-linejoin="round"/>
<path d="M16.5822 9.81174C15.8956 9.88448 15.3981 10.5 15.4708 11.1865C15.5436 11.873 16.1591 12.3706 16.8456 12.2978L16.5822 9.81174ZM19.7851 14.0295C20.0542 14.6653 20.7877 14.9624 21.4235 14.6933C22.0592 14.4242 22.3564 13.6906 22.0873 13.0549L19.7851 14.0295ZM25.076 23.317C24.5874 22.8293 23.796 22.83 23.3082 23.3186C22.8205 23.8072 22.8212 24.5986 23.3098 25.0864L25.076 23.317ZM29.1178 30.8841C29.6064 31.3718 30.3979 31.3711 30.8856 30.8825C31.3733 30.3939 31.3726 29.6025 30.884 29.1148L29.1178 30.8841ZM16.8456 12.2978C18.0998 12.1649 19.2934 12.8681 19.7851 14.0295L22.0873 13.0549C21.1664 10.8797 18.9311 9.56284 16.5822 9.81174L16.8456 12.2978ZM23.3098 25.0864L29.1178 30.8841L30.884 29.1148L25.076 23.317L23.3098 25.0864Z" fill="white"/>
</svg>
