<svg width="16" height="64" viewBox="0 0 16 64" fill="none" xmlns="http://www.w3.org/2000/svg">
<path d="M9.5 2.49541C9.5 1.66699 8.82843 0.995415 8 0.995415C7.17158 0.995415 6.5 1.66699 6.5 2.49541L9.5 2.49541ZM16 56C16 51.5817 12.4183 48 8 48C3.58172 48 3.86258e-07 51.5817 0 56C-3.86258e-07 60.4183 3.58172 64 8 64C12.4183 64 16 60.4183 16 56ZM9.5 51.5413C9.5 50.7129 8.82843 50.0413 8 50.0413C7.17157 50.0413 6.5 50.7129 6.5 51.5413L9.5 51.5413ZM6.5 42.6239C6.5 43.4523 7.17157 44.1239 8 44.1239C8.82843 44.1239 9.5 43.4523 9.5 42.6239L6.5 42.6239ZM9.5 33.7064C9.5 32.878 8.82843 32.2064 8 32.2064C7.17157 32.2064 6.5 32.878 6.5 33.7064L9.5 33.7064ZM6.5 24.789C6.5 25.6174 7.17158 26.289 8 26.289C8.82843 26.289 9.5 25.6174 9.5 24.789L6.5 24.789ZM9.5 15.8716C9.5 15.0431 8.82843 14.3716 8 14.3716C7.17158 14.3716 6.5 15.0431 6.5 15.8716L9.5 15.8716ZM6.5 6.95413C6.5 7.78255 7.17158 8.45413 8 8.45413C8.82843 8.45413 9.5 7.78255 9.5 6.95413L6.5 6.95413ZM9.5 56L9.5 51.5413L6.5 51.5413L6.5 56L9.5 56ZM9.5 42.6239L9.5 33.7064L6.5 33.7064L6.5 42.6239L9.5 42.6239ZM9.5 24.789L9.5 15.8716L6.5 15.8716L6.5 24.789L9.5 24.789ZM9.5 6.95413L9.5 2.49541L6.5 2.49541L6.5 6.95413L9.5 6.95413Z" fill="#FF9D54"/>
</svg>
