<svg width="34" height="34" viewBox="0 0 34 34" fill="none" xmlns="http://www.w3.org/2000/svg">
<path d="M0.59668 12.9772C0.59668 8.1027 4.54825 4.15112 9.42277 4.15112H13.2054V21.8033H9.42277C4.54825 21.8033 0.59668 17.8517 0.59668 12.9772Z" fill="#FF9838"/>
<path d="M15.7275 6.35125C15.7275 5.08824 16.6563 4.01742 17.9066 3.83881L30.5963 2.02598C32.1253 1.80756 33.4932 2.99396 33.4932 4.53843V21.5274C33.4932 23.0719 32.1253 24.2583 30.5963 24.0399L17.9066 22.2271C16.6562 22.0484 15.7275 20.9776 15.7275 19.7146V6.35125Z" fill="#FFC48D"/>
<path d="M8.20965 21.3491C7.91191 19.8189 9.05055 18.3914 10.5687 18.3914C11.7155 18.3914 12.7029 19.2233 12.9278 20.3792L14.4189 28.0423C14.7167 29.5725 13.578 31.0001 12.0598 31.0001C10.913 31.0001 9.92567 30.1681 9.70077 29.0122L8.20965 21.3491Z" fill="#FF9838"/>
</svg>
