<svg width="26" height="26" viewBox="0 0 26 26" fill="none" xmlns="http://www.w3.org/2000/svg">
<path d="M20.5833 19.5C20.5833 21.2983 17.1925 22.75 13 22.75C8.80746 22.75 5.41663 21.2983 5.41663 19.5C5.41663 17.7017 8.80746 16.25 13 16.25C17.1925 16.25 20.5833 17.7017 20.5833 19.5ZM20.4316 18.8608V18.7633L13 3.25L5.61163 18.7633V18.8608C5.49923 19.0564 5.43257 19.275 5.41663 19.5C5.41663 21.2983 8.80746 22.75 13 22.75C17.1925 22.75 20.5833 21.2983 20.5833 19.5C20.5807 19.2783 20.5289 19.06 20.4316 18.8608V18.8608Z" stroke="#555555" stroke-width="1.8" stroke-linecap="round" stroke-linejoin="round"/>
</svg>
