<svg width="26" height="26" viewBox="0 0 26 26" fill="none" xmlns="http://www.w3.org/2000/svg">
<path fill-rule="evenodd" clip-rule="evenodd" d="M9.36394 2.32814H16.821C16.8984 2.32814 16.9754 2.33309 17.0519 2.34299C20.0873 2.55526 22.4443 5.07429 22.4546 8.11708V16.8005C22.4434 20.0044 19.8398 22.5941 16.6359 22.5881H9.36394C6.15951 22.5941 3.55572 20.0036 3.54529 16.7991V8.11708C3.55572 4.91265 6.15951 2.32216 9.36394 2.32814Z" stroke="#555555" stroke-width="1.8" stroke-linecap="round" stroke-linejoin="round"/>
<path fill-rule="evenodd" clip-rule="evenodd" d="M9.91245 6.55483L7.89861 8.17563C7.70409 8.36101 7.59467 8.61844 7.59621 8.88715C7.59774 9.15586 7.71009 9.41203 7.90672 9.59517L9.20741 11.1606L14.6452 17.6991C14.7358 17.8045 14.8572 17.8786 14.9923 17.9112L17.6936 18.5285C18.0508 18.5487 18.3618 18.2869 18.4027 17.9315L18.2771 15.3031C18.2678 15.1682 18.2136 15.0402 18.1231 14.9397L12.811 8.55111L11.3793 6.83172C11.0346 6.37546 10.3997 6.25562 9.91245 6.55483Z" stroke="#555555" stroke-width="1.8" stroke-linecap="round" stroke-linejoin="round"/>
<path d="M22.4547 9.07088C22.9517 9.07088 23.3547 8.66794 23.3547 8.17088C23.3547 7.67383 22.9517 7.27088 22.4547 7.27088V9.07088ZM17.052 8.17088H16.152C16.152 8.66794 16.555 9.07088 17.052 9.07088V8.17088ZM17.952 2.34277C17.952 1.84572 17.5491 1.44277 17.052 1.44277C16.555 1.44277 16.152 1.84572 16.152 2.34277H17.952ZM13.6976 8.71027C13.7829 8.22058 13.4551 7.75447 12.9654 7.66916C12.4757 7.58386 12.0096 7.91168 11.9243 8.40136L13.6976 8.71027ZM9.34037 10.2657C8.84877 10.1923 8.39071 10.5313 8.31727 11.0229C8.24384 11.5145 8.58283 11.9725 9.07443 12.046L9.34037 10.2657ZM22.4547 7.27088H17.052V9.07088H22.4547V7.27088ZM17.952 8.17088V2.34277H16.152V8.17088H17.952ZM11.9243 8.40136C11.7118 9.62116 10.565 10.4486 9.34037 10.2657L9.07443 12.046C11.2654 12.3733 13.3174 10.8927 13.6976 8.71027L11.9243 8.40136Z" fill="#555555"/>
</svg>
