<svg width="29" height="34" viewBox="0 0 29 34" fill="none" xmlns="http://www.w3.org/2000/svg">
<g opacity="0.3">
<path opacity="0.3" d="M20.0456 7.09446C19.2803 7.09372 18.5464 6.78933 18.0052 6.24812C17.464 5.70691 17.1596 4.97308 17.1589 4.2077V0.199585H4.25952C3.26036 0.199585 2.30213 0.59651 1.59562 1.30302C0.889104 2.00953 0.492187 2.96775 0.492188 3.96691V26.6773C0.493671 27.6755 0.891239 28.6323 1.59759 29.3376C2.30394 30.0429 3.26133 30.4391 4.25952 30.4391H19.7447C20.7428 30.4391 21.7002 30.0429 22.4066 29.3376C23.1129 28.6323 23.5105 27.6755 23.512 26.6773V7.09446H20.0456Z" fill="#FF3E4C"/>
</g>
<path d="M23.5108 7.09446H20.0445C19.2791 7.09372 18.5453 6.78933 18.004 6.24812C17.4628 5.70691 17.1585 4.97308 17.1577 4.2077V0.199585L23.5108 7.09446Z" fill="#FF3E4C"/>
<path d="M18.7752 21.3168H4.32187C4.18263 21.3168 4.04909 21.2615 3.95064 21.1631C3.85218 21.0646 3.79688 20.9311 3.79688 20.7919C3.79725 20.6529 3.85272 20.5197 3.95113 20.4215C4.04955 20.3234 4.18287 20.2683 4.32187 20.2683H18.7752C18.9141 20.2683 19.0473 20.3234 19.1455 20.4216C19.2436 20.5198 19.2988 20.653 19.2988 20.7919C19.299 20.8607 19.2856 20.929 19.2594 20.9927C19.2331 21.0563 19.1946 21.1142 19.1459 21.163C19.0973 21.2117 19.0395 21.2505 18.9759 21.2769C18.9123 21.3033 18.8441 21.3168 18.7752 21.3168Z" fill="#FF3E4C"/>
<path d="M18.7752 15.4033H4.32187C4.18287 15.4033 4.04955 15.3482 3.95113 15.25C3.85272 15.1519 3.79725 15.0187 3.79688 14.8797C3.79688 14.7405 3.85218 14.6069 3.95064 14.5085C4.04909 14.41 4.18263 14.3547 4.32187 14.3547H18.7752C18.8441 14.3547 18.9123 14.3683 18.9759 14.3947C19.0395 14.4211 19.0973 14.4598 19.1459 14.5086C19.1946 14.5573 19.2331 14.6152 19.2594 14.6789C19.2856 14.7426 19.299 14.8109 19.2988 14.8797C19.2988 15.0186 19.2436 15.1518 19.1455 15.25C19.0473 15.3481 18.9141 15.4033 18.7752 15.4033Z" fill="#FF3E4C"/>
<path d="M18.7752 18.3601H4.32187C4.18263 18.3601 4.04909 18.3047 3.95064 18.2063C3.85218 18.1078 3.79688 17.9743 3.79688 17.8351C3.79725 17.6961 3.85272 17.5629 3.95113 17.4647C4.04955 17.3666 4.18287 17.3115 4.32187 17.3115H18.7752C18.9141 17.3115 19.0473 17.3666 19.1455 17.4648C19.2436 17.563 19.2988 17.6962 19.2988 17.8351C19.299 17.9039 19.2856 17.9722 19.2594 18.0359C19.2331 18.0996 19.1946 18.1574 19.1459 18.2062C19.0973 18.255 19.0395 18.2937 18.9759 18.3201C18.9123 18.3465 18.8441 18.3601 18.7752 18.3601Z" fill="#FF3E4C"/>
<path d="M13.0745 12.4466H4.32187C4.18287 12.4466 4.04955 12.3915 3.95113 12.2933C3.85272 12.1951 3.79725 12.062 3.79688 11.923C3.79688 11.7837 3.85218 11.6502 3.95064 11.5518C4.04909 11.4533 4.18263 11.398 4.32187 11.398H13.0745C13.2135 11.3984 13.3467 11.4538 13.4448 11.5522C13.543 11.6506 13.5981 11.784 13.5981 11.923C13.5977 12.0617 13.5425 12.1947 13.4443 12.2928C13.3462 12.3909 13.2133 12.4462 13.0745 12.4466Z" fill="#FF3E4C"/>
<path d="M13.0745 9.48983H4.32187C4.18287 9.48983 4.04955 9.43469 3.95113 9.33654C3.85272 9.23839 3.79725 9.10524 3.79688 8.96624C3.79688 8.82701 3.85218 8.69345 3.95064 8.59499C4.04909 8.49654 4.18263 8.44125 4.32187 8.44125H13.0745C13.2135 8.44162 13.3467 8.49709 13.4448 8.5955C13.543 8.69392 13.5981 8.82725 13.5981 8.96624C13.5977 9.105 13.5425 9.23795 13.4443 9.33606C13.3462 9.43417 13.2133 9.48946 13.0745 9.48983Z" fill="#FF3E4C"/>
<path d="M26.2439 24.0846H8.7386C7.49686 24.0846 6.49023 25.0912 6.49023 26.3329V31.552C6.49023 32.7938 7.49686 33.8004 8.7386 33.8004H26.2439C27.4856 33.8004 28.4923 32.7938 28.4923 31.552V26.3329C28.4923 25.0912 27.4856 24.0846 26.2439 24.0846Z" fill="#FF3E4C"/>
<path d="M12.2315 30.0722V31.09H11.1787V30.0722H12.2315Z" fill="white"/>
<path d="M13.7805 29.6131V31.09H12.7627V26.8803H14.4119C14.9117 26.8803 15.2939 27.0049 15.5556 27.2527C15.6881 27.3829 15.7915 27.5396 15.8591 27.7126C15.9267 27.8856 15.9568 28.071 15.9476 28.2565C15.9527 28.5012 15.8923 28.7429 15.7726 28.9565C15.6504 29.1653 15.4692 29.3333 15.2519 29.4395C14.9896 29.5634 14.7018 29.6234 14.4119 29.6145L13.7805 29.6131ZM14.9117 28.2565C14.9117 27.8832 14.7073 27.6965 14.2985 27.6965H13.7805V28.7927H14.2985C14.7073 28.7964 14.9117 28.6177 14.9117 28.2565Z" fill="white"/>
<path d="M19.9697 30.0751C19.7944 30.3934 19.5296 30.6533 19.2081 30.8227C18.8463 31.0079 18.444 31.0998 18.0377 31.09H16.4487V26.8803H18.0377C18.4443 26.8701 18.8472 26.96 19.2109 27.1421C19.5315 27.3078 19.7956 27.5651 19.9697 27.8813C20.1518 28.217 20.2435 28.5943 20.2357 28.9761C20.2433 29.3592 20.1516 29.7378 19.9697 30.0751ZM18.8749 29.8637C18.9887 29.7468 19.0769 29.6076 19.1338 29.4547C19.1906 29.3019 19.215 29.1389 19.2053 28.9761C19.2151 28.8135 19.1907 28.6506 19.1338 28.498C19.0769 28.3454 18.9887 28.2064 18.8749 28.0899C18.6203 27.8665 18.2876 27.7527 17.9495 27.7735H17.4665V30.1786H17.9495C18.2874 30.1992 18.6197 30.086 18.8749 29.8637Z" fill="white"/>
<path d="M23.5583 26.8803V27.6909H21.8322V28.6135H23.165V29.3877H21.8322V31.09H20.813V26.8803H23.5583Z" fill="white"/>
<path d="M18.5195 8.44125H16.0444C15.6129 8.44125 15.2632 8.791 15.2632 9.22244V11.6976C15.2632 12.129 15.6129 12.4788 16.0444 12.4788H18.5195C18.951 12.4788 19.3007 12.129 19.3007 11.6976V9.22244C19.3007 8.791 18.951 8.44125 18.5195 8.44125Z" fill="#FF3E4C"/>
</svg>
