<svg width="20" height="20" viewBox="0 0 20 20" fill="none" xmlns="http://www.w3.org/2000/svg">
<path fill-rule="evenodd" clip-rule="evenodd" d="M9.4106 6.42741L13.5199 9.21981C13.7861 9.37525 13.9498 9.66034 13.9498 9.96861C13.9498 10.2769 13.7861 10.562 13.5199 10.7174L9.4106 13.7724C8.6306 14.3015 7.4502 13.8504 7.4502 13.0236V7.17361C7.4502 6.35071 8.6319 5.89831 9.4106 6.42741Z" fill="#FF7F21"/>
<path fill-rule="evenodd" clip-rule="evenodd" d="M1 8.71429V11.2857C1 15.5462 4.4538 19 8.71429 19H11.2857C15.5462 19 19 15.5462 19 11.2857V8.71429C19 4.4538 15.5462 1 11.2857 1H8.71429C4.4538 1 1 4.4538 1 8.71429Z" stroke="#FF7F21" stroke-linecap="round" stroke-linejoin="round"/>
</svg>
