<svg width="48" height="48" viewBox="0 0 48 48" fill="none" xmlns="http://www.w3.org/2000/svg">
<rect x="1" y="1" width="46" height="46" rx="6" fill="white" stroke="#FF7F21"/>
<path d="M16.8446 29.6215H14.289C13.9501 29.6215 13.6251 29.4869 13.3855 29.2473C13.1459 29.0076 13.0112 28.6826 13.0112 28.3438V18.1215C13.0112 17.7826 13.1459 17.4576 13.3855 17.218C13.6251 16.9784 13.9501 16.8438 14.289 16.8438H34.7335C35.0723 16.8438 35.3973 16.9784 35.637 17.218C35.8766 17.4576 36.0112 17.7826 36.0112 18.1215V28.3438C36.0112 28.6826 35.8766 29.0076 35.637 29.2473C35.3973 29.4869 35.0723 29.6215 34.7335 29.6215H32.1779" stroke="#FF7F21" stroke-width="2" stroke-linecap="round" stroke-linejoin="round"/>
<path d="M19.3998 13.0117H29.622H19.3998ZM32.1776 21.9562H16.8442V36.0117H32.1776V21.9562Z" stroke="#FF7F21" stroke-width="2" stroke-linecap="round" stroke-linejoin="round"/>
<path d="M21.9556 29.622L23.2333 30.8997L27.0667 27.0664" stroke="#FF7F21" stroke-width="2" stroke-linecap="round" stroke-linejoin="round"/>
</svg>
