<svg width="46" height="46" viewBox="0 0 46 46" fill="none" xmlns="http://www.w3.org/2000/svg">
<rect width="46" height="46" rx="23" fill="#FFC48D"/>
<path d="M27.4398 16.8C27.4398 19.451 25.2908 21.6 22.6398 21.6C19.9889 21.6 17.8398 19.451 17.8398 16.8C17.8398 14.149 19.9889 12 22.6398 12C25.2908 12 27.4398 14.149 27.4398 16.8Z" fill="white"/>
<path fill-rule="evenodd" clip-rule="evenodd" d="M31.28 32.16C31.28 27.3883 27.4116 23.52 22.64 23.52C17.8684 23.52 14 27.3883 14 32.16H31.28Z" fill="white"/>
<path fill-rule="evenodd" clip-rule="evenodd" d="M32.4985 23.7785C32.4985 23.1056 31.9529 22.5601 31.28 22.5601C30.6071 22.5601 30.0615 23.1056 30.0615 23.7785V26.6216H27.2185C26.5455 26.6216 26 27.1671 26 27.8401C26 28.513 26.5455 29.0585 27.2185 29.0585H30.0615V31.9016C30.0615 32.5745 30.6071 33.1201 31.28 33.1201C31.9529 33.1201 32.4985 32.5745 32.4985 31.9016V29.0585H35.3415C36.0145 29.0585 36.56 28.513 36.56 27.8401C36.56 27.1671 36.0145 26.6216 35.3415 26.6216H32.4985V23.7785Z" fill="#FF9838"/>
<path fill-rule="evenodd" clip-rule="evenodd" d="M31.2796 21.1201C32.7478 21.1201 33.938 22.3104 33.938 23.7786V25.1817H35.3411C36.8093 25.1817 37.9996 26.3719 37.9996 27.8401C37.9996 29.3083 36.8093 30.4986 35.3411 30.4986H33.938V31.9017C33.938 33.3699 32.7478 34.5601 31.2796 34.5601C29.8113 34.5601 28.6211 33.3699 28.6211 31.9017V30.4986H27.218C25.7498 30.4986 24.5596 29.3083 24.5596 27.8401C24.5596 26.3719 25.7498 25.1817 27.218 25.1817H28.6211V23.7786C28.6211 22.3104 29.8113 21.1201 31.2796 21.1201ZM30.0611 23.7786C30.0611 23.1056 30.6066 22.5601 31.2796 22.5601C31.9525 22.5601 32.498 23.1056 32.498 23.7786V26.6217H35.3411C36.014 26.6217 36.5596 27.1672 36.5596 27.8401C36.5596 28.5131 36.014 29.0586 35.3411 29.0586H32.498V31.9017C32.498 32.5746 31.9525 33.1201 31.2796 33.1201C30.6066 33.1201 30.0611 32.5746 30.0611 31.9017V29.0586H27.218C26.5451 29.0586 25.9996 28.5131 25.9996 27.8401C25.9996 27.1672 26.5451 26.6217 27.218 26.6217H30.0611V23.7786Z" fill="white"/>
</svg>
