<svg width="24" height="24" viewBox="0 0 24 24" fill="none" xmlns="http://www.w3.org/2000/svg">
<path d="M21.1907 4.32995C22.827 6.82307 21.5752 9.67866 20.9698 10.7926C20.881 10.9484 20.7617 11.0814 20.6204 11.1822C20.4791 11.283 20.3191 11.3491 20.1516 11.3761C18.9652 11.5971 16.0117 11.8447 14.4244 9.35155C12.8617 6.99989 12.9272 2.86237 13.0663 0.890867C13.0717 0.743983 13.1094 0.600606 13.1762 0.472539C13.243 0.344472 13.337 0.235377 13.4504 0.154233C13.5639 0.0730887 13.6935 0.0222166 13.8287 0.00580401C13.9639 -0.0106086 14.1008 0.00790749 14.2281 0.0598282C15.9871 0.60796 19.6525 1.97829 21.1907 4.32995Z" fill="#FF9838"/>
<path d="M15.6758 3.50781C17.5498 5.89419 19.1946 8.48016 20.5848 11.2259" stroke="#FFC48D" stroke-width="1.3" stroke-linecap="round" stroke-linejoin="round"/>
<path d="M0 15V21C0 22.6569 1.09031 24 2.4347 24H21.2999C21.9721 24 22.5366 23.3172 22.3852 22.5101C21.7164 18.9446 18.6594 18 17.0396 18H13.3883C13.3883 13.2 10.954 12 9.73693 12H2.43423C1.08984 12 0 13.3431 0 15Z" fill="#FFC48D"/>
<path fill-rule="evenodd" clip-rule="evenodd" d="M7.91113 17.3375C7.91113 16.9634 8.18359 16.6602 8.51969 16.6602H13.3882C13.7243 16.6602 13.9967 16.9634 13.9967 17.3375C13.9967 17.7116 13.7243 18.0149 13.3882 18.0149H8.51969C8.18359 18.0149 7.91113 17.7116 7.91113 17.3375Z" fill="white"/>
</svg>
