<svg width="46" height="46" viewBox="0 0 46 46" fill="none" xmlns="http://www.w3.org/2000/svg">
<rect width="46" height="46" rx="23" fill="#F6F6F6"/>
<path d="M25.6904 24.0751C26.0851 24.2329 26.2834 24.6871 26.0469 25.0403C25.7772 25.4432 25.4287 25.7908 25.0197 26.0607C24.3953 26.4727 23.6598 26.6839 22.9119 26.6659C22.164 26.6479 21.4395 26.4016 20.8356 25.9599C20.4402 25.6707 20.1088 25.3068 19.8587 24.8913C19.6395 24.5272 19.8594 24.0829 20.2613 23.9444V23.9444C20.6632 23.8059 21.0928 24.0338 21.3646 24.3606C21.4754 24.4939 21.6028 24.6139 21.7443 24.7174C22.0947 24.9737 22.515 25.1166 22.949 25.127C23.3829 25.1375 23.8096 25.015 24.1719 24.7759C24.3182 24.6793 24.4512 24.5656 24.5684 24.4377C24.8556 24.1244 25.2957 23.9174 25.6904 24.0751V24.0751Z" fill="#FF7F21"/>
<path d="M26.75 20.25C26.75 19.6977 26.3023 19.25 25.75 19.25C25.1977 19.25 24.75 19.6977 24.75 20.25H26.75ZM24.75 21.1667C24.75 21.719 25.1977 22.1667 25.75 22.1667C26.3023 22.1667 26.75 21.719 26.75 21.1667H24.75ZM21.25 20.25C21.25 19.6977 20.8023 19.25 20.25 19.25C19.6977 19.25 19.25 19.6977 19.25 20.25H21.25ZM19.25 21.1667C19.25 21.719 19.6977 22.1667 20.25 22.1667C20.8023 22.1667 21.25 21.719 21.25 21.1667H19.25ZM18.4167 15.75H27.5833V13.75H18.4167V15.75ZM30.25 18.4167V27.5833H32.25V18.4167H30.25ZM27.5833 30.25H18.4167V32.25H27.5833V30.25ZM15.75 27.5833V18.4167H13.75V27.5833H15.75ZM18.4167 30.25C16.9439 30.25 15.75 29.0561 15.75 27.5833H13.75C13.75 30.1607 15.8393 32.25 18.4167 32.25V30.25ZM30.25 27.5833C30.25 29.0561 29.0561 30.25 27.5833 30.25V32.25C30.1607 32.25 32.25 30.1607 32.25 27.5833H30.25ZM27.5833 15.75C29.0561 15.75 30.25 16.9439 30.25 18.4167H32.25C32.25 15.8393 30.1607 13.75 27.5833 13.75V15.75ZM18.4167 13.75C15.8393 13.75 13.75 15.8393 13.75 18.4167H15.75C15.75 16.9439 16.9439 15.75 18.4167 15.75V13.75ZM24.75 20.25V21.1667H26.75V20.25H24.75ZM19.25 20.25V21.1667H21.25V20.25H19.25Z" fill="#FF7F21"/>
</svg>
