<svg width="70" height="71" viewBox="0 0 70 71" fill="none" xmlns="http://www.w3.org/2000/svg">
<g filter="url(#filter0_d_786_57024)">
<rect x="7" y="6.5" width="54" height="54" rx="10" fill="#FFE7D5"/>
<path d="M30.8567 44.04C30.8567 43.29 31.138 42.7158 31.7005 42.3174C32.263 41.9189 32.8958 41.7197 33.5989 41.7197C34.2786 41.7197 34.8997 41.9189 35.4622 42.3174C36.0247 42.7158 36.306 43.2314 36.306 43.8643C36.306 44.5908 36.0364 45.1768 35.4974 45.6221C34.9583 46.0674 34.3138 46.29 33.5638 46.29C33.2357 46.29 32.9075 46.2314 32.5794 46.1143C32.2513 45.9971 31.9583 45.833 31.7005 45.6221C31.4427 45.4111 31.2317 45.1768 31.0677 44.9189C30.9271 44.6377 30.8567 44.3447 30.8567 44.04ZM28.8177 24.8447C29.3567 24.2119 30.095 23.6963 31.0325 23.2979C31.9935 22.8994 32.9661 22.7002 33.9505 22.7002C35.8958 22.7002 37.3724 23.2041 38.3802 24.2119C39.4114 25.2197 39.9271 26.6963 39.9271 28.6416C39.9271 29.1338 39.8216 29.6611 39.6107 30.2236C39.3997 30.7861 39.1302 31.3604 38.8021 31.9463C38.4739 32.5088 38.1107 33.083 37.7122 33.6689C37.3138 34.2549 36.9153 34.8291 36.5169 35.3916L36.2005 35.8486H36.2357C35.9778 36.1768 35.7903 36.5869 35.6732 37.0791C35.5794 37.5713 35.4974 38.0518 35.4271 38.5205C35.4036 38.6377 35.3802 38.8018 35.3567 39.0127C35.3567 39.2236 35.3333 39.376 35.2864 39.4697C35.1927 39.7744 34.9817 40.0088 34.6536 40.1729C34.3255 40.3369 33.9388 40.4189 33.4935 40.4189C33.2122 40.4189 32.931 40.3838 32.6497 40.3135C32.3919 40.2432 32.1575 40.1377 31.9466 39.9971C31.7357 39.833 31.5716 39.6455 31.4544 39.4346C31.3372 39.2002 31.2903 38.9307 31.3138 38.626C31.3607 38.0166 31.4427 37.3252 31.5599 36.5518C31.7005 35.7549 31.97 35.0518 32.3685 34.4424C32.5091 34.2549 32.6614 34.0557 32.8255 33.8447C32.9896 33.6104 33.1302 33.3994 33.2474 33.2119C33.5286 32.8135 33.8099 32.415 34.0911 32.0166C34.3958 31.5947 34.6536 31.1963 34.8646 30.8213C35.0989 30.4229 35.2864 30.0479 35.4271 29.6963C35.5911 29.3213 35.6732 28.9932 35.6732 28.7119C35.6732 27.7744 35.5091 27.1182 35.181 26.7432C34.8528 26.3447 34.4544 26.1455 33.9857 26.1455C33.681 26.1455 33.2942 26.2627 32.8255 26.4971C32.3567 26.7314 32.0052 26.9541 31.7708 27.165C31.3021 27.6104 30.8333 27.7979 30.3646 27.7275C29.9192 27.6338 29.5442 27.4229 29.2396 27.0947C28.9349 26.7666 28.7357 26.3799 28.6419 25.9346C28.5482 25.4893 28.6067 25.126 28.8177 24.8447Z" fill="#FF7F21"/>
</g>
<defs>
<filter id="filter0_d_786_57024" x="0" y="0.5" width="70" height="70" filterUnits="userSpaceOnUse" color-interpolation-filters="sRGB">
<feFlood flood-opacity="0" result="BackgroundImageFix"/>
<feColorMatrix in="SourceAlpha" type="matrix" values="0 0 0 0 0 0 0 0 0 0 0 0 0 0 0 0 0 0 127 0" result="hardAlpha"/>
<feOffset dx="1" dy="2"/>
<feGaussianBlur stdDeviation="4"/>
<feComposite in2="hardAlpha" operator="out"/>
<feColorMatrix type="matrix" values="0 0 0 0 0 0 0 0 0 0 0 0 0 0 0 0 0 0 0.09 0"/>
<feBlend mode="normal" in2="BackgroundImageFix" result="effect1_dropShadow_786_57024"/>
<feBlend mode="normal" in="SourceGraphic" in2="effect1_dropShadow_786_57024" result="shape"/>
</filter>
</defs>
</svg>
