<svg width="26" height="26" viewBox="0 0 26 26" fill="none" xmlns="http://www.w3.org/2000/svg">
<path d="M20.5833 18.4168H5.41667C5.12935 18.4168 4.8538 18.3027 4.65063 18.0995C4.44747 17.8964 4.33333 17.6208 4.33333 17.3335V4.3335H21.6667V17.3335C21.6667 17.6208 21.5525 17.8964 21.3494 18.0995C21.1462 18.3027 20.8707 18.4168 20.5833 18.4168ZM3.25 4.3335H22.75H3.25ZM11.2667 18.4168L8.66667 21.6668L11.2667 18.4168ZM14.7333 18.4168L17.3333 21.6668L14.7333 18.4168ZM13 8.66683C12.4643 8.66683 11.9407 8.82567 11.4953 9.12327C11.0499 9.42086 10.7028 9.84384 10.4978 10.3387C10.2928 10.8336 10.2392 11.3782 10.3437 11.9035C10.4482 12.4289 10.7062 12.9115 11.0849 13.2902C11.4637 13.669 11.9463 13.927 12.4716 14.0315C12.997 14.136 13.5416 14.0823 14.0364 13.8773C14.5313 13.6723 14.9543 13.3252 15.2519 12.8798C15.5495 12.4344 15.7083 11.9108 15.7083 11.3752C15.7083 10.6569 15.423 9.96799 14.9151 9.46008C14.4072 8.95217 13.7183 8.66683 13 8.66683V8.66683Z" stroke="#555555" stroke-width="1.8" stroke-linecap="round" stroke-linejoin="round"/>
</svg>
