<svg width="86" height="86" viewBox="0 0 86 86" fill="none" xmlns="http://www.w3.org/2000/svg">
<g filter="url(#filter0_d_355_33344)">
<path d="M7 41C7 21.67 22.67 6 42 6V6C61.33 6 77 21.67 77 41V41C77 60.33 61.33 76 42 76V76C22.67 76 7 60.33 7 41V41Z" fill="#FFD02B"/>
</g>
<path d="M30.9315 31.1988L32.9347 37.1024C33.0039 37.2389 33.0399 37.3898 33.0399 37.5427C33.0399 37.6957 33.0039 37.8466 32.9347 37.9831L29.1906 42.9821C29.083 43.1252 29.0179 43.2956 29.0029 43.4739C28.9879 43.6522 29.0235 43.8311 29.1056 43.9901C29.1878 44.1491 29.3131 44.2818 29.4673 44.373C29.6215 44.4642 29.7984 44.5101 29.9775 44.5056H36.2258C36.3789 44.5101 36.5291 44.5488 36.6653 44.6188C36.8014 44.6888 36.9202 44.7884 37.0128 44.9103L40.4946 49.9092C40.5967 50.0554 40.7379 50.17 40.902 50.24C41.0661 50.31 41.2466 50.3327 41.423 50.3054C41.5994 50.2782 41.7646 50.202 41.8998 50.0857C42.035 49.9694 42.1348 49.8175 42.1878 49.6474L44.048 43.6962C44.0904 43.5491 44.1696 43.4152 44.278 43.3069C44.3864 43.1987 44.5206 43.1197 44.668 43.0773L50.6301 41.2206C50.8005 41.1676 50.9526 41.068 51.0692 40.9331C51.1857 40.7981 51.262 40.6332 51.2893 40.4572C51.3166 40.2811 51.2939 40.1009 51.2237 39.9371C51.1536 39.7733 51.0388 39.6324 50.8924 39.5304L45.7889 35.9359C45.6668 35.8435 45.567 35.725 45.4969 35.5891C45.4267 35.4531 45.388 35.3032 45.3835 35.1504V28.9136C45.3768 28.7498 45.3279 28.5904 45.2414 28.451C45.155 28.3116 45.0339 28.1969 44.89 28.1179C44.7461 28.0389 44.5842 27.9983 44.42 28.0001C44.2557 28.0018 44.0947 28.0459 43.9526 28.128L38.9445 31.8653C38.8173 31.9535 38.671 32.0102 38.5176 32.0309C38.3642 32.0516 38.2081 32.0357 38.0621 31.9844L32.1477 29.9848C31.9781 29.9253 31.7951 29.9148 31.6198 29.9546C31.4445 29.9945 31.284 30.0829 31.1569 30.2098C31.0298 30.3367 30.9412 30.4969 30.9013 30.6719C30.8614 30.8468 30.8719 31.0295 30.9315 31.1988V31.1988Z" stroke="white" stroke-width="2.5" stroke-linecap="round" stroke-linejoin="round"/>
<path d="M44.273 43.291L54.998 53.9965" stroke="white" stroke-width="2.5" stroke-linecap="round" stroke-linejoin="round"/>
<defs>
<filter id="filter0_d_355_33344" x="0" y="0" width="86" height="86" filterUnits="userSpaceOnUse" color-interpolation-filters="sRGB">
<feFlood flood-opacity="0" result="BackgroundImageFix"/>
<feColorMatrix in="SourceAlpha" type="matrix" values="0 0 0 0 0 0 0 0 0 0 0 0 0 0 0 0 0 0 127 0" result="hardAlpha"/>
<feOffset dx="1" dy="2"/>
<feGaussianBlur stdDeviation="4"/>
<feComposite in2="hardAlpha" operator="out"/>
<feColorMatrix type="matrix" values="0 0 0 0 0 0 0 0 0 0 0 0 0 0 0 0 0 0 0.09 0"/>
<feBlend mode="normal" in2="BackgroundImageFix" result="effect1_dropShadow_355_33344"/>
<feBlend mode="normal" in="SourceGraphic" in2="effect1_dropShadow_355_33344" result="shape"/>
</filter>
</defs>
</svg>
