<svg width="46" height="46" viewBox="0 0 46 46" fill="none" xmlns="http://www.w3.org/2000/svg">
<circle cx="23" cy="23" r="23" fill="#FFC48D"/>
<path d="M13.7998 29.9V31.35C13.7998 32.4546 14.6952 33.35 15.7998 33.35H30.1998C31.3044 33.35 32.1998 32.4546 32.1998 31.35V18.4861C32.1998 17.7285 31.7718 17.036 31.0942 16.6972L23.8942 13.0972C23.3312 12.8157 22.6684 12.8157 22.1054 13.0972L14.9054 16.6972C14.2278 17.036 13.7998 17.7285 13.7998 18.4861V20.7" stroke="white" stroke-width="2.5" stroke-linecap="round" stroke-linejoin="round"/>
<mask id="path-3-outside-1_530_59532" maskUnits="userSpaceOnUse" x="11.5498" y="19.6" width="16" height="12" fill="black">
<rect fill="white" x="11.5498" y="19.6" width="16" height="12"/>
<path fill-rule="evenodd" clip-rule="evenodd" d="M22.964 20.9661C22.4758 20.4779 21.6844 20.4779 21.1962 20.9661C20.708 21.4542 20.708 22.2457 21.1962 22.7339L22.5123 24.05H13.7998C13.1094 24.05 12.5498 24.6096 12.5498 25.3C12.5498 25.9903 13.1094 26.55 13.7998 26.55H22.5123L21.1962 27.8661C20.708 28.3542 20.708 29.1457 21.1962 29.6339C21.6844 30.122 22.4758 30.122 22.964 29.6339L25.7069 26.891C26.5855 26.0123 26.5855 24.5877 25.7069 23.709L22.964 20.9661Z"/>
</mask>
<path fill-rule="evenodd" clip-rule="evenodd" d="M22.964 20.9661C22.4758 20.4779 21.6844 20.4779 21.1962 20.9661C20.708 21.4542 20.708 22.2457 21.1962 22.7339L22.5123 24.05H13.7998C13.1094 24.05 12.5498 24.6096 12.5498 25.3C12.5498 25.9903 13.1094 26.55 13.7998 26.55H22.5123L21.1962 27.8661C20.708 28.3542 20.708 29.1457 21.1962 29.6339C21.6844 30.122 22.4758 30.122 22.964 29.6339L25.7069 26.891C26.5855 26.0123 26.5855 24.5877 25.7069 23.709L22.964 20.9661Z" fill="#FF9838"/>
<path d="M22.5123 24.05V25.05C22.9168 25.05 23.2814 24.8063 23.4362 24.4327C23.591 24.059 23.5054 23.6289 23.2194 23.3429L22.5123 24.05ZM22.5123 26.55L23.2194 27.2571C23.5054 26.9711 23.591 26.541 23.4362 26.1673C23.2814 25.7936 22.9168 25.55 22.5123 25.55V26.55ZM21.1962 27.8661L21.9033 28.5732L21.1962 27.8661ZM22.964 29.6339L23.6711 30.341L22.964 29.6339ZM25.7069 26.891L24.9997 26.1839L25.7069 26.891ZM21.9033 21.6732C22.0009 21.5756 22.1592 21.5756 22.2569 21.6732L23.6711 20.259C22.7924 19.3803 21.3678 19.3803 20.4891 20.259L21.9033 21.6732ZM21.9033 22.0268C21.8057 21.9291 21.8057 21.7708 21.9033 21.6732L20.4891 20.259C19.6104 21.1377 19.6104 22.5623 20.4891 23.441L21.9033 22.0268ZM23.2194 23.3429L21.9033 22.0268L20.4891 23.441L21.8052 24.7571L23.2194 23.3429ZM13.7998 25.05H22.5123V23.05H13.7998V25.05ZM13.5498 25.3C13.5498 25.1619 13.6617 25.05 13.7998 25.05V23.05C12.5572 23.05 11.5498 24.0573 11.5498 25.3H13.5498ZM13.7998 25.55C13.6617 25.55 13.5498 25.4381 13.5498 25.3H11.5498C11.5498 26.5426 12.5572 27.55 13.7998 27.55V25.55ZM22.5123 25.55H13.7998V27.55H22.5123V25.55ZM21.9033 28.5732L23.2194 27.2571L21.8052 25.8429L20.4891 27.159L21.9033 28.5732ZM21.9033 28.9268C21.8057 28.8291 21.8057 28.6708 21.9033 28.5732L20.4891 27.159C19.6104 28.0377 19.6104 29.4623 20.4891 30.341L21.9033 28.9268ZM22.2569 28.9268C22.1592 29.0244 22.0009 29.0244 21.9033 28.9268L20.4891 30.341C21.3678 31.2196 22.7924 31.2196 23.6711 30.341L22.2569 28.9268ZM24.9997 26.1839L22.2569 28.9268L23.6711 30.341L26.414 27.5981L24.9997 26.1839ZM24.9997 24.4161C25.4879 24.9042 25.4879 25.6957 24.9997 26.1839L26.414 27.5981C27.6832 26.3289 27.6832 24.2711 26.414 23.0019L24.9997 24.4161ZM22.2569 21.6732L24.9997 24.4161L26.414 23.0019L23.6711 20.259L22.2569 21.6732Z" fill="white" mask="url(#path-3-outside-1_530_59532)"/>
</svg>
