<svg width="76" height="76" viewBox="0 0 76 76" fill="none" xmlns="http://www.w3.org/2000/svg">
<g filter="url(#filter0_d_199_8242)">
<circle cx="37" cy="36" r="30" fill="#FFE7D5"/>
<path d="M25 45V47.5C25 48.6046 25.8954 49.5 27 49.5H47C48.1046 49.5 49 48.6046 49 47.5V29.7361C49 28.9785 48.572 28.286 47.8944 27.9472L37.8944 22.9472C37.3314 22.6657 36.6686 22.6657 36.1056 22.9472L26.1056 27.9472C25.428 28.286 25 28.9785 25 29.7361V33" stroke="#FF7F21" stroke-width="2.5" stroke-linecap="round" stroke-linejoin="round"/>
<path d="M25 39H38.5" stroke="#FF7F21" stroke-width="2.5" stroke-linecap="round" stroke-linejoin="round"/>
<path d="M35.7998 34.5L39.5927 38.2929C39.9832 38.6834 39.9832 39.3166 39.5927 39.7071L35.7998 43.5" stroke="#FF7F21" stroke-width="2.5" stroke-linecap="round" stroke-linejoin="round"/>
</g>
<defs>
<filter id="filter0_d_199_8242" x="0" y="0" width="76" height="76" filterUnits="userSpaceOnUse" color-interpolation-filters="sRGB">
<feFlood flood-opacity="0" result="BackgroundImageFix"/>
<feColorMatrix in="SourceAlpha" type="matrix" values="0 0 0 0 0 0 0 0 0 0 0 0 0 0 0 0 0 0 127 0" result="hardAlpha"/>
<feOffset dx="1" dy="2"/>
<feGaussianBlur stdDeviation="4"/>
<feComposite in2="hardAlpha" operator="out"/>
<feColorMatrix type="matrix" values="0 0 0 0 0 0 0 0 0 0 0 0 0 0 0 0 0 0 0.09 0"/>
<feBlend mode="normal" in2="BackgroundImageFix" result="effect1_dropShadow_199_8242"/>
<feBlend mode="normal" in="SourceGraphic" in2="effect1_dropShadow_199_8242" result="shape"/>
</filter>
</defs>
</svg>
