<svg width="20" height="20" viewBox="0 0 20 20" fill="none" xmlns="http://www.w3.org/2000/svg">
<circle cx="10" cy="10" r="10" fill="#FFE7D5"/>
<path d="M10.2226 11.6056V11.5559C10.2392 10.5366 10.5044 10.089 11.2337 9.64153C11.9629 9.19402 12.3939 8.5559 12.3939 7.63601C12.3939 6.34319 11.4408 5.39844 9.97399 5.39844C8.63145 5.39844 7.5541 6.22717 7.49609 7.64429H8.56515C8.63145 6.68297 9.30272 6.28518 9.97399 6.28518C10.7447 6.28518 11.3663 6.7907 11.3663 7.59457C11.3663 8.24927 10.9933 8.71335 10.5044 9.0117C9.70051 9.50065 9.21985 9.98131 9.20328 11.5559V11.6056H10.2226ZM9.75024 14.0669C10.1646 14.0669 10.5044 13.7272 10.5044 13.3128C10.5044 12.8984 10.1646 12.5587 9.75024 12.5587C9.33587 12.5587 8.98781 12.8984 8.99609 13.3128C8.98781 13.7272 9.33587 14.0669 9.75024 14.0669Z" fill="#FF7F21"/>
</svg>
