<svg width="24" height="24" viewBox="0 0 24 24" fill="none" xmlns="http://www.w3.org/2000/svg">
<g clip-path="url(#clip0_554_62340)">
<path d="M19 3H9C7.89543 3 7 3.89543 7 5V15C7 16.1046 7.89543 17 9 17H19C20.1046 17 21 16.1046 21 15V5C21 3.89543 20.1046 3 19 3Z" stroke="#FF7F21" stroke-width="2" stroke-linecap="round" stroke-linejoin="round"/>
<path d="M17 17V19C17 19.5304 16.7893 20.0391 16.4142 20.4142C16.0391 20.7893 15.5304 21 15 21H5C4.46957 21 3.96086 20.7893 3.58579 20.4142C3.21071 20.0391 3 19.5304 3 19V9C3 8.46957 3.21071 7.96086 3.58579 7.58579C3.96086 7.21071 4.46957 7 5 7H7" stroke="#FF7F21" stroke-width="2" stroke-linecap="round" stroke-linejoin="round"/>
</g>
<defs>
<clipPath id="clip0_554_62340">
<rect width="24" height="24" fill="white"/>
</clipPath>
</defs>
</svg>
