<svg width="17" height="64" viewBox="0 0 17 64" fill="none" xmlns="http://www.w3.org/2000/svg">
<path d="M6.63623 61.7546C6.63623 62.5831 7.3078 63.2546 8.13623 63.2546C8.96466 63.2546 9.63623 62.5831 9.63623 61.7546H6.63623ZM0.13623 8.25006C0.13623 12.6683 3.71795 16.2501 8.13623 16.2501C12.5545 16.2501 16.1362 12.6683 16.1362 8.25006C16.1362 3.83178 12.5545 0.250061 8.13623 0.250061C3.71795 0.250061 0.13623 3.83178 0.13623 8.25006ZM6.63623 12.7088C6.63623 13.5372 7.3078 14.2088 8.13623 14.2088C8.96466 14.2088 9.63623 13.5372 9.63623 12.7088H6.63623ZM9.63623 21.6262C9.63623 20.7978 8.96466 20.1262 8.13623 20.1262C7.3078 20.1262 6.63623 20.7978 6.63623 21.6262H9.63623ZM6.63623 30.5436C6.63623 31.3721 7.3078 32.0436 8.13623 32.0436C8.96466 32.0436 9.63623 31.3721 9.63623 30.5436H6.63623ZM9.63623 39.4611C9.63623 38.6326 8.96466 37.9611 8.13623 37.9611C7.3078 37.9611 6.63623 38.6326 6.63623 39.4611H9.63623ZM6.63623 48.3785C6.63623 49.2069 7.3078 49.8785 8.13623 49.8785C8.96466 49.8785 9.63623 49.2069 9.63623 48.3785H6.63623ZM9.63623 57.2959C9.63623 56.4675 8.96466 55.7959 8.13623 55.7959C7.3078 55.7959 6.63623 56.4675 6.63623 57.2959H9.63623ZM6.63623 8.25006V12.7088H9.63623V8.25006H6.63623ZM6.63623 21.6262V30.5436H9.63623V21.6262H6.63623ZM6.63623 39.4611V48.3785H9.63623V39.4611H6.63623ZM6.63623 57.2959V61.7546H9.63623V57.2959H6.63623Z" fill="#FF8D85"/>
</svg>
