<svg width="80" height="81" viewBox="0 0 80 81" fill="none" xmlns="http://www.w3.org/2000/svg">
<rect x="10.9097" y="10.9121" width="69.0911" height="69.0911" rx="10" fill="#FF9838"/>
<rect width="69.0911" height="69.0911" rx="10" fill="#FFC48D"/>
<path fill-rule="evenodd" clip-rule="evenodd" d="M27.3227 14.2602H41.9495C42.1014 14.2602 42.2524 14.2699 42.4025 14.2893C48.3564 14.7057 52.9796 19.6467 52.9998 25.6151V42.6475C52.9779 48.9319 47.871 54.0116 41.5865 53.9998H27.3227C21.0372 54.0116 15.9299 48.9303 15.9094 42.6449V25.6151C15.9299 19.3297 21.0372 14.2484 27.3227 14.2602Z" stroke="white" stroke-width="4" stroke-linecap="round" stroke-linejoin="round"/>
<path fill-rule="evenodd" clip-rule="evenodd" d="M28.3985 22.5499L24.4484 25.729C24.0669 26.0927 23.8522 26.5976 23.8553 27.1247C23.8583 27.6518 24.0786 28.1542 24.4643 28.5135L27.0156 31.584L37.6817 44.4093C37.8595 44.6159 38.0977 44.7614 38.3626 44.8253L43.6612 46.036C44.3618 46.0757 44.9718 45.5621 45.0521 44.865L44.8057 39.7095C44.7875 39.4448 44.6812 39.1939 44.5037 38.9968L34.084 26.4656L31.2757 23.093C30.5996 22.198 29.3544 21.963 28.3985 22.5499Z" stroke="white" stroke-width="4" stroke-linecap="round" stroke-linejoin="round"/>
<path d="M53.0002 27.7211C54.1047 27.7211 55.0002 26.8256 55.0002 25.7211C55.0002 24.6165 54.1047 23.7211 53.0002 23.7211V27.7211ZM42.4029 25.7211H40.4029C40.4029 26.8256 41.2984 27.7211 42.4029 27.7211V25.7211ZM44.4029 14.2893C44.4029 13.1847 43.5075 12.2893 42.4029 12.2893C41.2984 12.2893 40.4029 13.1847 40.4029 14.2893H44.4029ZM36.0545 26.8193C36.2441 25.7311 35.5156 24.6953 34.4274 24.5058C33.3392 24.3162 32.3034 25.0447 32.1138 26.1329L36.0545 26.8193ZM27.3113 29.598C26.2189 29.4348 25.201 30.1881 25.0378 31.2805C24.8746 32.373 25.6279 33.3909 26.7203 33.5541L27.3113 29.598ZM53.0002 23.7211H42.4029V27.7211H53.0002V23.7211ZM44.4029 25.7211V14.2893H40.4029V25.7211H44.4029ZM32.1138 26.1329C31.7189 28.4 29.5873 29.938 27.3113 29.598L26.7203 33.5541C31.144 34.2149 35.2869 31.2257 36.0545 26.8193L32.1138 26.1329Z" fill="white"/>
</svg>
