<svg width="148" height="103" viewBox="0 0 148 103" fill="none" xmlns="http://www.w3.org/2000/svg">
<path fill-rule="evenodd" clip-rule="evenodd" d="M131.367 15.8133C133.762 18.2081 133.762 22.091 131.367 24.4859L69.1659 86.6867C66.771 89.0816 62.8881 89.0816 60.4932 86.6867L15.8137 42.0073C13.4189 39.6124 13.4189 35.7295 15.8137 33.3346C18.2086 30.9397 22.0915 30.9397 24.4864 33.3346L64.8295 73.6778L122.694 15.8133C125.089 13.4184 128.972 13.4184 131.367 15.8133Z" fill="#FF9D54"/>
<path fill-rule="evenodd" clip-rule="evenodd" d="M112.782 5.90168C120.651 -1.96723 133.409 -1.96723 141.278 5.90168C149.147 13.7706 149.147 26.5286 141.278 34.3975L132.605 25.7248L141.278 34.3975L79.077 96.5983C71.2081 104.467 58.4501 104.467 50.5812 96.5983L5.90167 51.9188C-1.96722 44.0499 -1.96722 31.2919 5.90167 23.423C13.7706 15.5541 26.5286 15.5541 34.3975 23.423L64.8291 53.8546L112.782 5.90168Z" fill="#FF1F1F"/>
<path fill-rule="evenodd" clip-rule="evenodd" d="M131.367 15.8133C133.762 18.2081 133.762 22.091 131.367 24.4859L69.1659 86.6867C66.771 89.0816 62.8881 89.0816 60.4932 86.6867L15.8137 42.0073C13.4189 39.6124 13.4189 35.7295 15.8137 33.3346C18.2086 30.9397 22.0915 30.9397 24.4864 33.3346L64.8295 73.6778L122.694 15.8133C125.089 13.4184 128.972 13.4184 131.367 15.8133Z" fill="white"/>
</svg>
