<svg width="86" height="86" viewBox="0 0 86 86" fill="none" xmlns="http://www.w3.org/2000/svg">
<g filter="url(#filter0_d_104_10723)">
<rect width="70" height="70" rx="35" transform="matrix(-1 0 0 1 77 6)" fill="#FF9D54"/>
</g>
<path d="M51.9322 50.6422C52.8662 50.0525 54.1014 50.3316 54.6911 51.2656C55.2808 52.1995 55.0017 53.4347 54.0678 54.0244L51.9322 50.6422ZM44.04 55L44.04 57L44.04 55ZM38.92 32.3333L40.6735 33.2952C40.3223 33.9354 39.6502 34.3333 38.92 34.3333L38.92 32.3333ZM54.4428 30.9483C55.2077 31.7451 55.1819 33.0112 54.3851 33.7761C53.5882 34.5411 52.3222 34.5152 51.5572 33.7184L54.4428 30.9483ZM33.8703 41.6667L33.8703 39.6667C34.898 39.6667 35.7584 40.4456 35.8604 41.4682L33.8703 41.6667ZM54.0678 54.0244C51.2386 55.8108 48.3368 57 44.04 57L44.04 53C47.4232 53 49.5944 52.1183 51.9322 50.6422L54.0678 54.0244ZM51.5572 33.7184L49.1992 31.2621L52.0847 28.492L54.4428 30.9483L51.5572 33.7184ZM38.92 34.3333L25.6667 34.3333L25.6667 30.3333L38.92 30.3333L38.92 34.3333ZM44.04 57C39.3514 57 36.3481 54.5583 34.55 51.4272C32.8224 48.419 32.167 44.7422 31.8801 41.8651L35.8604 41.4682C36.1314 44.1855 36.7209 47.1753 38.0187 49.4352C39.2459 51.5722 41.0486 53 44.04 53L44.04 57ZM25.6667 39.6667L33.8703 39.6667L33.8703 43.6667L25.6667 43.6667L25.6667 39.6667ZM41.2085 32.32L40.6735 33.2952L37.1665 31.3714L37.7015 30.3961L41.2085 32.32ZM23 37C23 38.4728 24.1939 39.6667 25.6667 39.6667L25.6667 43.6667C21.9848 43.6667 19 40.6819 19 37L23 37ZM25.6667 34.3333C24.1939 34.3333 23 35.5272 23 37L19 37C19 33.3181 21.9848 30.3333 25.6667 30.3333L25.6667 34.3333ZM49.1992 31.2621C46.8614 28.8269 42.8321 29.3604 41.2085 32.32L37.7015 30.3961C40.6239 25.0689 47.8768 24.1087 52.0847 28.492L49.1992 31.2621Z" fill="white"/>
<defs>
<filter id="filter0_d_104_10723" x="0" y="0" width="86" height="86" filterUnits="userSpaceOnUse" color-interpolation-filters="sRGB">
<feFlood flood-opacity="0" result="BackgroundImageFix"/>
<feColorMatrix in="SourceAlpha" type="matrix" values="0 0 0 0 0 0 0 0 0 0 0 0 0 0 0 0 0 0 127 0" result="hardAlpha"/>
<feOffset dx="1" dy="2"/>
<feGaussianBlur stdDeviation="4"/>
<feComposite in2="hardAlpha" operator="out"/>
<feColorMatrix type="matrix" values="0 0 0 0 0 0 0 0 0 0 0 0 0 0 0 0 0 0 0.09 0"/>
<feBlend mode="normal" in2="BackgroundImageFix" result="effect1_dropShadow_104_10723"/>
<feBlend mode="normal" in="SourceGraphic" in2="effect1_dropShadow_104_10723" result="shape"/>
</filter>
</defs>
</svg>
