<svg width="46" height="46" viewBox="0 0 46 46" fill="none" xmlns="http://www.w3.org/2000/svg">
<rect width="46" height="46" rx="23" fill="#F6F6F6"/>
<path d="M25.6904 24.0745C26.0851 24.2322 26.2834 24.6865 26.0469 25.0397C25.7772 25.4426 25.4287 25.7902 25.0197 26.06C24.3953 26.4721 23.6598 26.6833 22.9119 26.6653C22.164 26.6473 21.4395 26.4009 20.8356 25.9593C20.4402 25.67 20.1088 25.3061 19.8587 24.8907C19.6395 24.5265 19.8594 24.0823 20.2613 23.9438C20.6632 23.8052 21.0928 24.0331 21.3646 24.36C21.4754 24.4933 21.6028 24.6133 21.7443 24.7168C22.0947 24.973 22.515 25.1159 22.949 25.1264C23.3829 25.1368 23.8096 25.0143 24.1719 24.7752C24.3182 24.6787 24.4512 24.5649 24.5684 24.4371C24.8556 24.1237 25.2957 23.9168 25.6904 24.0745Z" fill="#FF7F21"/>
<path d="M21.1668 20.2497C21.1668 19.7434 20.7564 19.333 20.2502 19.333C19.7439 19.333 19.3335 19.7434 19.3335 20.2497V21.1663C19.3335 21.6726 19.7439 22.083 20.2502 22.083C20.7564 22.083 21.1668 21.6726 21.1668 21.1663V20.2497Z" fill="#FF7F21"/>
<path d="M26.6668 20.2497C26.6668 19.7434 26.2564 19.333 25.7502 19.333C25.2439 19.333 24.8335 19.7434 24.8335 20.2497V21.1663C24.8335 21.6726 25.2439 22.083 25.7502 22.083C26.2564 22.083 26.6668 21.6726 26.6668 21.1663V20.2497Z" fill="#FF7F21"/>
<path fill-rule="evenodd" clip-rule="evenodd" d="M13.8335 22.9997C13.8335 17.9371 17.9376 13.833 23.0002 13.833C28.0628 13.833 32.1668 17.9371 32.1668 22.9997C32.1668 28.0623 28.0628 32.1663 23.0002 32.1663C17.9376 32.1663 13.8335 28.0623 13.8335 22.9997ZM23.0002 15.6663C18.9501 15.6663 15.6668 18.9496 15.6668 22.9997C15.6668 27.0498 18.9501 30.333 23.0002 30.333C27.0503 30.333 30.3335 27.0498 30.3335 22.9997C30.3335 18.9496 27.0503 15.6663 23.0002 15.6663Z" fill="#FF7F21"/>
</svg>
