<svg width="30" height="30" viewBox="0 0 30 30" fill="none" xmlns="http://www.w3.org/2000/svg">
<path fill-rule="evenodd" clip-rule="evenodd" d="M6.25 16.1929C6.26549 17.5498 6.81944 18.845 7.78996 19.7935C8.76048 20.742 10.0681 21.266 11.425 21.2503H13.9325C14.6143 21.2509 15.2664 21.53 15.7375 22.0228L17.0738 23.4203C17.2851 23.6345 17.5735 23.755 17.8744 23.755C18.1753 23.755 18.4636 23.6345 18.675 23.4203L20.75 21.2503L21.4313 20.4903C21.5567 20.3541 21.6935 20.2287 21.84 20.1153C23.0436 19.1692 23.7474 17.7238 23.75 16.1929V10.0553C23.7164 7.23062 21.3997 4.96771 18.575 5.00035H11.425C8.60026 4.96771 6.28363 7.23062 6.25 10.0553V16.1929Z" stroke="#222222" stroke-width="1.5" stroke-linecap="round" stroke-linejoin="round"/>
<path d="M19.4457 15.3352C19.6004 14.951 19.4144 14.5141 19.0302 14.3593C18.646 14.2046 18.209 14.3906 18.0543 14.7748L19.4457 15.3352ZM17.645 16.5625L18.1188 17.1439L18.1216 17.1416L17.645 16.5625ZM12.33 16.5238L11.8445 17.0954L11.8478 17.0982L12.33 16.5238ZM11.9502 14.7312C11.8017 14.3445 11.3679 14.1514 10.9812 14.2998C10.5945 14.4483 10.4014 14.8821 10.5498 15.2688L11.9502 14.7312ZM12 10C12 9.58579 11.6642 9.25 11.25 9.25C10.8358 9.25 10.5 9.58579 10.5 10H12ZM10.5 11.25C10.5 11.6642 10.8358 12 11.25 12C11.6642 12 12 11.6642 12 11.25H10.5ZM19.5 10C19.5 9.58579 19.1642 9.25 18.75 9.25C18.3358 9.25 18 9.58579 18 10H19.5ZM18 11.25C18 11.6642 18.3358 12 18.75 12C19.1642 12 19.5 11.6642 19.5 11.25H18ZM18.0543 14.7748C17.8648 15.2454 17.5602 15.661 17.1684 15.9834L18.1216 17.1416C18.7071 16.6597 19.1624 16.0386 19.4457 15.3352L18.0543 14.7748ZM17.1712 15.9811C15.8988 17.0178 14.0693 17.0045 12.8122 15.9493L11.8478 17.0982C13.6564 18.6162 16.2883 18.6354 18.1188 17.1439L17.1712 15.9811ZM12.8155 15.9521C12.4293 15.6241 12.1318 15.2043 11.9502 14.7312L10.5498 15.2688C10.8215 15.9765 11.2667 16.6046 11.8445 17.0954L12.8155 15.9521ZM10.5 10V11.25H12V10H10.5ZM18 10V11.25H19.5V10H18Z" fill="#222222"/>
</svg>
