<svg width="26" height="26" viewBox="0 0 26 26" fill="none" xmlns="http://www.w3.org/2000/svg">
<path d="M22.75 22.75H6.49996C6.21264 22.75 5.93709 22.6359 5.73393 22.4327C5.53076 22.2295 5.41663 21.954 5.41663 21.6667V3.25" stroke="#555555" stroke-width="1.8" stroke-linecap="round" stroke-linejoin="round"/>
<path d="M13 4.3335H19.5M3.25 7.5835H14.0833H3.25ZM21.5367 16.8243L18.4167 11.0285V4.3335H14.0833V11.0285L10.9633 16.8243C10.8755 16.9892 10.8319 17.1739 10.8366 17.3606C10.8412 17.5474 10.8941 17.7297 10.99 17.8899C11.086 18.0502 11.2217 18.1829 11.3841 18.2752C11.5464 18.3676 11.7299 18.4163 11.9167 18.4168H20.5833C20.7701 18.4163 20.9536 18.3676 21.1159 18.2752C21.2783 18.1829 21.414 18.0502 21.51 17.8899C21.6059 17.7297 21.6588 17.5474 21.6634 17.3606C21.6681 17.1739 21.6244 16.9892 21.5367 16.8243V16.8243Z" stroke="#555555" stroke-width="1.8" stroke-linecap="round" stroke-linejoin="round"/>
</svg>
