<svg width="40" height="40" viewBox="0 0 40 40" fill="none" xmlns="http://www.w3.org/2000/svg">
<path d="M12.868 10.7166C13.1715 10.3999 13.5334 10.117 13.9536 9.86809C14.3739 9.59656 14.7941 9.40422 15.2144 9.29108C15.658 9.17794 15.9615 9.2232 16.1249 9.42685C16.3818 9.74364 16.8837 10.4564 17.6309 11.5652C18.4013 12.674 19.3819 14.0882 20.5727 15.808C21.5299 14.4276 22.3471 13.2284 23.0241 12.2101C23.7246 11.1692 24.3316 10.2528 24.8453 9.46079C24.9853 9.23451 25.2655 9.17794 25.6858 9.29108C26.1294 9.40422 26.573 9.58524 27.0166 9.83415C27.4602 10.0831 27.8221 10.3659 28.1022 10.6827C28.4058 10.9769 28.4991 11.2145 28.3824 11.3955L26.2111 14.62L22.9891 19.3379C23.6195 20.2657 24.2265 21.1708 24.8102 22.0533C25.4173 22.9132 25.9659 23.7051 26.4562 24.4292C26.9699 25.1307 27.4135 25.7417 27.787 26.2621C28.1606 26.7826 28.4408 27.1559 28.6276 27.3822C28.791 27.5858 28.7326 27.8574 28.4524 28.1968C28.1956 28.5362 27.8454 28.8417 27.4018 29.1132C26.9816 29.3848 26.5496 29.5771 26.106 29.6903C25.6624 29.8034 25.3589 29.7355 25.1955 29.4866C24.3783 28.2647 23.5845 27.122 22.814 26.0585C22.0435 24.9723 21.2381 23.8183 20.3975 22.5964C19.5103 23.9314 18.6698 25.176 17.876 26.33C17.1055 27.484 16.4168 28.5362 15.8097 29.4866C15.6463 29.7355 15.3545 29.8034 14.9342 29.6903C14.5373 29.5771 14.1287 29.3848 13.7085 29.1132C13.2882 28.8417 12.9263 28.5475 12.6228 28.2307C12.3426 27.8913 12.2492 27.6085 12.3426 27.3822C13.0664 26.3639 13.9069 25.142 14.8642 23.7165C15.8448 22.2909 16.8837 20.7522 17.9811 19.1003L12.6228 11.3955C12.5294 11.2371 12.6111 11.0108 12.868 10.7166Z" fill="#FF8D85"/>
</svg>
