<svg width="39" height="39" viewBox="0 0 39 39" fill="none" xmlns="http://www.w3.org/2000/svg">
<rect width="39" height="39" rx="10" fill="#FF8D85"/>
<path d="M12.5463 10.449C12.8423 10.1401 13.1951 9.86437 13.6049 9.62169C14.0146 9.35694 14.4244 9.16941 14.8341 9.0591C15.2666 8.94878 15.5625 8.99291 15.7219 9.19147C15.9723 9.50034 16.4617 10.1953 17.1902 11.2764C17.9414 12.3574 18.8975 13.7363 20.0584 15.413C20.9917 14.0672 21.7885 12.8979 22.4486 11.9051C23.1315 10.8903 23.7234 9.99674 24.2242 9.22456C24.3608 9.00394 24.6339 8.94878 25.0437 9.0591C25.4762 9.16941 25.9087 9.34591 26.3412 9.58859C26.7737 9.83128 27.1266 10.1071 27.3998 10.4159C27.6957 10.7027 27.7867 10.9344 27.6729 11.1109L25.5559 14.2548L22.4145 18.8548C23.0291 19.7593 23.621 20.6418 24.19 21.5023C24.7819 22.3406 25.3169 23.1128 25.7949 23.8188C26.2957 24.5027 26.7282 25.0984 27.0924 25.6058C27.4567 26.1133 27.7298 26.4773 27.9119 26.6979C28.0713 26.8965 28.0144 27.1612 27.7412 27.4922C27.4908 27.8231 27.1494 28.121 26.7168 28.3857C26.3071 28.6504 25.886 28.838 25.4534 28.9483C25.0209 29.0586 24.725 28.9924 24.5657 28.7497C23.7689 27.5584 22.9949 26.4442 22.2437 25.4073C21.4925 24.3483 20.7072 23.2231 19.8877 22.0317C19.0227 23.3334 18.2032 24.5469 17.4292 25.672C16.678 26.7972 16.0064 27.8231 15.4146 28.7497C15.2552 28.9924 14.9707 29.0586 14.5609 28.9483C14.1739 28.838 13.7756 28.6504 13.3658 28.3857C12.9561 28.121 12.6032 27.8341 12.3073 27.5253C12.0341 27.1943 11.9431 26.9186 12.0341 26.6979C12.7398 25.7051 13.5593 24.5138 14.4926 23.1238C15.4487 21.7339 16.4617 20.2337 17.5316 18.6231L12.3073 11.1109C12.2163 10.9565 12.2959 10.7358 12.5463 10.449Z" fill="white"/>
</svg>
