<svg width="125" height="125" viewBox="0 0 125 125" fill="none" xmlns="http://www.w3.org/2000/svg">
<path d="M98.9587 46.875V92.7083C98.9587 98.5422 98.9587 101.459 97.8233 103.687C96.8246 105.647 95.2311 107.241 93.2711 108.24C91.0428 109.375 88.1259 109.375 82.292 109.375H42.7087C36.8748 109.375 33.9578 109.375 31.7296 108.24C29.7696 107.241 28.176 105.647 27.1773 103.687C26.042 101.459 26.042 98.5422 26.042 92.7083V32.2917C26.042 26.4578 26.042 23.5408 27.1773 21.3126C28.176 19.3526 29.7696 17.759 31.7296 16.7603C33.9578 15.625 36.8748 15.625 42.7087 15.625H67.7087M98.9587 46.875L67.7087 15.625M98.9587 46.875H84.3753C78.5414 46.875 75.6245 46.875 73.3963 45.7397C71.4362 44.741 69.8427 43.1474 68.844 41.1874C67.7087 38.9592 67.7087 36.0422 67.7087 30.2083V15.625M62.5003 75.5208V91.1458M62.5003 59.8958H62.5524" stroke="#131A29" stroke-width="6" stroke-linecap="round" stroke-linejoin="round"/>
</svg>
