<svg width="22" height="22" viewBox="0 0 22 22" fill="none" xmlns="http://www.w3.org/2000/svg">
<path d="M10.0748 2.25583C10.4141 1.42845 11.5859 1.42845 11.9252 2.25583L13.6493 6.45955C13.793 6.80979 14.1221 7.04889 14.4995 7.07727L19.0303 7.41798C19.922 7.48504 20.2841 8.59942 19.6021 9.17783L16.1369 12.1166C15.8482 12.3614 15.7225 12.7483 15.8122 13.1161L16.8882 17.5304C17.1 18.3992 16.152 19.0879 15.3912 18.618L11.5255 16.2305C11.2034 16.0316 10.7966 16.0316 10.4745 16.2305L6.60881 18.618C5.84796 19.0879 4.90001 18.3992 5.1118 17.5304L6.18785 13.1161C6.2775 12.7483 6.1518 12.3614 5.86309 12.1166L2.3979 9.17783C1.71588 8.59942 2.07796 7.48504 2.96971 7.41798L7.50046 7.07727C7.87794 7.04889 8.20704 6.80979 8.35068 6.45955L10.0748 2.25583Z" fill="#FF7F21" stroke="#FF7F21" stroke-width="2"/>
</svg>
