<svg width="30" height="30" viewBox="0 0 30 30" fill="none" xmlns="http://www.w3.org/2000/svg">
<rect width="30" height="30" rx="10" fill="#FFE7D5"/>
<path d="M13.2545 20.8555C13.2545 20.4388 13.4108 20.1198 13.7233 19.8984C14.0358 19.6771 14.3873 19.5664 14.7779 19.5664C15.1555 19.5664 15.5006 19.6771 15.8131 19.8984C16.1256 20.1198 16.2819 20.4062 16.2819 20.7578C16.2819 21.1615 16.1321 21.487 15.8326 21.7344C15.5332 21.9818 15.1751 22.1055 14.7584 22.1055C14.5761 22.1055 14.3938 22.0729 14.2115 22.0078C14.0292 21.9427 13.8665 21.8516 13.7233 21.7344C13.58 21.6172 13.4628 21.487 13.3717 21.3438C13.2936 21.1875 13.2545 21.0247 13.2545 20.8555ZM12.1217 10.1914C12.4212 9.83984 12.8313 9.55339 13.3522 9.33203C13.886 9.11068 14.4264 9 14.9733 9C16.054 9 16.8743 9.27995 17.4342 9.83984C18.0071 10.3997 18.2936 11.2201 18.2936 12.3008C18.2936 12.5742 18.235 12.8672 18.1178 13.1797C18.0006 13.4922 17.8509 13.8112 17.6686 14.1367C17.4863 14.4492 17.2845 14.7682 17.0631 15.0938C16.8417 15.4193 16.6204 15.7383 16.399 16.0508L16.2233 16.3047H16.2428C16.0996 16.487 15.9954 16.7148 15.9303 16.9883C15.8782 17.2617 15.8326 17.5286 15.7936 17.7891C15.7805 17.8542 15.7675 17.9453 15.7545 18.0625C15.7545 18.1797 15.7415 18.2643 15.7154 18.3164C15.6634 18.4857 15.5462 18.6159 15.3639 18.707C15.1816 18.7982 14.9667 18.8438 14.7194 18.8438C14.5631 18.8438 14.4069 18.8242 14.2506 18.7852C14.1074 18.7461 13.9772 18.6875 13.86 18.6094C13.7428 18.5182 13.6516 18.4141 13.5865 18.2969C13.5214 18.1667 13.4954 18.0169 13.5084 17.8477C13.5345 17.5091 13.58 17.125 13.6451 16.6953C13.7233 16.2526 13.873 15.862 14.0944 15.5234C14.1725 15.4193 14.2571 15.3086 14.3483 15.1914C14.4394 15.0612 14.5175 14.944 14.5826 14.8398C14.7389 14.6185 14.8951 14.3971 15.0514 14.1758C15.2207 13.9414 15.3639 13.7201 15.4811 13.5117C15.6113 13.2904 15.7154 13.082 15.7936 12.8867C15.8847 12.6784 15.9303 12.4961 15.9303 12.3398C15.9303 11.819 15.8391 11.4544 15.6569 11.2461C15.4746 11.0247 15.2532 10.9141 14.9928 10.9141C14.8235 10.9141 14.6087 10.9792 14.3483 11.1094C14.0878 11.2396 13.8925 11.3633 13.7623 11.4805C13.5019 11.7279 13.2415 11.832 12.9811 11.793C12.7337 11.7409 12.5253 11.6237 12.3561 11.4414C12.1868 11.2591 12.0761 11.0443 12.024 10.7969C11.972 10.5495 12.0045 10.3477 12.1217 10.1914Z" fill="#FF7F21"/>
</svg>
