<svg width="28" height="26" viewBox="0 0 28 26" fill="none" xmlns="http://www.w3.org/2000/svg">
<path d="M9.67161 22.9993C9.67161 23.4964 10.0745 23.8993 10.5716 23.8993C11.0687 23.8993 11.4716 23.4964 11.4716 22.9993H9.67161ZM10.5716 19.8123L9.67226 19.7779C9.67182 19.7894 9.67161 19.8008 9.67161 19.8123H10.5716ZM14 16.6267L13.9683 17.5261C13.9895 17.5269 14.0106 17.5269 14.0317 17.5261L14 16.6267ZM17.4285 19.8123H18.3285C18.3285 19.8008 18.3283 19.7894 18.3278 19.7779L17.4285 19.8123ZM16.5285 22.9993C16.5285 23.4964 16.9314 23.8993 17.4285 23.8993C17.9255 23.8993 18.3285 23.4964 18.3285 22.9993H16.5285ZM10.5716 22.0993C10.0745 22.0993 9.67161 22.5022 9.67161 22.9993C9.67161 23.4964 10.0745 23.8993 10.5716 23.8993V22.0993ZM17.4285 23.8993C17.9255 23.8993 18.3285 23.4964 18.3285 22.9993C18.3285 22.5022 17.9255 22.0993 17.4285 22.0993V23.8993ZM10.5716 23.8993C11.0687 23.8993 11.4716 23.4963 11.4716 22.9993C11.4716 22.5022 11.0687 22.0993 10.5716 22.0993V23.8993ZM9.71453 22.9993V22.0993C9.70397 22.0993 9.69341 22.0995 9.68285 22.0998L9.71453 22.9993ZM4.57188 18.2195H3.67189C3.67189 18.2308 3.6721 18.2422 3.67253 18.2536L4.57188 18.2195ZM5.47188 8.63986C5.47188 8.1428 5.06894 7.73986 4.57188 7.73986C4.07483 7.73986 3.67189 8.1428 3.67189 8.63986H5.47188ZM0.63799 10.2222C0.226722 10.5014 0.119618 11.0611 0.398766 11.4724C0.677914 11.8836 1.23761 11.9907 1.64887 11.7116L0.63799 10.2222ZM5.07731 9.38453C5.48858 9.10538 5.59568 8.54569 5.31653 8.13442C5.03738 7.72315 4.47769 7.61605 4.06642 7.89519L5.07731 9.38453ZM4.06648 7.89518C3.6552 8.17431 3.54807 8.734 3.82719 9.14528C4.10632 9.55656 4.66601 9.66369 5.07729 9.38456L4.06648 7.89518ZM12.023 3.58293L11.5347 2.8269C11.529 2.83062 11.5233 2.8344 11.5176 2.83824L12.023 3.58293ZM15.9771 3.58293L16.4825 2.83824C16.4769 2.8344 16.4712 2.83062 16.4654 2.8269L15.9771 3.58293ZM22.9229 9.38456C23.3341 9.66369 23.8938 9.55656 24.173 9.14528C24.4521 8.734 24.345 8.17431 23.9337 7.89518L22.9229 9.38456ZM17.4285 22.0993C16.9315 22.0993 16.5285 22.5022 16.5285 22.9993C16.5285 23.4963 16.9315 23.8993 17.4285 23.8993V22.0993ZM18.2856 22.9993L18.3173 22.0998C18.3067 22.0995 18.2962 22.0993 18.2856 22.0993V22.9993ZM23.4283 18.2195L24.3276 18.2536C24.3281 18.2422 24.3283 18.2308 24.3283 18.2195H23.4283ZM24.3283 8.63986C24.3283 8.1428 23.9253 7.73986 23.4283 7.73986C22.9312 7.73986 22.5283 8.1428 22.5283 8.63986H24.3283ZM26.3514 11.7103C26.7628 11.9893 27.3224 11.8821 27.6015 11.4707C27.8805 11.0594 27.7732 10.4997 27.3619 10.2207L26.3514 11.7103ZM23.9335 7.89505C23.5221 7.61602 22.9625 7.72328 22.6834 8.13463C22.4044 8.54598 22.5117 9.10564 22.923 9.38467L23.9335 7.89505ZM11.4716 22.9993V19.8123H9.67161V22.9993H11.4716ZM11.4709 19.8466C11.5217 18.5171 12.6387 17.4793 13.9683 17.5261L14.0317 15.7273C11.7106 15.6455 9.76092 17.4571 9.67226 19.7779L11.4709 19.8466ZM14.0317 17.5261C15.3614 17.4793 16.4783 18.5171 16.5291 19.8466L18.3278 19.7779C18.2392 17.4571 16.2894 15.6455 13.9683 15.7273L14.0317 17.5261ZM16.5285 19.8123V22.9993H18.3285V19.8123H16.5285ZM10.5716 23.8993H17.4285V22.0993H10.5716V23.8993ZM10.5716 22.0993H9.71453V23.8993H10.5716V22.0993ZM9.68285 22.0998C7.44004 22.1788 5.55626 20.428 5.47124 18.1854L3.67253 18.2536C3.79515 21.4877 6.51179 24.0126 9.74622 23.8987L9.68285 22.0998ZM5.47188 18.2195V8.63986H3.67189V18.2195H5.47188ZM1.64887 11.7116L5.07731 9.38453L4.06642 7.89519L0.63799 10.2222L1.64887 11.7116ZM5.07729 9.38456L12.5284 4.32763L11.5176 2.83824L4.06648 7.89518L5.07729 9.38456ZM12.5113 4.33897C13.4175 3.75368 14.5826 3.75368 15.4889 4.33897L16.4654 2.8269C14.9647 1.8577 13.0354 1.8577 11.5347 2.8269L12.5113 4.33897ZM15.4717 4.32763L22.9229 9.38456L23.9337 7.89518L16.4825 2.83824L15.4717 4.32763ZM17.4285 23.8993H18.2856V22.0993H17.4285V23.8993ZM18.2539 23.8987C21.4884 24.0126 24.205 21.4877 24.3276 18.2536L22.5289 18.1854C22.4439 20.428 20.5601 22.1788 18.3173 22.0998L18.2539 23.8987ZM24.3283 18.2195V8.63986H22.5283V18.2195H24.3283ZM27.3619 10.2207L23.9335 7.89505L22.923 9.38467L26.3514 11.7103L27.3619 10.2207Z" fill="#555555"/>
</svg>
