<svg width="131" height="131" viewBox="0 0 131 131" fill="none" xmlns="http://www.w3.org/2000/svg">
<path d="M33.2521 113.435L34.6141 110.762L33.2521 113.435ZM28.4813 108.664L31.1544 107.302L28.4813 108.664ZM102.518 108.664L99.8453 107.302L102.518 108.664ZM97.7476 113.435L96.3856 110.762L97.7476 113.435ZM97.7476 17.5648L96.3856 20.2379L97.7476 17.5648ZM102.518 22.3356L99.8453 23.6976L102.518 22.3356ZM33.2521 17.5648L34.6141 20.2379L33.2521 17.5648ZM28.4813 22.3356L31.1544 23.6976L28.4813 22.3356ZM76.4165 35.75C78.0734 35.75 79.4165 34.4069 79.4165 32.75C79.4165 31.0931 78.0734 29.75 76.4165 29.75V35.75ZM54.5832 29.75C52.9263 29.75 51.5832 31.0931 51.5832 32.75C51.5832 34.4069 52.9263 35.75 54.5832 35.75V29.75ZM78.9634 93.5153C79.3631 95.1233 80.9906 96.1027 82.5985 95.7031C84.2064 95.3034 85.1859 93.6759 84.7863 92.068L78.9634 93.5153ZM46.2134 92.068C45.8138 93.6759 46.7933 95.3034 48.4012 95.7031C50.0091 96.1027 51.6366 95.1233 52.0362 93.5153L46.2134 92.068ZM65.4998 57.0417C63.843 57.0417 62.4998 58.3848 62.4998 60.0417C62.4998 61.6985 63.843 63.0417 65.4998 63.0417V57.0417ZM65.5544 63.0417C67.2113 63.0417 68.5544 61.6985 68.5544 60.0417C68.5544 58.3848 67.2113 57.0417 65.5544 57.0417V63.0417ZM44.7582 19.375H86.2415V13.375H44.7582V19.375ZM100.708 33.8417V97.1583H106.708V33.8417H100.708ZM86.2415 111.625H44.7582V117.625H86.2415V111.625ZM30.2915 97.1583V33.8417H24.2915V97.1583H30.2915ZM44.7582 111.625C41.6517 111.625 39.5023 111.623 37.8324 111.486C36.1976 111.353 35.2883 111.106 34.6141 110.762L31.8901 116.108C33.5511 116.954 35.3379 117.302 37.3438 117.466C39.3147 117.627 41.7507 117.625 44.7582 117.625V111.625ZM24.2915 97.1583C24.2915 100.166 24.2892 102.602 24.4502 104.573C24.6141 106.579 24.962 108.365 25.8083 110.026L31.1544 107.302C30.8108 106.628 30.5638 105.719 30.4303 104.084C30.2938 102.414 30.2915 100.265 30.2915 97.1583H24.2915ZM34.6141 110.762C33.1245 110.003 31.9134 108.792 31.1544 107.302L25.8083 110.026C27.1426 112.645 29.2716 114.774 31.8901 116.108L34.6141 110.762ZM100.708 97.1583C100.708 100.265 100.706 102.414 100.569 104.084C100.436 105.719 100.189 106.628 99.8453 107.302L105.191 110.026C106.038 108.365 106.386 106.579 106.549 104.573C106.711 102.602 106.708 100.166 106.708 97.1583H100.708ZM86.2415 117.625C89.249 117.625 91.685 117.627 93.6558 117.466C95.6618 117.302 97.4485 116.954 99.1095 116.108L96.3856 110.762C95.7114 111.106 94.8021 111.353 93.1673 111.486C91.4974 111.623 89.348 111.625 86.2415 111.625V117.625ZM99.8453 107.302C99.0863 108.792 97.8752 110.003 96.3856 110.762L99.1095 116.108C101.728 114.774 103.857 112.645 105.191 110.026L99.8453 107.302ZM86.2415 19.375C89.348 19.375 91.4974 19.3773 93.1673 19.5138C94.8021 19.6473 95.7114 19.8943 96.3856 20.2379L99.1095 14.8918C97.4485 14.0455 95.6617 13.6976 93.6558 13.5337C91.685 13.3727 89.249 13.375 86.2415 13.375V19.375ZM106.708 33.8417C106.708 30.8342 106.711 28.3982 106.549 26.4273C106.386 24.4214 106.038 22.6346 105.191 20.9736L99.8453 23.6976C100.189 24.3718 100.436 25.2811 100.569 26.9159C100.706 28.5858 100.708 30.7352 100.708 33.8417H106.708ZM96.3856 20.2379C97.8752 20.9969 99.0863 22.208 99.8453 23.6976L105.191 20.9736C103.857 18.355 101.728 16.2261 99.1095 14.8918L96.3856 20.2379ZM44.7582 13.375C41.7507 13.375 39.3147 13.3727 37.3438 13.5337C35.3379 13.6976 33.5511 14.0455 31.8901 14.8918L34.6141 20.2379C35.2883 19.8943 36.1976 19.6473 37.8324 19.5138C39.5023 19.3773 41.6517 19.375 44.7582 19.375V13.375ZM30.2915 33.8417C30.2915 30.7352 30.2938 28.5858 30.4303 26.9159C30.5638 25.2811 30.8108 24.3718 31.1544 23.6976L25.8083 20.9736C24.962 22.6346 24.6141 24.4214 24.4502 26.4273C24.2892 28.3982 24.2915 30.8342 24.2915 33.8417H30.2915ZM31.8901 14.8918C29.2715 16.2261 27.1426 18.355 25.8083 20.9736L31.1544 23.6976C31.9134 22.208 33.1245 20.9969 34.6141 20.2379L31.8901 14.8918ZM76.4165 29.75H54.5832V35.75H76.4165V29.75ZM67.9582 60.0417C67.9582 61.3994 66.8575 62.5 65.4998 62.5V68.5C70.1712 68.5 73.9582 64.7131 73.9582 60.0417H67.9582ZM65.4998 62.5C64.1421 62.5 63.0415 61.3994 63.0415 60.0417H57.0415C57.0415 64.7131 60.8284 68.5 65.4998 68.5V62.5ZM63.0415 60.0417C63.0415 58.684 64.1421 57.5833 65.4998 57.5833V51.5833C60.8284 51.5833 57.0415 55.3703 57.0415 60.0417H63.0415ZM65.4998 57.5833C66.8575 57.5833 67.9582 58.684 67.9582 60.0417H73.9582C73.9582 55.3703 70.1712 51.5833 65.4998 51.5833V57.5833ZM65.4998 84.875C72.5756 84.875 77.8293 88.9526 78.9634 93.5153L84.7863 92.068C82.824 84.1735 74.5916 78.875 65.4998 78.875V84.875ZM52.0362 93.5153C53.1704 88.9526 58.424 84.875 65.4998 84.875V78.875C56.4081 78.875 48.1757 84.1735 46.2134 92.068L52.0362 93.5153ZM65.4998 63.0417H65.5544V57.0417H65.4998V63.0417Z" fill="#131A29"/>
<circle cx="65.4995" cy="60" r="5.5" fill="#131A29"/>
</svg>
