<svg width="16" height="64" viewBox="0 0 16 64" fill="none" xmlns="http://www.w3.org/2000/svg">
<path d="M6.5 61.5046C6.5 62.333 7.17157 63.0046 8 63.0046C8.82843 63.0046 9.5 62.333 9.5 61.5046H6.5ZM0 8C0 12.4183 3.58172 16 8 16C12.4183 16 16 12.4183 16 8C16 3.58172 12.4183 0 8 0C3.58172 0 0 3.58172 0 8ZM6.5 12.4587C6.5 13.2871 7.17157 13.9587 8 13.9587C8.82843 13.9587 9.5 13.2871 9.5 12.4587H6.5ZM9.5 21.3761C9.5 20.5477 8.82843 19.8761 8 19.8761C7.17157 19.8761 6.5 20.5477 6.5 21.3761H9.5ZM6.5 30.2936C6.5 31.122 7.17157 31.7936 8 31.7936C8.82843 31.7936 9.5 31.122 9.5 30.2936H6.5ZM9.5 39.211C9.5 38.3826 8.82843 37.711 8 37.711C7.17157 37.711 6.5 38.3826 6.5 39.211H9.5ZM6.5 48.1284C6.5 48.9569 7.17157 49.6284 8 49.6284C8.82843 49.6284 9.5 48.9569 9.5 48.1284H6.5ZM9.5 57.0459C9.5 56.2174 8.82843 55.5459 8 55.5459C7.17157 55.5459 6.5 56.2174 6.5 57.0459H9.5ZM6.5 8V12.4587H9.5V8H6.5ZM6.5 21.3761V30.2936H9.5V21.3761H6.5ZM6.5 39.211V48.1284H9.5V39.211H6.5ZM6.5 57.0459V61.5046H9.5V57.0459H6.5Z" fill="#00E009"/>
</svg>
