<svg width="36" height="36" viewBox="0 0 36 36" fill="none" xmlns="http://www.w3.org/2000/svg">
<path fill-rule="evenodd" clip-rule="evenodd" d="M19.4246 9.45601C14.7057 9.45601 10.8803 13.2814 10.8803 18.0003H8.03223C8.03223 11.7085 13.1328 6.60791 19.4246 6.60791C25.7165 6.60791 30.817 11.7085 30.817 18.0003C30.817 24.2922 25.7165 29.3927 19.4246 29.3927C15.2788 29.3927 11.6519 27.1773 9.66059 23.8727L12.1001 22.4027C13.5974 24.8878 16.3182 26.5446 19.4246 26.5446C24.1435 26.5446 27.9689 22.7192 27.9689 18.0003C27.9689 13.2814 24.1435 9.45601 19.4246 9.45601Z" fill="white"/>
<path fill-rule="evenodd" clip-rule="evenodd" d="M9.8508 16.0257L7.79262 12.9385L5.42285 14.5183L8.27095 18.7905C8.70721 19.4449 9.59136 19.6217 10.2458 19.1854L14.5179 16.3373L12.9381 13.9676L9.8508 16.0257Z" fill="white"/>
</svg>
