<svg width="47" height="47" viewBox="0 0 47 47" fill="none" xmlns="http://www.w3.org/2000/svg">
<path fill-rule="evenodd" clip-rule="evenodd" d="M23.5 0C10.5213 0 0 10.5213 0 23.5C0 36.4787 10.5213 47 23.5 47C23.6695 47 23.8385 46.9982 24.0072 46.9946L24 47H41.5L37.1392 42.6392C43.1084 38.3777 47 31.3933 47 23.5C47 10.5213 36.4787 0 23.5 0Z" fill="#FF9D54"/>
<path d="M33 22.435C33 16.3184 28.8108 13 23.5 13C18.1509 13 14 16.3184 14 22.435C14 28.5157 18.1509 31.87 23.5 31.87C24.6983 31.87 25.8486 31.6996 26.9031 31.3677L28.389 33H32.9904L30.0283 29.6368C31.8688 28.0404 33 25.6188 33 22.435ZM19.3108 22.435C19.3108 19.0538 20.8063 17.2152 23.5 17.2152C26.1937 17.2152 27.6892 19.0538 27.6892 22.435C27.6892 23.9865 27.3729 25.2063 26.7785 26.0852L25.7432 24.8655H21.6786L23.9218 27.6368C23.7876 27.6457 23.6438 27.6547 23.5 27.6547C20.8063 27.6547 19.3108 25.8161 19.3108 22.435Z" fill="white"/>
</svg>
