<svg width="39" height="39" viewBox="0 0 39 39" fill="none" xmlns="http://www.w3.org/2000/svg">
<rect width="39" height="39" rx="10" fill="#ADF763"/>
<path d="M26.3356 19.0538C26.3356 17.9293 26.1642 16.9005 25.8214 15.9674C25.4786 15.0343 25.0134 14.2327 24.4257 13.5628C23.8625 12.869 23.1892 12.3426 22.4057 11.9837C21.6466 11.6009 20.8509 11.4095 20.0184 11.4095C19.1614 11.4095 18.3534 11.6009 17.5943 11.9837C16.8353 12.3426 16.1619 12.869 15.5743 13.5628C14.9866 14.2327 14.5214 15.0343 14.1786 15.9674C13.8358 16.9005 13.6644 17.9293 13.6644 19.0538C13.6644 20.2501 13.8236 21.3148 14.1419 22.248C14.4847 23.1572 14.9377 23.9347 15.5008 24.5808C16.0885 25.2028 16.7741 25.6813 17.5576 26.0163C18.3411 26.3513 19.1981 26.5188 20.1285 26.5188C21.0345 26.5188 21.867 26.3513 22.626 26.0163C23.3851 25.6813 24.0339 25.2028 24.5726 24.5808C25.1358 23.9347 25.5643 23.1572 25.8581 22.248C26.1764 21.3148 26.3356 20.2501 26.3356 19.0538ZM9 19.1256C9 17.5704 9.26934 16.1229 9.80801 14.783C10.3712 13.4192 11.1425 12.2349 12.1219 11.23C13.1013 10.2251 14.2643 9.43556 15.611 8.86134C16.9577 8.28711 18.4268 8 20.0184 8C21.5854 8 23.0423 8.28711 24.389 8.86134C25.7357 9.43556 26.8987 10.2251 27.8781 11.23C28.8575 12.2349 29.6166 13.4192 30.1553 14.783C30.7184 16.1229 31 17.5704 31 19.1256C31 20.7047 30.7429 22.1642 30.2287 23.5041C29.7145 24.82 28.98 25.9685 28.025 26.9494C27.0946 27.9065 25.956 28.6601 24.6093 29.2104C23.2627 29.7368 21.7568 30 20.0918 30C18.4023 30 16.872 29.7368 15.5008 29.2104C14.1541 28.6601 12.9911 27.9065 12.0117 26.9494C11.0568 25.9685 10.31 24.82 9.77129 23.5041C9.2571 22.1642 9 20.7047 9 19.1256Z" fill="white"/>
</svg>
