<svg width="29" height="34" viewBox="0 0 29 34" fill="none" xmlns="http://www.w3.org/2000/svg">
<g opacity="0.3">
<path opacity="0.3" d="M20.046 6.8936C19.2806 6.89286 18.5467 6.58848 18.0055 6.04726C17.4643 5.50604 17.1599 4.7722 17.1592 4.0068V0H4.25958C3.26064 -6.89731e-08 2.30261 0.396731 1.59612 1.10295C0.889639 1.80917 0.492559 2.76707 0.492188 3.766V26.4768C0.493301 27.4752 0.89071 28.4324 1.59711 29.138C2.30352 29.8437 3.26113 30.24 4.25958 30.24H19.7436C20.2384 30.2402 20.7285 30.1429 21.1857 29.9536C21.643 29.7644 22.0585 29.4869 22.4084 29.137C22.7584 28.7872 23.0361 28.3718 23.2255 27.9146C23.4149 27.4575 23.5124 26.9675 23.5124 26.4726V6.8936H20.046Z" fill="#A140FF"/>
</g>
<path d="M23.5124 6.8936H20.046C19.2806 6.89286 18.5467 6.58848 18.0055 6.04726C17.4643 5.50604 17.1599 4.7722 17.1592 4.0068V0L23.5124 6.8936Z" fill="#A140FF"/>
<path d="M26.2437 23.884H8.73812C7.49636 23.884 6.48975 24.8907 6.48975 26.1324V31.3516C6.48975 32.5934 7.49636 33.6 8.73812 33.6H26.2437C27.4855 33.6 28.4921 32.5934 28.4921 31.3516V26.1324C28.4921 24.8907 27.4855 23.884 26.2437 23.884Z" fill="#A140FF"/>
<path d="M11.4946 29.8718V30.8896H10.4404V29.8718H11.4946Z" fill="white"/>
<path d="M16.7588 26.7106V30.8896H15.741V28.28L14.8352 30.8938H13.9546L13.0432 28.2744V30.8938H12.0254V26.7148H13.27L14.4068 29.6254L15.5268 26.7148L16.7588 26.7106Z" fill="white"/>
<path d="M18.4792 29.414V30.8896H17.4614V26.6798H19.112C19.6118 26.6798 19.994 26.8044 20.2558 27.0522C20.3883 27.1824 20.4917 27.3391 20.5593 27.5121C20.6269 27.6852 20.657 27.8705 20.6478 28.056C20.6527 28.3007 20.5923 28.5423 20.4728 28.756C20.3505 28.9644 20.1693 29.132 19.952 29.2376C19.6899 29.362 19.402 29.4225 19.112 29.414H18.4792ZM19.6104 28.056C19.6104 27.6827 19.406 27.496 18.9972 27.496H18.4792V28.5922H18.9972C19.406 28.5959 19.6104 28.4172 19.6104 28.056Z" fill="white"/>
<path d="M21.0581 30.1154V29.26L22.9817 26.6224H24.0765V29.225H24.5833V30.1112H24.0765V30.8854H23.0461V30.1112L21.0581 30.1154ZM23.1301 27.8054L22.0941 29.2292H23.1301V27.8054Z" fill="white"/>
<path d="M17.2137 18.4674V11.788C17.2134 11.7556 17.2101 11.7232 17.204 11.6914C17.2025 11.6819 17.2001 11.6725 17.197 11.6634C17.1919 11.6415 17.1853 11.62 17.1773 11.599C17.1737 11.5894 17.1695 11.5801 17.1648 11.571C17.1562 11.5506 17.1459 11.5309 17.134 11.5122L17.1199 11.4898C17.1023 11.4644 17.0827 11.4406 17.0612 11.4184L17.0513 11.41C17.0323 11.392 17.0122 11.3752 16.9912 11.3596L16.9659 11.3442L16.9099 11.3134L16.8806 11.3008C16.8586 11.2923 16.8362 11.2853 16.8134 11.2798H16.7909C16.7592 11.2731 16.7268 11.2698 16.6943 11.27H7.26396C7.13436 11.2819 7.01382 11.3417 6.92603 11.4378C6.83824 11.5338 6.7895 11.6593 6.78934 11.7894C6.78934 11.7978 6.78934 11.8048 6.78934 11.8132V18.4912C6.78597 18.5772 6.81326 18.6615 6.86635 18.7292C6.91228 18.8068 6.97761 18.8711 7.05591 18.9157C7.13421 18.9604 7.22279 18.9839 7.31294 18.984H16.6929C16.8301 18.9833 16.9615 18.9288 17.0589 18.8321C17.1563 18.7355 17.2119 18.6046 17.2137 18.4674ZM7.35214 12.5272V11.5136H8.17673V12.5272H7.35214ZM8.74374 12.5272V11.5136H9.56836V12.5272H8.74374ZM10.1353 12.5272V11.5136H10.9599V12.5272H10.1353ZM11.527 12.5272V11.5136H12.3515V12.5272H11.527ZM12.9185 12.5272V11.5136H13.7431V12.5272H12.9185ZM14.3101 12.5272V11.5136H15.1348V12.5272H14.3101ZM15.7017 12.5272V11.5136H16.5263V12.5272H15.7017ZM7.16173 17.4426V12.8016H16.854V17.4426H7.16173ZM7.35074 18.7292V17.7156H8.17533V18.7292H7.35074ZM8.74234 18.7292V17.7156H9.56695V18.7292H8.74234ZM10.134 18.7292V17.7156H10.9585V18.7292H10.134ZM11.5256 18.7292V17.7156H12.3501V18.7292H11.5256ZM12.9171 18.7292V17.7156H13.7417V18.7292H12.9171ZM14.3087 18.7292V17.7156H15.1334V18.7292H14.3087ZM15.7003 18.7292V17.7156H16.5249V18.7292H15.7003Z" fill="#A140FF"/>
<path d="M13.1231 14.7784L11.7833 14.0042C11.714 13.9645 11.6355 13.9437 11.5556 13.9438C11.4757 13.944 11.3973 13.9651 11.3281 14.0051C11.259 14.045 11.2015 14.1025 11.1615 14.1716C11.1215 14.2407 11.1003 14.3191 11.1001 14.399V15.9474C11.1003 16.0273 11.1215 16.1057 11.1615 16.1748C11.2015 16.2439 11.259 16.3013 11.3281 16.3413C11.3973 16.3813 11.4757 16.4024 11.5556 16.4025C11.6355 16.4027 11.714 16.3819 11.7833 16.3422L13.1231 15.568C13.1923 15.5279 13.2497 15.4703 13.2896 15.401C13.3295 15.3317 13.3505 15.2532 13.3505 15.1732C13.3505 15.0932 13.3295 15.0147 13.2896 14.9454C13.2497 14.8761 13.1923 14.8185 13.1231 14.7784Z" fill="#A140FF"/>
</svg>
