<svg width="28" height="28" viewBox="0 0 28 28" fill="none" xmlns="http://www.w3.org/2000/svg">
<path d="M12.3755 8.875C11.985 9.26552 11.985 9.89869 12.3755 10.2892C12.766 10.6797 13.3992 10.6797 13.7897 10.2892L12.3755 8.875ZM15.7332 6.93144L16.4404 7.63855V7.63854L15.7332 6.93144ZM21.0346 6.93144L20.3275 7.63854L21.0346 6.93144ZM21.0346 12.2328L20.3275 11.5257L21.0346 12.2328ZM17.6768 14.1763C17.2863 14.5669 17.2863 15.2 17.6768 15.5905C18.0673 15.9811 18.7005 15.9811 19.091 15.5905L17.6768 14.1763ZM15.557 19.1269C15.9476 18.7364 15.9478 18.1033 15.5573 17.7127C15.1669 17.322 14.5337 17.3219 14.1431 17.7123L15.557 19.1269ZM12.1994 21.0691L12.8976 21.7851L12.9064 21.7764L12.1994 21.0691ZM6.93219 21.0362L6.22516 21.7433H6.22516L6.93219 21.0362ZM6.89808 15.7689L6.19092 15.0618L6.18195 15.071L6.89808 15.7689ZM10.2559 13.8254C10.6464 13.4349 10.6464 12.8017 10.2559 12.4112C9.86533 12.0206 9.23217 12.0206 8.84164 12.4112L10.2559 13.8254ZM17.3259 12.0555C17.7164 11.665 17.7164 11.0319 17.3259 10.6413C16.9353 10.2508 16.3022 10.2508 15.9116 10.6413L17.3259 12.0555ZM10.6103 15.9427C10.2198 16.3332 10.2198 16.9664 10.6103 17.3569C11.0008 17.7474 11.634 17.7474 12.0245 17.3569L10.6103 15.9427ZM13.7897 10.2892L16.4404 7.63855L15.0261 6.22433L12.3755 8.875L13.7897 10.2892ZM16.4404 7.63854C17.5138 6.56515 19.2541 6.56515 20.3275 7.63854L21.7417 6.22433C19.8872 4.36988 16.8806 4.36988 15.0261 6.22433L16.4404 7.63854ZM20.3275 7.63854C21.4009 8.71194 21.4009 10.4523 20.3275 11.5257L21.7417 12.9399C23.5961 11.0854 23.5961 8.07878 21.7417 6.22433L20.3275 7.63854ZM20.3275 11.5257L17.6768 14.1763L19.091 15.5905L21.7417 12.9399L20.3275 11.5257ZM14.1431 17.7123L11.4925 20.3618L12.9064 21.7764L15.557 19.1269L14.1431 17.7123ZM11.5013 20.3531C10.4242 21.4033 8.70304 21.3926 7.63922 20.329L6.22516 21.7433C8.06309 23.5809 11.0368 23.5995 12.8975 21.7851L11.5013 20.3531ZM7.63922 20.329C6.57539 19.2654 6.56425 17.5442 7.61421 16.4669L6.18195 15.071C4.36797 16.9321 4.38722 19.9058 6.22516 21.7433L7.63922 20.329ZM7.60519 16.476L10.2559 13.8254L8.84164 12.4112L6.19098 15.0618L7.60519 16.476ZM15.9116 10.6413L10.6103 15.9427L12.0245 17.3569L17.3259 12.0555L15.9116 10.6413Z" fill="white"/>
</svg>
