<svg width="24" height="24" viewBox="0 0 24 24" fill="none" xmlns="http://www.w3.org/2000/svg">
<rect x="3.27344" y="3.27295" width="20.7273" height="20.7273" rx="2" fill="#FF9838"/>
<rect width="20.7273" height="20.7273" rx="2" fill="#FFC48D"/>
<path d="M15.5766 9.87267C15.5766 6.27599 13.2719 4.32471 10.3503 4.32471C7.40755 4.32471 5.12402 6.27599 5.12402 9.87267C5.12402 13.4483 7.40755 15.4206 10.3503 15.4206C11.0095 15.4206 11.6424 15.3204 12.2225 15.1253L13.0399 16.0851H15.5713L13.9417 14.1075C14.9543 13.1688 15.5766 11.7448 15.5766 9.87267ZM8.04567 9.87267C8.04567 7.88448 8.86837 6.80336 10.3503 6.80336C11.8322 6.80336 12.6549 7.88448 12.6549 9.87267C12.6549 10.785 12.4809 11.5023 12.1539 12.0191L11.5843 11.3019H9.34828L10.5823 12.9314C10.5085 12.9367 10.4294 12.942 10.3503 12.942C8.86837 12.942 8.04567 11.8609 8.04567 9.87267Z" fill="white"/>
</svg>
