<svg width="18" height="18" viewBox="0 0 18 18" fill="none" xmlns="http://www.w3.org/2000/svg">
<path d="M12.7186 1.28289C12.5316 1.09489 12.2776 0.988852 12.0125 0.988102C11.7473 0.987352 11.4927 1.09195 11.3046 1.27889C11.2054 1.38002 11.1287 1.50101 11.0796 1.63389C10.2476 3.36989 9.33162 4.34889 8.17562 4.92689C6.87862 5.56689 5.38962 6.01189 2.98962 6.01189C2.79221 6.01282 2.59943 6.07182 2.4353 6.18153C2.27118 6.29125 2.14296 6.44683 2.06662 6.62889C1.99105 6.81169 1.97133 7.01278 2.00995 7.20677C2.04858 7.40077 2.14381 7.57897 2.28362 7.71889L5.52662 10.9619L0.989624 17.0119L7.03962 12.4749L10.2816 15.7169C10.3745 15.8105 10.4854 15.8844 10.6076 15.9339C10.7296 15.9849 10.8596 16.0119 10.9896 16.0119C11.1196 16.0119 11.2496 15.9849 11.3716 15.9339C11.5545 15.8589 11.7109 15.7311 11.821 15.567C11.931 15.4028 11.9897 15.2095 11.9896 15.0119C11.9896 12.6119 12.4336 11.1229 13.0726 9.84589C13.6496 8.68989 14.6286 7.77389 16.3656 6.94189C16.4984 6.89323 16.6192 6.81649 16.7196 6.71689C16.9066 6.52883 17.0112 6.27423 17.0104 6.00906C17.0097 5.7439 16.9036 5.48989 16.7156 5.30289L12.7186 1.28289Z" fill="black"/>
</svg>
