<svg width="28" height="34" viewBox="0 0 28 34" fill="none" xmlns="http://www.w3.org/2000/svg">
<g opacity="0.3">
<path opacity="0.3" d="M19.5542 7.09411C18.7886 7.09337 18.0546 6.78903 17.5132 6.24784C16.9717 5.70665 16.667 4.97278 16.6659 4.20724V0.198975H3.76746C2.76827 0.198975 1.80998 0.595915 1.10344 1.30245C0.396906 2.00899 0 2.96724 0 3.96644V26.6777C0 27.6769 0.396906 28.6352 1.10344 29.3417C1.80998 30.0482 2.76827 30.4452 3.76746 30.4452H19.2518C20.251 30.4452 21.2092 30.0482 21.9158 29.3417C22.6223 28.6352 23.0192 27.6769 23.0192 26.6777V7.09411H19.5542Z" fill="#0072FF"/>
</g>
<path d="M23.0184 7.09411H19.5533C18.7878 7.09337 18.0538 6.78903 17.5123 6.24784C16.9708 5.70665 16.6662 4.97278 16.665 4.20724V0.198975L23.0184 7.09411Z" fill="#0072FF"/>
<path d="M25.7515 24.0848H8.24552C7.00374 24.0848 5.99707 25.0915 5.99707 26.3333V31.5526C5.99707 32.7943 7.00374 33.801 8.24552 33.801H25.7515C26.9932 33.801 27.9999 32.7943 27.9999 31.5526V26.3333C27.9999 25.0915 26.9932 24.0848 25.7515 24.0848Z" fill="#0072FF"/>
<path d="M11.9771 30.0728V31.0906H10.9229V30.0728H11.9771Z" fill="white"/>
<path d="M23.3792 29.6136V31.0906H22.3613V26.8807H24.0106C24.5108 26.8807 24.8916 27.0048 25.153 27.2531C25.2856 27.3832 25.3893 27.5399 25.4571 27.7129C25.5249 27.8859 25.5553 28.0713 25.5464 28.2569C25.5508 28.5016 25.4904 28.7431 25.3714 28.9569C25.249 29.1661 25.0672 29.3342 24.8492 29.44C24.5871 29.5644 24.2991 29.6244 24.0092 29.615L23.3792 29.6136ZM24.5103 28.2569C24.5103 27.8836 24.306 27.6969 23.8972 27.6969H23.3792V28.7931H23.8972C24.306 28.7969 24.5103 28.6181 24.5103 28.2569Z" fill="white"/>
<path d="M22.1275 26.8807L21.1223 31.0906H19.8622L19.1888 28.2737L18.5098 31.0906H17.2498L16.2432 26.8807H17.3506L17.8924 29.9286L18.6302 26.8807H19.7502L20.488 29.9286L21.0355 26.8807H22.1275Z" fill="white"/>
<path d="M15.9883 26.8806V31.0905H14.9634V29.3335H13.3674V31.0905H12.3496V26.8806H13.3674V28.5117H14.9634V26.8806H15.9883Z" fill="white"/>
<path d="M14.8662 7.81091H13.6602V16.3168H14.8662V12.4701H16.5166V11.4672H14.8662V7.81091ZM5.94141 10.1088H12.7207V9.13123H9.94043V7.79822H8.73438V9.13123H5.94141V10.1088ZM6.56348 12.8002C6.55713 14.0887 7.68066 14.9266 9.33105 14.933C10.9624 14.9266 12.0859 14.0887 12.0859 12.8002C12.0859 11.4989 10.9624 10.6483 9.33105 10.6547C7.68066 10.6483 6.55713 11.4989 6.56348 12.8002ZM7.65527 18.932H15.3486V17.9545H8.86133V15.6439H7.65527V18.932ZM7.73145 12.8002C7.71875 12.0511 8.36621 11.5878 9.33105 11.5814C10.2959 11.5878 10.9434 12.0511 10.9561 12.8002C10.9434 13.5428 10.2959 13.9999 9.33105 13.9935C8.36621 13.9999 7.71875 13.5428 7.73145 12.8002Z" fill="#0072FF"/>
</svg>
