<svg width="40" height="40" viewBox="0 0 40 40" fill="none" xmlns="http://www.w3.org/2000/svg">
<path d="M27.011 19.5423C27.011 18.389 26.8352 17.3338 26.4836 16.3767C26.1321 15.4197 25.6549 14.5976 25.0522 13.9105C24.4746 13.1989 23.784 12.659 22.9804 12.2909C22.2019 11.8983 21.3857 11.702 20.5318 11.702C19.6529 11.702 18.8242 11.8983 18.0456 12.2909C17.2671 12.659 16.5765 13.1989 15.9738 13.9105C15.3711 14.5976 14.894 15.4197 14.5424 16.3767C14.1908 17.3338 14.015 18.389 14.015 19.5423C14.015 20.7693 14.1782 21.8613 14.5047 22.8184C14.8563 23.7509 15.3209 24.5484 15.8985 25.211C16.5012 25.849 17.2044 26.3398 18.008 26.6833C18.8116 27.0269 19.6906 27.1987 20.6449 27.1987C21.574 27.1987 22.4279 27.0269 23.2064 26.6833C23.9849 26.3398 24.6504 25.849 25.2029 25.211C25.7805 24.5484 26.22 23.7509 26.5213 22.8184C26.8478 21.8613 27.011 20.7693 27.011 19.5423ZM9.23096 19.616C9.23096 18.0209 9.5072 16.5363 10.0597 15.162C10.6373 13.7633 11.4284 12.5486 12.4329 11.5179C13.4374 10.4873 14.6303 9.67745 16.0115 9.0885C17.3927 8.49955 18.8995 8.20508 20.5318 8.20508C22.1391 8.20508 23.6333 8.49955 25.0145 9.0885C26.3957 9.67745 27.5886 10.4873 28.5931 11.5179C29.5977 12.5486 30.3762 13.7633 30.9287 15.162C31.5063 16.5363 31.7951 18.0209 31.7951 19.616C31.7951 21.2356 31.5314 22.7325 31.004 24.1067C30.4766 25.4564 29.7232 26.6343 28.7438 27.6404C27.7895 28.622 26.6218 29.395 25.2405 29.9594C23.8593 30.4992 22.3149 30.7692 20.6072 30.7692C18.8744 30.7692 17.3048 30.4992 15.8985 29.9594C14.5173 29.395 13.3244 28.622 12.3199 27.6404C11.3405 26.6343 10.5745 25.4564 10.022 24.1067C9.49464 22.7325 9.23096 21.2356 9.23096 19.616Z" fill="#ADF763"/>
</svg>
