<svg width="36" height="36" viewBox="0 0 36 36" fill="none" xmlns="http://www.w3.org/2000/svg">
<rect width="36" height="36" rx="18" fill="white"/>
<path d="M12.5001 20.8508C11.6875 20.311 11.0178 19.5823 10.5482 18.7273C10.0786 17.8722 9.82308 16.9161 9.80347 15.9408C9.78385 14.9654 10.0007 13.9998 10.4356 13.1266C10.8705 12.2533 11.5103 11.4984 12.3005 10.9263C13.0907 10.3542 14.0077 9.98197 14.973 9.84147C15.9384 9.70097 16.9235 9.79636 17.8439 10.1195C18.7644 10.4426 19.5929 10.9838 20.2587 11.6969C20.9244 12.41 21.4075 13.2737 21.6667 14.2142C21.9176 14.1666 22.1723 14.1421 22.4276 14.1408C23.3506 14.1433 24.2418 14.4781 24.9381 15.0839C25.6345 15.6897 26.0894 16.526 26.2196 17.4398C26.3498 18.3535 26.1466 19.2836 25.6472 20.0598C25.1478 20.836 24.3856 21.4064 23.5001 21.6667" stroke="#FF7F21" stroke-width="2" stroke-linecap="round" stroke-linejoin="round"/>
<path d="M18 18V26.25" stroke="#FF7F21" stroke-width="2" stroke-linecap="round" stroke-linejoin="round"/>
<path d="M15.1492 23.5L18.0642 26.415L20.8508 23.6283" stroke="#FF7F21" stroke-width="2" stroke-linecap="round" stroke-linejoin="round"/>
</svg>
