<svg width="66" height="66" viewBox="0 0 66 66" fill="none" xmlns="http://www.w3.org/2000/svg">
<path d="M7.45851 10.3829L12.0817 24.0082C12.2413 24.3234 12.3244 24.6715 12.3244 25.0247C12.3244 25.3778 12.2413 25.7259 12.0817 26.0411L3.44077 37.5787C3.19246 37.9089 3.04236 38.3023 3.00769 38.7138C2.97302 39.1252 3.05518 39.5381 3.24475 39.9051C3.43432 40.2721 3.72362 40.5784 4.07952 40.7888C4.43542 40.9993 4.8435 41.1053 5.25701 41.0949H19.6769C20.0303 41.1053 20.3768 41.1946 20.6911 41.3562C21.0054 41.5178 21.2795 41.7477 21.4931 42.0289L29.5286 53.5665C29.7643 53.9038 30.09 54.1683 30.4688 54.3299C30.8475 54.4916 31.2641 54.5439 31.6712 54.4809C32.0783 54.418 32.4595 54.2423 32.7715 53.9738C33.0836 53.7053 33.3139 53.3548 33.4362 52.9622L37.7292 39.2269C37.8271 38.8874 38.0098 38.5782 38.2601 38.3284C38.5103 38.0786 38.82 37.8962 39.1602 37.7985L52.9195 33.5131C53.3129 33.3909 53.664 33.161 53.9329 32.8495C54.2019 32.538 54.3779 32.1575 54.441 31.7511C54.504 31.3448 54.4516 30.9289 54.2897 30.5508C54.1278 30.1727 53.8628 29.8475 53.525 29.6122L41.7469 21.3161C41.4652 21.1029 41.2349 20.8293 41.073 20.5156C40.9111 20.2018 40.8217 19.8559 40.8113 19.5031V5.10853C40.7959 4.73045 40.683 4.36274 40.4835 4.041C40.284 3.71926 40.0047 3.45439 39.6725 3.27203C39.3404 3.08968 38.9667 2.99602 38.5877 3.00013C38.2087 3.00424 37.8371 3.10597 37.509 3.29547L25.9511 11.9212C25.6577 12.1247 25.3201 12.2556 24.9661 12.3034C24.6121 12.3511 24.2517 12.3143 23.9147 12.1959L10.2654 7.58087C9.87399 7.44354 9.45164 7.41943 9.04707 7.51132C8.64249 7.60321 8.27217 7.80736 7.97879 8.10023C7.6854 8.3931 7.48089 8.76278 7.38884 9.16664C7.29679 9.5705 7.32094 9.99211 7.45851 10.3829V10.3829Z" stroke="#FFF38B" stroke-width="6" stroke-linecap="round" stroke-linejoin="round"/>
<path d="M38.2479 38.2915L62.9996 62.9998" stroke="#FFF38B" stroke-width="6" stroke-linecap="round" stroke-linejoin="round"/>
</svg>
