<svg width="129" height="129" viewBox="0 0 129 129" fill="none" xmlns="http://www.w3.org/2000/svg">
<path d="M91.375 53.75V43C91.375 28.1573 79.3427 16.125 64.5 16.125C49.6573 16.125 37.625 28.1573 37.625 43V53.75M64.5 77.9375V88.6875M47.3 112.875H81.7C90.7308 112.875 95.2463 112.875 98.6956 111.117C101.73 109.572 104.197 107.105 105.742 104.071C107.5 100.621 107.5 96.1058 107.5 87.075V79.55C107.5 70.5192 107.5 66.0037 105.742 62.5544C104.197 59.5203 101.73 57.0535 98.6956 55.5075C95.2463 53.75 90.7308 53.75 81.7 53.75H47.3C38.2692 53.75 33.7537 53.75 30.3044 55.5075C27.2703 57.0535 24.8035 59.5203 23.2575 62.5544C21.5 66.0037 21.5 70.5192 21.5 79.55V87.075C21.5 96.1058 21.5 100.621 23.2575 104.071C24.8035 107.105 27.2703 109.572 30.3044 111.117C33.7537 112.875 38.2692 112.875 47.3 112.875Z" stroke="#131A29" stroke-width="6" stroke-linecap="round" stroke-linejoin="round"/>
</svg>
