<svg width="61" height="61" viewBox="0 0 61 61" fill="none" xmlns="http://www.w3.org/2000/svg">
<rect x="0.328125" y="0.101562" width="60" height="60" rx="10" fill="#FFE7D5"/>
<path d="M27.9266 18.033C29.4494 17.3301 31.2039 17.3301 32.7267 18.033L40.3552 21.5539C41.2245 21.9551 41.7812 22.8251 41.7812 23.7825V26.8265H40.1451C38.7894 26.8265 37.6906 27.9254 37.6906 29.281C37.6906 30.1469 38.1388 30.908 38.8159 31.3449C36.7495 32.5422 33.7681 33.372 30.3253 33.372C26.8835 33.372 23.9026 32.5427 21.8362 31.3459C22.5141 30.909 22.963 30.1474 22.963 29.281C22.963 27.9254 21.864 26.8265 20.5084 26.8265H18.8721V23.7825C18.8721 22.8251 19.4287 21.9551 20.298 21.5539L27.9266 18.033ZM24.9214 24.4381C24.5061 24.2601 24.0251 24.4525 23.8471 24.8678C23.6691 25.2832 23.8615 25.7641 24.2768 25.9421L29.5082 28.1842V30.9173C29.5082 31.3693 29.8746 31.7355 30.3264 31.7355C30.7783 31.7355 31.1446 31.3693 31.1446 30.9173V28.1842L36.3759 25.9421C36.7914 25.7641 36.9837 25.2832 36.8058 24.8678C36.6278 24.4525 36.1467 24.2601 35.7314 24.4381L30.3264 26.7545L24.9214 24.4381Z" fill="#9E4402"/>
<path d="M39.3267 29.2811C39.3267 28.8292 39.6929 28.4629 40.1449 28.4629H44.2358C44.4528 28.4629 44.6608 28.5491 44.8143 28.7025C44.9678 28.856 45.054 29.0641 45.054 29.2811V33.3719C45.054 33.8239 44.6876 34.1901 44.2358 34.1901C43.7838 34.1901 43.4176 33.8239 43.4176 33.3719V31.7701C42.9567 32.3153 42.4072 32.828 41.7809 33.3011C41.454 33.5482 41.1061 33.7843 40.7389 34.0088C38.0738 35.6373 34.3921 36.6448 30.3251 36.6448C26.2581 36.6448 22.5763 35.6373 19.9113 34.0088C19.5451 33.7849 19.1981 33.5493 18.8718 33.303C18.2458 32.8305 17.6964 32.3181 17.2355 31.7735V33.3719C17.2355 33.8239 16.8692 34.1901 16.4173 34.1901C15.9654 34.1901 15.5991 33.8239 15.5991 33.3719V29.2811C15.5991 29.0641 15.6853 28.856 15.8388 28.7025C15.9922 28.5491 16.2003 28.4629 16.4173 28.4629H20.5082C20.9601 28.4629 21.3264 28.8292 21.3264 29.2811C21.3264 29.733 20.9601 30.0993 20.5082 30.0993H18.0218C18.253 30.4527 18.536 30.8014 18.8718 31.1416C19.0707 31.3428 19.2881 31.5412 19.5243 31.7356C19.8689 32.0193 20.2536 32.2949 20.679 32.5596C20.7073 32.5773 20.7359 32.5948 20.7646 32.6125C21.4376 33.0237 22.1919 33.3947 23.0145 33.7151C25.0871 34.5223 27.5934 35.0085 30.3251 35.0085C33.0581 35.0085 35.5655 34.5218 37.6388 33.7139C38.4601 33.3937 39.2135 33.0232 39.8855 32.6125C40.3452 32.3315 40.7582 32.0383 41.1259 31.7356C41.3632 31.5404 41.5813 31.341 41.7809 31.1388C42.1157 30.7996 42.3978 30.4517 42.6284 30.0993H40.1449C39.6929 30.0993 39.3267 29.733 39.3267 29.2811Z" fill="#9E4402"/>
<path d="M30.3253 38.2815C25.9661 38.2815 21.8785 37.1876 18.8721 35.2907V36.4162C18.8721 37.3735 19.4287 38.2435 20.298 38.6448L27.9266 42.1656C29.4494 42.8685 31.2039 42.8685 32.7267 42.1656L40.3552 38.6448C41.2245 38.2435 41.7812 37.3735 41.7812 36.4162V35.2891C38.7745 37.1869 34.6857 38.2815 30.3253 38.2815Z" fill="#9E4402"/>
</svg>
