<svg width="54" height="54" viewBox="0 0 54 54" fill="none" xmlns="http://www.w3.org/2000/svg">
<rect width="54" height="54" rx="27" fill="#F6F6F6"/>
<path fill-rule="evenodd" clip-rule="evenodd" d="M19 26C19 22.134 22.134 19 26 19C29.866 19 33 22.134 33 26C33 29.866 29.866 33 26 33C22.134 33 19 29.866 19 26ZM26 17C21.0294 17 17 21.0294 17 26C17 30.9706 21.0294 35 26 35C28.125 35 30.078 34.2635 31.6177 33.0319L35.2929 36.7071C35.6834 37.0976 36.3166 37.0976 36.7071 36.7071C37.0976 36.3166 37.0976 35.6834 36.7071 35.2929L33.0319 31.6177C34.2635 30.078 35 28.125 35 26C35 21.0294 30.9706 17 26 17Z" fill="#FF7F21"/>
</svg>
