<svg width="13" height="26" viewBox="0 0 13 26" fill="none" xmlns="http://www.w3.org/2000/svg">
<path d="M2.62399 23.321C2.62399 22.5154 2.92607 21.8987 3.53024 21.4707C4.13441 21.0428 4.81409 20.8288 5.5693 20.8288C6.29934 20.8288 6.96644 21.0428 7.57061 21.4707C8.17477 21.8987 8.47686 22.4525 8.47686 23.1322C8.47686 23.9125 8.18736 24.5419 7.60837 25.0202C7.02937 25.4985 6.3371 25.7376 5.53154 25.7376C5.17911 25.7376 4.82668 25.6747 4.47425 25.5488C4.12182 25.423 3.80715 25.2467 3.53024 25.0202C3.25333 24.7936 3.02677 24.5419 2.85055 24.265C2.69951 23.9629 2.62399 23.6482 2.62399 23.321ZM0.433885 2.70378C1.01288 2.02409 1.80585 1.47027 2.81279 1.04232C3.84491 0.614366 4.88962 0.400391 5.94691 0.400391C8.03632 0.400391 9.62225 0.941623 10.7047 2.02409C11.8124 3.10655 12.3662 4.69249 12.3662 6.7819C12.3662 7.31055 12.2529 7.87695 12.0263 8.48112C11.7998 9.08529 11.5103 9.70204 11.1578 10.3314C10.8054 10.9355 10.4152 11.5523 9.98727 12.1816C9.55932 12.811 9.13137 13.4277 8.70342 14.0319L8.36357 14.5228H8.40133C8.12442 14.8752 7.92304 15.3158 7.79717 15.8444C7.69647 16.373 7.60837 16.8891 7.53284 17.3926C7.50767 17.5184 7.4825 17.6947 7.45732 17.9212C7.45732 18.1478 7.43215 18.3114 7.3818 18.4121C7.28111 18.7394 7.05455 18.9911 6.70212 19.1673C6.34968 19.3435 5.93432 19.4316 5.45602 19.4316C5.15394 19.4316 4.85185 19.3939 4.54977 19.3184C4.27286 19.2428 4.02113 19.1296 3.79456 18.9785C3.568 18.8023 3.39178 18.6009 3.26592 18.3743C3.14005 18.1226 3.0897 17.8331 3.11488 17.5059C3.16522 16.8513 3.25333 16.1087 3.3792 15.278C3.53024 14.4221 3.81974 13.6669 4.24769 13.0124C4.39873 12.811 4.56236 12.597 4.73857 12.3704C4.91479 12.1187 5.06583 11.8921 5.1917 11.6908C5.49378 11.2628 5.79587 10.8349 6.09795 10.4069C6.42521 9.95378 6.70212 9.52582 6.92868 9.12305C7.18041 8.6951 7.3818 8.29232 7.53284 7.91471C7.70906 7.51194 7.79717 7.15951 7.79717 6.85742C7.79717 5.85048 7.62095 5.14562 7.26852 4.74284C6.91609 4.31489 6.48814 4.10091 5.98467 4.10091C5.65741 4.10091 5.24205 4.22678 4.73857 4.47852C4.2351 4.73025 3.8575 4.9694 3.60576 5.19596C3.10229 5.67426 2.59882 5.87565 2.09534 5.80013C1.61704 5.69944 1.21427 5.47287 0.88701 5.12044C0.559753 4.76801 0.345777 4.35265 0.245083 3.87435C0.144388 3.39605 0.207322 3.00586 0.433885 2.70378Z" fill="#FF7F21"/>
</svg>
