<svg width="24" height="24" viewBox="0 0 24 24" fill="none" xmlns="http://www.w3.org/2000/svg">
<path d="M5.99973 15.1102C5.11332 14.5212 4.38273 13.7264 3.87043 12.7936C3.35813 11.8608 3.07937 10.8177 3.05797 9.75374C3.03658 8.68973 3.27319 7.63636 3.74757 6.68372C4.22196 5.73107 4.92001 4.90748 5.78202 4.28338C6.64404 3.65928 7.64439 3.25323 8.69752 3.09996C9.75065 2.94668 10.8252 3.05074 11.8294 3.40324C12.8335 3.75573 13.7374 4.34617 14.4636 5.12407C15.1899 5.90198 15.7169 6.8442 15.9997 7.87016C16.2734 7.81832 16.5512 7.79154 16.8297 7.79016C17.8366 7.79289 18.8089 8.15811 19.5685 8.81899C20.3282 9.47986 20.8244 10.3922 20.9665 11.389C21.1085 12.3858 20.8869 13.4005 20.3421 14.2472C19.7973 15.094 18.9658 15.7163 17.9997 16.0002" stroke="#FF7F21" stroke-width="2" stroke-linecap="round" stroke-linejoin="round"/>
<path d="M12 12V21" stroke="#FF7F21" stroke-width="2" stroke-linecap="round" stroke-linejoin="round"/>
<path d="M8.89062 18L12.0706 21.18L15.1106 18.14" stroke="#FF7F21" stroke-width="2" stroke-linecap="round" stroke-linejoin="round"/>
</svg>
