<svg width="64" height="72" viewBox="0 0 64 72" fill="none" xmlns="http://www.w3.org/2000/svg">
<path d="M33.8151 29.7397H29.6724V42.443H33.8151V29.7397Z" fill="#FF7F21"/>
<path d="M0 42.4607H25.441V38.1445H4.23798V33.9821H25.441V29.7559H0V42.4607Z" fill="#FF7F21"/>
<path d="M33.8976 0.200195H29.658V25.5723H33.8976V0.200195Z" fill="#FF7F21"/>
<path d="M25.4184 0.200195H16.9556V25.5592H25.4184V21.3002L21.205 21.3084L21.1821 4.41006H25.4184V0.200195Z" fill="#FF7F21"/>
<path d="M38.1121 46.6448V59.33H50.8555V55.1054H42.3763V50.8792H50.8555V38.207H38.1121V42.4316H46.6143V46.6448H38.1121Z" fill="#FF7F21"/>
<path d="M38.1121 25.5315H42.3648V29.7577H38.1121V33.9496H50.8555V29.7577H46.6143V25.5315H63.5727V21.3086H42.3763V17.084H63.5727V12.8594H38.1121V25.5315Z" fill="#FF7F21"/>
<path d="M21.1948 72.0004H33.912V46.6382H21.1948V72.0004ZM25.4755 50.8693H29.6576V67.7775H25.4755V50.8693Z" fill="#FF7F21"/>
</svg>
