<svg width="40" height="45" viewBox="0 0 40 45" fill="none" xmlns="http://www.w3.org/2000/svg">
<path d="M21.2766 18.5134H18.6699V26.475H21.2766V18.5134Z" fill="white"/>
<path d="M0 26.4863H16.0075V23.7812H2.66654V21.1724H16.0075V18.5237H0V26.4863Z" fill="white"/>
<path d="M21.3277 0H18.6602V15.9017H21.3277V0Z" fill="white"/>
<path d="M15.9928 0H10.668V15.8935H15.9928V13.2243L13.3417 13.2294L13.3273 2.6385H15.9928V0Z" fill="white"/>
<path d="M23.9805 29.1086V37.0589H31.9987V34.4112H26.6635V31.7625H31.9987V23.8203H23.9805V26.468H29.3301V29.1086H23.9805Z" fill="white"/>
<path d="M23.9805 15.876H26.6563V18.5247H23.9805V21.152H31.9987V18.5247H29.3301V15.876H40.0003V13.2293H26.6635V10.5816H40.0003V7.93384H23.9805V15.876Z" fill="white"/>
<path d="M13.3359 45.0001H21.3376V29.1045H13.3359V45.0001ZM16.0293 31.7563H18.6607V42.3534H16.0293V31.7563Z" fill="white"/>
</svg>
