<svg width="59" height="36" viewBox="0 0 59 36" fill="none" xmlns="http://www.w3.org/2000/svg">
<path d="M56.7407 35.4436C56.5927 35.4436 56.4731 35.325 56.4731 35.179V31.9502C56.4731 31.8038 56.5931 31.6855 56.7407 31.6855C56.8883 31.6855 57.0083 31.8042 57.0083 31.9502V35.179C57.0083 35.3254 56.8883 35.4436 56.7407 35.4436Z" fill="white"/>
<path fill-rule="evenodd" clip-rule="evenodd" d="M56.1959 31.951C56.1959 31.6529 56.4403 31.4121 56.7407 31.4121C57.0415 31.4121 57.2856 31.6535 57.2856 31.951V35.1798C57.2856 35.4779 57.0412 35.7187 56.7407 35.7187C56.4394 35.7187 56.1959 35.477 56.1959 35.1798V31.951Z" fill="white"/>
<path d="M50.68 35.4436C50.532 35.4436 50.4125 35.325 50.4125 35.179V31.9502C50.4125 31.8038 50.5324 31.6855 50.68 31.6855C50.8277 31.6855 50.9476 31.8042 50.9476 31.9502V35.179C50.9476 35.3254 50.8277 35.4436 50.68 35.4436Z" fill="white"/>
<path fill-rule="evenodd" clip-rule="evenodd" d="M50.1354 31.951C50.1354 31.6529 50.3797 31.4121 50.6802 31.4121C50.9809 31.4121 51.225 31.6535 51.225 31.951V35.1798C51.225 35.4779 50.9807 35.7187 50.6802 35.7187C50.3788 35.7187 50.1354 35.477 50.1354 35.1798V31.951Z" fill="white"/>
<path d="M44.6197 35.4436C44.4717 35.4436 44.3522 35.325 44.3522 35.179V31.9502C44.3522 31.8038 44.4721 31.6855 44.6197 31.6855C44.7674 31.6855 44.8873 31.8042 44.8873 31.9502V35.179C44.8873 35.3254 44.7674 35.4436 44.6197 35.4436Z" fill="white"/>
<path fill-rule="evenodd" clip-rule="evenodd" d="M44.0751 31.951C44.0751 31.6529 44.3194 31.4121 44.6199 31.4121C44.9206 31.4121 45.1647 31.6535 45.1647 31.951V35.1798C45.1647 35.4779 44.9204 35.7187 44.6199 35.7187C44.3185 35.7187 44.0751 35.477 44.0751 35.1798V31.951Z" fill="white"/>
<path d="M38.5592 35.4436C38.4112 35.4436 38.2916 35.325 38.2916 35.179V31.9502C38.2916 31.8038 38.4116 31.6855 38.5592 31.6855C38.7068 31.6855 38.8268 31.8042 38.8268 31.9502V35.179C38.8268 35.3254 38.7068 35.4436 38.5592 35.4436Z" fill="white"/>
<path fill-rule="evenodd" clip-rule="evenodd" d="M38.0145 31.951C38.0145 31.6529 38.2589 31.4121 38.5594 31.4121C38.8601 31.4121 39.1042 31.6535 39.1042 31.951V35.1798C39.1042 35.4779 38.8598 35.7187 38.5594 35.7187C38.258 35.7187 38.0145 35.477 38.0145 35.1798V31.951Z" fill="white"/>
<path d="M32.4986 35.4436C32.3506 35.4436 32.2311 35.325 32.2311 35.179V31.9502C32.2311 31.8038 32.351 31.6855 32.4986 31.6855C32.6463 31.6855 32.7662 31.8042 32.7662 31.9502V35.179C32.7662 35.3254 32.6463 35.4436 32.4986 35.4436Z" fill="white"/>
<path fill-rule="evenodd" clip-rule="evenodd" d="M31.954 31.951C31.954 31.6529 32.1983 31.4121 32.4988 31.4121C32.7995 31.4121 33.0436 31.6535 33.0436 31.951V35.1798C33.0436 35.4779 32.7993 35.7187 32.4988 35.7187C32.1974 35.7187 31.954 35.477 31.954 35.1798V31.951Z" fill="white"/>
<path d="M26.4386 35.4436C26.2906 35.4436 26.171 35.325 26.171 35.179V31.9502C26.171 31.8038 26.291 31.6855 26.4386 31.6855C26.5862 31.6855 26.7062 31.8042 26.7062 31.9502V35.179C26.7062 35.3254 26.5862 35.4436 26.4386 35.4436Z" fill="white"/>
<path fill-rule="evenodd" clip-rule="evenodd" d="M25.8936 31.951C25.8936 31.6529 26.1379 31.4121 26.4384 31.4121C26.7391 31.4121 26.9832 31.6535 26.9832 31.951V35.1798C26.9832 35.4779 26.7389 35.7187 26.4384 35.7187C26.137 35.7187 25.8936 35.477 25.8936 35.1798V31.951Z" fill="white"/>
<path d="M20.378 35.4436C20.23 35.4436 20.1105 35.325 20.1105 35.179V31.9502C20.1105 31.8038 20.2304 31.6855 20.378 31.6855C20.5257 31.6855 20.6456 31.8042 20.6456 31.9502V35.179C20.6456 35.3254 20.5257 35.4436 20.378 35.4436Z" fill="white"/>
<path fill-rule="evenodd" clip-rule="evenodd" d="M19.8331 31.951C19.8331 31.6529 20.0775 31.4121 20.378 31.4121C20.6787 31.4121 20.9228 31.6535 20.9228 31.951V35.1798C20.9228 35.4779 20.6784 35.7187 20.378 35.7187C20.0766 35.7187 19.8331 35.477 19.8331 35.1798V31.951Z" fill="white"/>
<path d="M14.3177 35.4436C14.1697 35.4436 14.0502 35.325 14.0502 35.179V31.9502C14.0502 31.8038 14.1701 31.6855 14.3177 31.6855C14.4653 31.6855 14.5853 31.8042 14.5853 31.9502V35.179C14.5853 35.3254 14.4653 35.4436 14.3177 35.4436Z" fill="white"/>
<path fill-rule="evenodd" clip-rule="evenodd" d="M13.7728 31.951C13.7728 31.6529 14.0172 31.4121 14.3177 31.4121C14.6184 31.4121 14.8625 31.6535 14.8625 31.951V35.1798C14.8625 35.4779 14.6181 35.7187 14.3177 35.7187C14.0163 35.7187 13.7728 35.477 13.7728 35.1798V31.951Z" fill="white"/>
<path d="M8.25719 35.4436C8.10919 35.4436 7.98962 35.325 7.98962 35.179V31.9502C7.98962 31.8038 8.10958 31.6855 8.25719 31.6855C8.4048 31.6855 8.52476 31.8042 8.52476 31.9502V35.179C8.52476 35.3254 8.4048 35.4436 8.25719 35.4436Z" fill="white"/>
<path fill-rule="evenodd" clip-rule="evenodd" d="M7.71228 31.951C7.71228 31.6529 7.95663 31.4121 8.25711 31.4121C8.55784 31.4121 8.80193 31.6535 8.80193 31.951V35.1798C8.80193 35.4779 8.55758 35.7187 8.25711 35.7187C7.95572 35.7187 7.71228 35.477 7.71228 35.1798V31.951Z" fill="white"/>
<path d="M2.19665 35.4436C2.04865 35.4436 1.92908 35.325 1.92908 35.179V31.9502C1.92908 31.8038 2.04903 31.6855 2.19665 31.6855C2.34426 31.6855 2.46421 31.8042 2.46421 31.9502V35.179C2.46421 35.3254 2.34426 35.4436 2.19665 35.4436Z" fill="white"/>
<path fill-rule="evenodd" clip-rule="evenodd" d="M1.65173 31.951C1.65173 31.6529 1.89609 31.4121 2.19656 31.4121C2.4973 31.4121 2.74139 31.6535 2.74139 31.951V35.1798C2.74139 35.4779 2.49703 35.7187 2.19656 35.7187C1.89517 35.7187 1.65173 35.477 1.65173 35.1798V31.951Z" fill="white"/>
<path d="M58.264 35.7269H0.736143C0.482596 35.7269 0.277344 35.5239 0.277344 35.2732V26.4161C0.277344 26.1653 0.482596 25.9623 0.736143 25.9623H3.10414C3.34951 11.7565 15.1116 0.275391 29.5346 0.275391C43.9575 0.275391 55.7196 11.7565 55.9654 25.9623H58.264C58.5176 25.9623 58.7228 26.1653 58.7228 26.4161V35.2732C58.7228 35.5239 58.5176 35.7269 58.264 35.7269ZM1.19494 34.8194H57.8052V26.8698H55.5105C55.2569 26.8698 55.0517 26.6668 55.0517 26.4161C55.0517 12.5023 43.6047 1.18294 29.5346 1.18294C15.4645 1.18294 4.01784 12.5023 4.01784 26.4161C4.01784 26.6668 3.81259 26.8698 3.55904 26.8698H1.19494V34.8194Z" fill="white"/>
<path fill-rule="evenodd" clip-rule="evenodd" d="M29.5345 0.548446C15.263 0.548446 3.62406 11.9094 3.38127 25.9658L3.37662 26.2353H0.736058C0.635635 26.2353 0.554517 26.3156 0.554517 26.4149V35.272C0.554517 35.3713 0.635637 35.4516 0.736058 35.4516H58.2639C58.3644 35.4516 58.4455 35.3713 58.4455 35.272V26.4149C58.4455 26.3156 58.3644 26.2353 58.2639 26.2353H55.6927L55.6881 25.9658C55.4449 11.9094 43.8059 0.548446 29.5345 0.548446ZM2.83286 25.6869C3.22384 11.4564 15.0513 0 29.5345 0C44.0176 0 55.8451 11.4564 56.2364 25.6869H58.2639C58.6706 25.6869 59 26.0127 59 26.4149V35.272C59 35.6742 58.6706 36 58.2639 36H0.736058C0.329384 36 0 35.6742 0 35.272V26.4149C0 26.0127 0.329386 25.6869 0.736058 25.6869H2.83286ZM3.7405 26.4149C3.7405 12.3496 15.3113 0.907552 29.5345 0.907552C43.7576 0.907552 55.3288 12.3496 55.3288 26.4149C55.3288 26.5142 55.4099 26.5944 55.5104 26.5944H58.0824V35.0924H0.917598V26.5944H3.55896C3.65938 26.5944 3.7405 26.5142 3.7405 26.4149ZM29.5345 1.456C15.6174 1.456 4.29502 12.6526 4.29502 26.4149C4.29502 26.8171 3.96563 27.1429 3.55896 27.1429H1.47212V34.544H57.5279V27.1429H55.5104C55.1037 27.1429 54.7743 26.8171 54.7743 26.4149C54.7743 12.6526 43.4515 1.456 29.5345 1.456Z" fill="white"/>
<path d="M29.5344 27.4601C28.9517 27.4601 28.4781 26.9909 28.4781 26.4138C28.4781 25.8368 28.9521 25.3691 29.5344 25.3691C30.1167 25.3691 30.5922 25.8379 30.5922 26.4138C30.5922 26.9897 30.1178 27.4601 29.5344 27.4601ZM29.5344 25.8984C29.247 25.8984 29.0133 26.1295 29.0133 26.4138C29.0133 26.6981 29.247 26.9308 29.5344 26.9308C29.8218 26.9308 30.0571 26.6989 30.0571 26.4138C30.0571 26.1288 29.8226 25.8984 29.5344 25.8984Z" fill="white"/>
<path fill-rule="evenodd" clip-rule="evenodd" d="M28.2012 26.4146C28.2012 25.6859 28.7995 25.0957 29.5347 25.0957C30.2695 25.0957 30.8697 25.6868 30.8697 26.4146C30.8697 27.1418 30.2714 27.7351 29.5347 27.7351C28.7985 27.7351 28.2012 27.1427 28.2012 26.4146ZM29.5347 26.1734C29.4004 26.1734 29.2908 26.2818 29.2908 26.4146C29.2908 26.5485 29.4015 26.6573 29.5347 26.6573C29.6693 26.6573 29.7801 26.548 29.7801 26.4146C29.7801 26.2821 29.6708 26.1734 29.5347 26.1734Z" fill="white"/>
<path d="M46.4967 26.869H31.9472C31.6936 26.869 31.4884 26.666 31.4884 26.4152C31.4884 25.3505 30.6121 24.4842 29.5344 24.4842C28.4567 24.4842 27.582 25.3505 27.582 26.4152C27.582 26.666 27.3767 26.869 27.1232 26.869H12.5724C12.3189 26.869 12.1136 26.666 12.1136 26.4152C12.1136 21.8143 13.9259 17.4884 17.2161 14.2349C20.5064 10.9814 24.8814 9.18945 29.5348 9.18945C34.1882 9.18945 38.5628 10.9814 41.8534 14.2349C45.1437 17.4884 46.9559 21.8143 46.9559 26.4152C46.9559 26.666 46.7506 26.869 46.4971 26.869H46.4967ZM32.3694 25.9615H46.0317C45.7879 17.1721 38.4814 10.097 29.5348 10.097C20.5882 10.097 13.2813 17.1721 13.0379 25.9615H26.7014C26.9214 24.6113 28.1081 23.5766 29.5348 23.5766C30.9614 23.5766 32.1493 24.6109 32.3694 25.9615Z" fill="white"/>
<path fill-rule="evenodd" clip-rule="evenodd" d="M29.5348 9.46251C24.9549 9.46251 20.6505 11.2256 17.4122 14.4277C14.1739 17.6297 12.3909 21.8859 12.3909 26.4141C12.3909 26.5134 12.4721 26.5936 12.5725 26.5936H27.1232C27.2236 26.5936 27.3047 26.5134 27.3047 26.4141C27.3047 25.198 28.3035 24.2088 29.5344 24.2088C30.765 24.2088 31.7657 25.1977 31.7657 26.4141C31.7657 26.5134 31.8468 26.5936 31.9472 26.5936H46.4967C46.5972 26.5936 46.6787 26.5134 46.6787 26.4141C46.6787 21.8859 44.8957 17.6297 41.6574 14.4277C38.4188 11.2256 34.1147 9.46251 29.5348 9.46251ZM17.0201 14.0398C20.3624 10.7349 24.8079 8.91406 29.5348 8.91406C34.2618 8.91406 38.7068 10.7349 42.0495 14.0398C45.3917 17.3447 47.2332 21.7404 47.2332 26.4141C47.2332 26.8163 46.9038 27.1421 46.4971 27.1421H31.9472C31.5405 27.1421 31.2111 26.8163 31.2111 26.4141C31.2111 25.501 30.4591 24.7572 29.5344 24.7572C28.61 24.7572 27.8593 25.5007 27.8593 26.4141C27.8593 26.8163 27.5299 27.1421 27.1232 27.1421H12.5725C12.1658 27.1421 11.8364 26.8163 11.8364 26.4141C11.8364 21.7404 13.6779 17.3447 17.0201 14.0398ZM12.7607 25.9528C13.0083 17.0154 20.4377 9.82162 29.5348 9.82162C38.6319 9.82162 46.061 17.0154 46.3089 25.9528L46.3167 26.2345H32.1332L32.0957 26.0039C31.8969 24.7842 30.8232 23.8497 29.5348 23.8497C28.2466 23.8497 27.1739 24.7844 26.9751 26.0039L26.9375 26.2345H12.7529L12.7607 25.9528ZM13.3253 25.6861H26.4744C26.8065 24.3197 28.052 23.3012 29.5348 23.3012C31.0174 23.3012 32.2642 24.3192 32.5964 25.6861H45.7443C45.3582 17.1759 38.235 10.3701 29.5348 10.3701C20.8346 10.3701 13.7111 17.1759 13.3253 25.6861Z" fill="white"/>
<path d="M13.9938 10.7851C13.9253 10.7851 13.8567 10.7593 13.8045 10.7076L11.4961 8.42451C11.3918 8.32127 11.3918 8.1537 11.4961 8.05008C11.6005 7.94685 11.7703 7.94685 11.8747 8.05008L14.1831 10.3332C14.2875 10.4365 14.2875 10.604 14.1831 10.7076C14.1309 10.7593 14.0624 10.7851 13.9938 10.7851Z" fill="white"/>
<path fill-rule="evenodd" clip-rule="evenodd" d="M11.3 7.85501C11.5126 7.64468 11.858 7.64468 12.0707 7.85501L14.3791 10.1381C14.5919 10.3487 14.5914 10.6896 14.3794 10.9L14.3791 10.9004C14.2726 11.0056 14.1326 11.0581 13.9937 11.0581C13.8549 11.0581 13.7148 11.0056 13.6084 10.9004L11.3 8.61724C11.0871 8.40672 11.0877 8.0658 11.2996 7.85537L11.3 7.85501L11.3 7.85501Z" fill="white"/>
<path d="M7.96929 20.6818C7.94631 20.6818 7.92294 20.6787 7.89996 20.6725L4.74679 19.837C4.60385 19.7993 4.51934 19.6541 4.5575 19.5127C4.59567 19.3713 4.7425 19.2877 4.88544 19.3255L8.03861 20.161C8.18155 20.1987 8.26606 20.344 8.2279 20.4853C8.19596 20.6036 8.08769 20.6818 7.96968 20.6818H7.96929Z" fill="white"/>
<path fill-rule="evenodd" clip-rule="evenodd" d="M4.28967 19.4408C4.36753 19.1525 4.66681 18.9828 4.95701 19.0594L8.11018 19.8949C8.40161 19.972 8.57328 20.268 8.49581 20.555C8.43069 20.7961 8.21027 20.9549 7.96972 20.9549C7.92191 20.9549 7.87392 20.9485 7.82789 20.9362" fill="white"/>
<path d="M18.6998 7.41388C18.6071 7.41388 18.5175 7.3665 18.4676 7.28136L16.8354 4.48513C16.7614 4.3584 16.8054 4.19661 16.9335 4.12342C17.0616 4.05023 17.2252 4.09376 17.2992 4.22049L18.9315 7.01673C19.0055 7.14346 18.9615 7.30525 18.8334 7.37844C18.7913 7.40232 18.7453 7.41388 18.6998 7.41388Z" fill="white"/>
<path fill-rule="evenodd" clip-rule="evenodd" d="M16.7948 3.8868C17.0559 3.73768 17.3889 3.82663 17.5393 4.0842L19.1716 6.88043C19.1716 6.88044 19.1716 6.88042 19.1716 6.88043C19.3223 7.13862 19.2324 7.46801 18.972 7.61675C18.8873 7.66483 18.793 7.68894 18.6997 7.68894C18.5117 7.68894 18.3289 7.59246 18.2277 7.41965L16.5952 4.62312C16.5952 4.62311 16.5952 4.62312 16.5952 4.62312C16.4445 4.36492 16.5344 4.03554 16.7948 3.8868Z" fill="white"/>
<path d="M10.4169 15.3491C10.3714 15.3491 10.3254 15.3375 10.2833 15.3136L7.45616 13.6992C7.32803 13.626 7.28441 13.4642 7.35802 13.3375C7.43202 13.2108 7.59559 13.1676 7.72373 13.2404L10.5509 14.8548C10.6791 14.928 10.7227 15.0898 10.6491 15.2166C10.5996 15.3013 10.5096 15.3491 10.4169 15.3491Z" fill="white"/>
<path fill-rule="evenodd" clip-rule="evenodd" d="M7.11823 13.2012C7.26898 12.943 7.60196 12.8556 7.86215 13.0035L10.6899 14.6182C10.9509 14.7673 11.0393 15.0966 10.8898 15.354C10.789 15.5267 10.6053 15.6241 10.4172 15.6241C10.324 15.6241 10.2303 15.6003 10.1456 15.5523L7.31784 13.9375C7.05681 13.7884 6.96876 13.4585 7.11823 13.2012Z" fill="white"/>
<path d="M23.9035 5.21688C23.7855 5.21688 23.6772 5.13907 23.6453 5.02042L22.8005 1.90177C22.7624 1.7604 22.8469 1.61556 22.9898 1.57742C23.1324 1.53967 23.2792 1.62326 23.3178 1.76463L24.1625 4.88329C24.2007 5.02466 24.1162 5.1695 23.9732 5.20763C23.9499 5.2138 23.9269 5.21688 23.9039 5.21688H23.9035Z" fill="white"/>
<path fill-rule="evenodd" clip-rule="evenodd" d="M22.9181 1.31339C23.2085 1.23648 23.5071 1.4068 23.5854 1.69407L24.4303 4.81318C24.508 5.10075 24.3358 5.39578 24.0454 5.47325C24.0002 5.48518 23.9524 5.49196 23.9039 5.49196C23.6639 5.49196 23.4427 5.33403 23.3774 5.09208" fill="white"/>
<path d="M29.4686 4.28154C29.3206 4.28154 29.201 4.16289 29.201 4.0169V0.788076C29.201 0.641697 29.321 0.523438 29.4686 0.523438C29.6162 0.523438 29.7362 0.642082 29.7362 0.788076V4.0169C29.7362 4.16328 29.6162 4.28154 29.4686 4.28154Z" fill="white"/>
<path fill-rule="evenodd" clip-rule="evenodd" d="M28.9238 0.786908C28.9238 0.48882 29.1682 0.248047 29.4687 0.248047C29.7694 0.248047 30.0135 0.489465 30.0135 0.786908V4.01573C30.0135 4.31382 29.7691 4.55459 29.4687 4.55459C29.1673 4.55459 28.9238 4.31291 28.9238 4.01573V0.786908Z" fill="white"/>
<path d="M45.0096 10.7851C44.9411 10.7851 44.8725 10.7593 44.8203 10.7076C44.716 10.6044 44.716 10.4368 44.8203 10.3332L47.1288 8.05008C47.2331 7.94685 47.4026 7.94685 47.5073 8.05008C47.6117 8.15332 47.6117 8.32089 47.5073 8.42451L45.1989 10.7076C45.1467 10.7593 45.0782 10.7851 45.0096 10.7851Z" fill="white"/>
<path d="M51.0339 20.6818C50.9159 20.6818 50.8076 20.604 50.7756 20.4853C50.7375 20.344 50.822 20.1991 50.9649 20.161L54.1181 19.3255C54.261 19.2877 54.4075 19.3713 54.446 19.5127C54.4842 19.6541 54.3997 19.7989 54.2568 19.837L51.1036 20.6725C51.0802 20.6787 51.0572 20.6818 51.0343 20.6818H51.0339Z" fill="white"/>
<path fill-rule="evenodd" clip-rule="evenodd" d="M54.0465 19.0594C54.3372 18.9826 54.6353 19.153 54.7136 19.4402C54.7913 19.7277 54.6192 20.0232 54.3289 20.1007L51.1752 20.9363C51.13 20.9483 51.0827 20.9549 51.0342 20.9549C50.7941 20.9549 50.5729 20.797 50.5077 20.555M54.0465 19.0594L50.8931 19.895L54.0465 19.0594ZM50.8931 19.895C50.6028 19.9725 50.4302 20.2675 50.5077 20.555L50.8931 19.895Z" fill="white"/>
<path d="M40.3035 7.41557C40.2579 7.41557 40.212 7.40402 40.1699 7.38014C40.0418 7.30695 39.9982 7.14516 40.0718 7.01842L41.704 4.22219C41.778 4.09584 41.9416 4.05231 42.0698 4.12512C42.1979 4.19831 42.2415 4.3601 42.1679 4.48683L40.5356 7.28306C40.4862 7.36781 40.3962 7.41557 40.3035 7.41557Z" fill="white"/>
<path fill-rule="evenodd" clip-rule="evenodd" d="M41.4639 4.08557C41.6144 3.82861 41.947 3.74006 42.2077 3.88817C42.4687 4.03728 42.5576 4.36693 42.4081 4.62426L40.7755 7.42099C40.6747 7.59374 40.4913 7.69063 40.3033 7.69063C40.21 7.69063 40.1163 7.66687 40.0317 7.61879C39.7706 7.46969 39.6817 7.14 39.8311 6.88266L41.4639 4.08557Z" fill="white"/>
<path d="M48.5863 15.3492C48.4936 15.3492 48.404 15.3019 48.3542 15.2167C48.2802 15.09 48.3242 14.9282 48.4523 14.855L51.2795 13.2406C51.4076 13.1674 51.5712 13.2109 51.6452 13.3377C51.7192 13.4644 51.6752 13.6262 51.5471 13.6994L48.7199 15.3138C48.6778 15.3377 48.6319 15.3492 48.5863 15.3492Z" fill="white"/>
<path fill-rule="evenodd" clip-rule="evenodd" d="M51.1408 13.004C51.4019 12.8549 51.7349 12.9438 51.8853 13.2014C52.036 13.4596 51.9461 13.789 51.6857 13.9377L48.8585 15.5521C48.7738 15.6002 48.6795 15.6243 48.5863 15.6243C48.3982 15.6243 48.2154 15.5278 48.1142 15.355C47.9634 15.0968 48.0532 14.7671 48.3136 14.6184L51.1408 13.004C51.1408 13.004 51.1408 13.004 51.1408 13.004Z" fill="white"/>
<path d="M35.0997 5.21688C35.0767 5.21688 35.0533 5.2138 35.0304 5.20763C34.8874 5.16988 34.8029 5.02466 34.8411 4.88329L35.6858 1.76463C35.724 1.62326 35.8708 1.53967 36.0138 1.57742C36.1567 1.61517 36.2412 1.7604 36.2031 1.90177L35.3583 5.02042C35.3264 5.13868 35.2181 5.21688 35.1001 5.21688H35.0997Z" fill="white"/>
</svg>
