<svg width="420" height="420" viewBox="0 0 420 420" fill="none" xmlns="http://www.w3.org/2000/svg">
<path opacity="0.4" d="M15.2173 209.5H404.217V361.301C404.217 393.444 378.288 419.5 346.302 419.5H73.1329C41.147 419.5 15.2173 393.444 15.2173 361.301V209.5Z" fill="#FFD02B"/>
<path opacity="0.2" d="M404.217 210.5H15.2173V58.6986C15.2173 26.5564 41.147 0.5 73.1329 0.5H346.302C378.288 0.5 404.217 26.5564 404.217 58.6986V210.5Z" fill="#FFD02B"/>
<path fill-rule="evenodd" clip-rule="evenodd" d="M346.302 16.9503H73.1329C50.2097 16.9503 31.6267 35.5796 31.6267 58.56V361.44C31.6267 384.42 50.2097 403.05 73.1329 403.05H346.302C369.225 403.05 387.808 384.42 387.808 361.44V58.56C387.808 35.5797 369.225 16.9503 346.302 16.9503ZM73.1329 0.5C41.147 0.5 15.2173 26.4944 15.2173 58.56V361.44C15.2173 393.506 41.147 419.5 73.1329 419.5H346.302C378.288 419.5 404.217 393.506 404.217 361.44V58.56C404.217 26.4944 378.288 0.5 346.302 0.5H73.1329Z" fill="#FFD02B"/>
<path d="M0.217285 186.21C0.217285 180.847 4.69444 176.5 10.2173 176.5H15.2173V243.5H10.2173C4.69444 243.5 0.217285 239.153 0.217285 233.79V186.21Z" fill="#FF7F21"/>
<path d="M419.217 186.21C419.217 180.847 414.74 176.5 409.217 176.5H404.217V243.5H409.217C414.74 243.5 419.217 239.153 419.217 233.79V186.21Z" fill="#FF7F21"/>
<path d="M73.2173 50.5C73.2173 42.768 79.4387 36.5 87.1131 36.5H151.321C158.996 36.5 165.217 42.768 165.217 50.5C165.217 58.232 158.996 64.5 151.321 64.5H87.1131C79.4387 64.5 73.2173 58.232 73.2173 50.5Z" fill="white"/>
</svg>
