<svg width="161" height="161" viewBox="0 0 161 161" fill="none" xmlns="http://www.w3.org/2000/svg">
<circle cx="80.8281" cy="80.5742" r="80" fill="#FF8D85"/>
<path d="M80.8284 125.372C71.9681 125.372 63.3069 122.744 55.9399 117.822C48.5729 112.899 42.831 105.903 39.4403 97.717C36.0497 89.5312 35.1625 80.5238 36.8911 71.8338C38.6196 63.1438 42.8862 55.1616 49.1513 48.8965C55.4165 42.6313 63.3987 38.3647 72.0887 36.6362C80.7787 34.9076 89.7861 35.7948 97.9718 39.1855C106.158 42.5761 113.154 48.318 118.077 55.685C122.999 63.052 125.626 71.7133 125.626 80.5735C125.626 92.4547 120.907 103.849 112.505 112.251C104.104 120.652 92.7096 125.372 80.8284 125.372ZM80.8284 42.6674C73.3313 42.6674 66.0025 44.8906 59.7689 49.0557C53.5353 53.2209 48.6768 59.141 45.8077 66.0675C42.9387 72.9939 42.188 80.6155 43.6507 87.9686C45.1133 95.3217 48.7235 102.076 54.0247 107.377C59.326 112.678 66.0802 116.289 73.4333 117.751C80.7863 119.214 88.408 118.463 95.3344 115.594C102.261 112.725 108.181 107.867 112.346 101.633C116.511 95.3993 118.734 88.0706 118.734 80.5735C118.734 70.5202 114.741 60.8786 107.632 53.7699C100.523 46.6611 90.8817 42.6674 80.8284 42.6674Z" fill="white"/>
<path d="M80.8288 104.695C79.9149 104.695 79.0384 104.332 78.3921 103.686C77.7459 103.04 77.3828 102.163 77.3828 101.249V59.8972C77.3828 58.9832 77.7459 58.1067 78.3921 57.4605C79.0384 56.8142 79.9149 56.4512 80.8288 56.4512C81.7428 56.4512 82.6193 56.8142 83.2655 57.4605C83.9118 58.1067 84.2748 58.9832 84.2748 59.8972V101.249C84.2748 102.163 83.9118 103.04 83.2655 103.686C82.6193 104.332 81.7428 104.695 80.8288 104.695Z" fill="white"/>
<path d="M101.504 84.0209H60.1516C59.2376 84.0209 58.3611 83.6579 57.7149 83.0116C57.0686 82.3654 56.7056 81.4888 56.7056 80.5749C56.7056 79.661 57.0686 78.7845 57.7149 78.1382C58.3611 77.492 59.2376 77.1289 60.1516 77.1289H101.504C102.418 77.1289 103.294 77.492 103.94 78.1382C104.587 78.7845 104.95 79.661 104.95 80.5749C104.95 81.4888 104.587 82.3654 103.94 83.0116C103.294 83.6579 102.418 84.0209 101.504 84.0209Z" fill="white"/>
</svg>
