<svg width="161" height="161" viewBox="0 0 161 161" fill="none" xmlns="http://www.w3.org/2000/svg">
<circle cx="80.8281" cy="80.5742" r="80" fill="#FF9D54"/>
<g clip-path="url(#clip0_1105_69168)">
<path d="M32.1027 93.4592L35.1083 89.2773L45.424 88.2891L72.577 92.728L75.9541 99.1317L71.0908 102.015C65.9435 106.865 53.4197 111.486 53.4197 111.486L40.6392 109.22C40.6392 109.22 36.8452 104.895 34.184 102.426C31.5227 99.9564 32.1027 93.4592 32.1027 93.4592ZM43.021 99.4728C43.5602 101.526 45.7034 102.374 46.9071 103.029C48.6803 103.991 50.5093 104.276 52.3836 104.197C53.7779 104.168 55.1678 103.948 56.5371 103.54C56.6216 103.546 56.7062 103.536 56.7893 103.512C57.6955 103.225 58.5942 102.914 59.5004 102.641C60.1755 102.44 60.9382 102.407 61.5832 102.047C61.9535 101.855 62.2701 101.473 62.4803 100.963C62.6659 101.025 62.8591 101.002 63.0362 100.896C63.2133 100.79 63.3666 100.606 63.4771 100.368C64.0813 99.1224 64.119 98.1318 63.8245 97.3562C63.7967 97.2132 63.7498 97.0809 63.6869 96.9678C63.6239 96.8547 63.5463 96.7634 63.459 96.6997C62.1526 94.9638 58.8464 94.6951 57.62 95.1274C57.4534 95.1804 57.2996 95.3041 57.176 95.4848C57.0002 95.5672 56.8285 95.6695 56.6625 95.7908C56.4672 95.9209 56.3127 96.1641 56.232 96.4684C54.5117 96.9567 52.8836 97.772 51.0863 97.6879C50.0441 97.6459 41.9003 95.2044 43.021 99.4728Z" fill="#D5E4F3"/>
<path d="M42.9092 56.8144C42.9092 56.8144 47.1533 51.2471 49.3176 49.8734C51.482 48.4996 58.135 53.4105 58.135 53.4105L67.4524 66.9983L75.9541 75.0491L73.5783 82.6467L64.9014 79.3525L53.2551 74.6566C53.2551 74.6566 48.5353 77.9928 45.6883 77.0887C42.8413 76.1845 42.3655 65.454 42.3655 65.454L42.9092 56.8144ZM48.7996 67.2226C49.3675 68.8089 50.5154 69.3953 51.5952 69.7551C52.7733 70.1452 54.0647 70.5611 55.2503 70.0448C56.4963 69.5004 57.3406 68.0169 58.0203 66.4002C58.1385 66.1397 58.1921 65.822 58.1713 65.5054C58.2665 65.2106 58.2947 64.8748 58.2513 64.5522C57.5203 58.5783 50.2374 54.4198 48.6893 61.5361C48.3042 63.2906 48.2045 65.5521 48.7996 67.2226Z" fill="#D5E4F3"/>
<path d="M73.8519 92.0449C74.5437 90.6758 76.3863 90.587 77.3997 90.2716C77.6377 90.1833 77.8885 90.2382 78.1014 90.4252C78.3142 90.6121 78.4732 90.9172 78.5461 91.2786C78.7183 91.9795 79.8042 92.6336 80.1878 93.0775C80.7752 93.7646 81.3244 94.5266 81.8296 95.3554C82.4745 96.4067 81.8114 97.8762 81.0955 97.8272C80.9951 97.9521 80.8831 98.0529 80.7633 98.1262C80.2392 98.4556 79.5218 98.3084 78.9675 98.3598C78.2304 98.4159 77.4465 98.5935 76.7019 98.5187C75.6447 98.4042 74.9439 97.0866 74.3503 95.8437C73.8368 94.7503 73.2115 93.3135 73.8519 92.0449Z" fill="#B8BEC1"/>
<path d="M115.459 86.887L126.774 78.3129C126.774 78.3129 127.418 73.8903 123.823 75.3318C120.228 76.7733 89.2164 85.7282 89.2164 85.7282C89.2164 85.7282 105.229 90.6251 115.459 86.887Z" fill="#B8BEC1"/>
<path d="M89.2166 86.8859L115.497 88.3811C115.497 88.3811 130.405 88.2059 129.806 90.8786C129.206 93.5513 130.339 95.1984 120.754 96.9529C111.169 98.7075 85.9633 96.3408 85.9633 96.3408C85.9633 96.3408 78.8994 92.9976 77.5054 88.3975C76.1113 83.7974 74.4273 81.3746 74.4273 81.3746L76.507 75.8867L81.5501 82.3465L89.2166 86.8859Z" fill="#DBDBDB"/>
<path d="M44.5211 52.1978C46.7322 49.6746 49.2364 48.2075 52.0124 48.6537C54.8367 49.1069 57.4496 51.1325 59.6759 53.7935C62.4791 57.1344 64.7567 61.3584 67.4285 64.9259C70.3888 68.8788 73.8157 71.881 77.3046 74.5607C77.4351 74.6475 77.5477 74.7878 77.6302 74.9666C77.7127 75.1453 77.7621 75.3556 77.7728 75.5746C79.0853 76.2965 80.4673 78.7099 81.2814 79.808C82.7268 81.7517 84.2084 83.3124 85.9423 84.366C86.0184 84.3231 86.0975 84.294 86.1779 84.2796C94.0423 82.9413 101.856 80.9707 109.588 78.3758C113.372 77.1033 117.132 75.6829 120.868 74.1145C122.414 73.4673 124.116 72.5024 125.716 73.3178C126.33 73.615 126.87 74.1981 127.262 74.9875C127.654 75.7769 127.879 76.7342 127.906 77.7287C127.906 77.7894 127.906 77.8431 127.906 77.9015C127.953 78.1821 127.934 78.4797 127.85 78.7395C127.767 78.9993 127.626 79.2037 127.453 79.315L117.389 86.9873C119.886 87.1112 122.373 87.291 124.865 87.5667C126.527 87.7513 130.063 87.2887 130.707 90.4824C131.189 92.8701 130.159 94.4891 128.943 95.5194C128.849 95.6542 128.738 95.759 128.617 95.8278C128.539 95.8722 128.457 95.9096 128.377 95.954C128.19 96.0825 128.002 96.1993 127.82 96.3044C127.72 96.3609 127.615 96.3901 127.509 96.3909C123.144 98.3954 118.356 97.8721 113.864 97.9468L97.2125 98.2248C94.4818 98.2692 91.7481 98.3697 89.0189 98.2248C88.2274 98.1851 87.4043 98.1594 86.5766 98.08C86.4211 98.3022 86.2214 98.4364 86.0103 98.4608C83.7311 98.7855 81.3282 98.8229 79.0823 99.5518C77.4119 100.094 76.4573 101.965 75.175 99.4491C74.4199 97.9842 73.7009 96.489 72.9654 95.0101C72.5576 94.1901 72.0698 93.4074 72.3295 92.307C72.5893 91.2067 73.5288 90.8749 74.1344 90.438L76.8878 88.5223C76.2825 87.1657 75.604 85.8909 74.8594 84.7118C74.3836 85.0856 73.858 84.7912 73.3838 84.5833C72.4247 84.1651 71.4853 83.5927 70.5443 83.0858C68.9751 82.2353 67.4013 81.3873 65.7777 80.8149C63.9562 80.1724 62.0894 79.9224 60.28 79.1795C57.0479 77.8618 53.9698 75.7125 50.5942 77.2053C47.8967 78.3992 45.2626 79.3243 43.2025 75.6073C41.3644 72.2898 41.1167 67.15 41.1001 62.9611C41.082 58.417 42.1513 54.9032 44.5211 52.1978ZM125.988 77.2264C125.498 74.521 121.961 76.647 120.866 77.1025C119.205 77.7941 117.539 78.456 115.87 79.0884C112.613 80.3219 109.341 81.4434 106.053 82.4526C101.272 83.9198 96.4649 85.1471 91.6318 86.1346C92.3869 86.2257 93.1421 86.2841 93.8973 86.3262C100.626 86.6976 107.383 86.6299 114.128 86.8542C114.148 86.6504 114.201 86.4576 114.282 86.2942C114.363 86.1307 114.47 86.0018 114.592 85.9197L125.988 77.2264ZM76.0163 92.279L74.8397 93.1107C74.7778 93.1528 74.6041 93.3116 74.4244 93.4612C74.7385 94.0943 75.1796 94.7788 75.3638 95.148C75.7233 95.8722 76.1628 97.2015 76.6642 97.9001C77.1672 97.6221 77.6716 97.1291 78.1746 96.9235C78.87 96.6683 79.5768 96.4941 80.2891 96.4025C80.7074 96.3324 81.1258 96.2694 81.5442 96.2086C80.061 94.9307 78.9766 92.9799 77.9888 90.8866L76.0163 92.279ZM82.6905 93.9144C84.9696 95.6783 88.1096 95.3629 90.6032 95.4096C93.1587 95.4587 95.7142 95.3746 98.2697 95.3325L113.603 95.0639C118.392 94.9844 123.556 95.6666 128.125 93.043H128.141C128.52 92.772 128.874 92.4075 128.897 91.9402C128.972 90.6319 127.407 90.8118 126.912 90.7301C125.553 90.4964 124.18 90.3656 122.81 90.2628C120.221 90.0782 117.628 90.0292 115.036 89.9404L98.7908 89.3844C94.2416 89.2302 89.3647 89.5736 85.0542 86.9476C83.1149 85.7795 81.5245 83.9408 79.9628 81.8405C79.5566 81.2938 77.578 78.0698 77.0932 78.3361C76.9421 78.4155 76.489 80.1607 76.3954 80.4528C76.2162 81.0644 76.0672 81.6963 75.9498 82.3428C78.38 85.8659 79.6532 91.5594 82.6905 93.9074V93.9144ZM43.3037 68.7597C43.5197 70.6287 43.8852 72.6075 44.7748 74.0046C45.9831 75.8877 47.436 75.626 48.96 74.9532C51.5064 73.8271 53.6571 73.4416 56.2655 74.3971C57.6369 74.8994 58.969 75.6214 60.3238 76.2054C61.8704 76.8713 63.4412 77.2053 65.0164 77.6399C66.5804 78.0936 68.1202 78.7278 69.623 79.5369C70.4129 79.9481 71.1968 80.385 71.9837 80.8079C72.3643 81.0135 72.7977 81.3078 73.2342 81.5532C73.4472 79.3547 73.8384 77.3782 74.8684 75.8526C70.6561 72.402 66.8515 68.2948 63.4291 63.0568C59.9372 57.7091 55.9121 51.0881 50.5549 51.4619C48.1987 51.6278 45.5828 53.7982 44.1042 56.6461C42.4368 59.8538 42.8672 64.9819 43.3037 68.7597Z" fill="#272525"/>
<path d="M51.9807 56.0622C55.0785 55.595 58.1732 59.6507 59.2485 63.8958C59.3162 64.1184 59.3357 64.3688 59.3041 64.6099C59.2726 64.8511 59.1916 65.07 59.0733 65.2344C58.5356 74.708 48.0901 74.0726 47.5403 64.3981C47.2987 60.3726 49.3543 56.457 51.9807 56.0622ZM57.2307 64.2883C57.2291 64.1833 57.2347 64.0783 57.2473 63.9752C56.4408 61.5595 54.6888 59.4358 52.9972 58.9779C51.1334 58.4732 49.3588 60.9357 49.3724 63.8327C49.4267 70.5682 57.3077 71.2667 57.2247 64.2883H57.2307Z" fill="#272525"/>
<path d="M31.7961 91.767C33.4876 88.1154 36.4509 87.3514 39.1605 87.1061C42.6254 86.8292 46.0973 86.8292 49.5623 87.1061C57.5172 87.6598 65.4209 89.3255 73.2989 91.0263C74.4815 91.281 73.9785 94.0635 72.8035 93.8065C66.5567 92.4585 60.3023 91.1455 54.0102 90.4096C50.9623 90.0521 47.9054 89.8278 44.847 89.8021C42.0135 89.7788 38.8509 89.4704 36.1005 90.6759C34.8152 91.2389 33.6024 92.3347 32.9907 94.2481C32.2537 96.5493 32.9047 98.4417 34.048 100.047C36.1957 103.084 38.6424 105.934 41.4245 107.378C44.048 108.738 46.824 109.128 49.5623 109.516C52.5165 109.934 55.2396 109.763 58.0972 108.415C61.1399 107.023 64.0721 105.108 66.8391 102.705C69.5396 100.318 72.7461 99.3669 75.7078 98.0329C76.8618 97.5142 77.3541 100.294 76.2032 100.813C74.5419 101.565 72.8714 102.308 71.207 103.068C69.5426 103.827 68.1637 104.906 66.6654 106.205C64.0419 108.483 61.0092 110.137 58.1244 111.413C55.0267 112.782 52.0498 112.768 48.869 112.301C45.7411 111.833 42.5709 111.305 39.6483 109.408C37.0113 107.698 34.4512 104.759 32.4228 101.645C30.5968 98.8435 30.2736 95.0634 31.7961 91.767Z" fill="#272525"/>
<path d="M42.1332 96.2049C43.1602 94.2985 44.9455 94.3008 46.3924 94.6022C48.4283 95.0274 50.4205 96.3754 52.4972 96.2376C54.509 96.1091 56.2353 94.1022 58.2093 93.6303C60.0383 93.1934 62.473 93.4761 63.9245 95.4853C65.2385 97.2982 65.2445 100.172 63.852 101.831C63.7364 101.972 63.599 102.065 63.4532 102.099C62.4292 103.473 60.724 104.029 59.5671 104.55C57.5284 105.46 55.4319 106.025 53.3143 106.235C49.7408 106.594 45.3517 106.181 42.6799 101.964C41.7027 100.438 41.1379 98.0529 42.1332 96.2049ZM46.6944 102.403C48.2743 103.242 49.9492 103.459 51.6106 103.452C53.484 103.446 55.3516 103.133 57.1823 102.517C58.1374 102.196 59.0812 101.799 60.0096 101.326C60.7407 100.955 62.1241 100.571 62.4942 99.3892C62.5496 99.185 62.6407 99.0086 62.7573 98.8799C62.8739 98.7511 63.0113 98.6751 63.1542 98.6603C63.0892 97.7118 61.6015 96.7913 61.1907 96.6347C60.2955 96.2981 59.3654 96.2472 58.457 96.4852C56.7639 96.9151 55.2974 98.443 53.6148 98.9313C52.1377 99.3612 50.647 98.985 49.2016 98.464C47.6913 97.9267 45.7414 96.6978 44.1903 97.4851C41.9414 98.6439 45.832 101.947 46.6944 102.403Z" fill="#272525"/>
<path d="M86.7954 86.3724C86.9594 86.2241 87.15 86.1615 87.3388 86.1939C87.5276 86.2263 87.7046 86.352 87.8436 86.5523C89.0051 87.0055 89.9958 88.1643 90.4656 89.9609C91.1769 92.6873 89.8795 94.8671 88.1834 95.4558C86.6882 95.9721 84.9498 94.9605 84.5163 92.5074C84.033 89.7857 85.3681 87.5709 86.7954 86.3724ZM87.6714 92.6803C87.9841 92.5939 88.3843 92.4023 88.6199 92.0565C88.9552 91.5659 88.8072 91.122 88.5942 90.601C88.4466 90.2486 88.2523 89.9486 88.0243 89.7207C87.7962 89.4927 87.5396 89.3421 87.2712 89.2787C86.8317 89.7016 86.4118 90.2506 86.3136 91.0356C86.152 92.3439 86.96 92.8719 87.6714 92.678V92.6803Z" fill="#272525"/>
</g>
<defs>
<clipPath id="clip0_1105_69168">
<rect width="100" height="64" fill="white" transform="matrix(-1 0 0 1 130.828 48.5742)"/>
</clipPath>
</defs>
</svg>
