<svg width="161" height="160" viewBox="0 0 161 160" fill="none" xmlns="http://www.w3.org/2000/svg">
<circle cx="80.8281" cy="80" r="80" fill="#54C1FF"/>
<path d="M58.3008 78.8068L68.983 88.5735C71.5868 90.954 75.5552 91.0249 78.2423 88.7389L102.711 67.9219" stroke="white" stroke-width="8" stroke-linecap="round"/>
<path d="M80.8273 35.2012C56.1127 35.2012 36.0273 55.2865 36.0273 80.0012C36.0273 104.716 56.1127 124.801 80.8273 124.801C105.542 124.801 125.627 104.716 125.627 80.0012C125.627 55.2865 105.542 35.2012 80.8273 35.2012ZM80.8273 117.335C60.2193 117.335 43.494 100.609 43.494 80.0012C43.494 59.3932 60.2193 42.6678 80.8273 42.6678C101.435 42.6678 118.161 59.3932 118.161 80.0012C118.161 100.609 101.435 117.335 80.8273 117.335Z" fill="white"/>
</svg>
