<svg width="248" height="53" viewBox="0 0 248 53" fill="none" xmlns="http://www.w3.org/2000/svg">
<path d="M1.55444 52.8535L2.20206 8.42366" stroke="#FF9D54" stroke-width="3" stroke-linejoin="round" stroke-dasharray="8 8"/>
<path d="M2.20215 6.92383C1.37372 6.92383 0.702149 7.5954 0.702148 8.42383C0.702148 9.25226 1.37372 9.92383 2.20215 9.92383L2.20215 6.92383ZM231.292 8.42385C231.292 12.8421 234.873 16.4238 239.292 16.4238C243.71 16.4238 247.292 12.8421 247.292 8.42385C247.292 4.00557 243.71 0.423849 239.292 0.423849C234.873 0.423848 231.292 4.00557 231.292 8.42385ZM6.15364 9.92383C6.98207 9.92383 7.65364 9.25226 7.65364 8.42383C7.65364 7.5954 6.98207 6.92383 6.15364 6.92383L6.15364 9.92383ZM14.0566 6.92383C13.2282 6.92383 12.5566 7.5954 12.5566 8.42383C12.5566 9.25226 13.2282 9.92383 14.0566 9.92383L14.0566 6.92383ZM21.9596 9.92383C22.788 9.92383 23.4596 9.25226 23.4596 8.42383C23.4596 7.5954 22.788 6.92383 21.9596 6.92383L21.9596 9.92383ZM29.8626 6.92383C29.0342 6.92383 28.3626 7.5954 28.3626 8.42383C28.3626 9.25226 29.0342 9.92383 29.8626 9.92383L29.8626 6.92383ZM37.7656 9.92383C38.594 9.92383 39.2656 9.25226 39.2656 8.42383C39.2656 7.5954 38.594 6.92383 37.7656 6.92383L37.7656 9.92383ZM45.6685 6.92383C44.8401 6.92383 44.1685 7.5954 44.1685 8.42383C44.1685 9.25226 44.8401 9.92383 45.6685 9.92383L45.6685 6.92383ZM53.5715 9.92383C54.4 9.92383 55.0715 9.25226 55.0715 8.42383C55.0715 7.59541 54.4 6.92383 53.5715 6.92383L53.5715 9.92383ZM61.4745 6.92383C60.6461 6.92383 59.9745 7.59541 59.9745 8.42383C59.9745 9.25226 60.6461 9.92383 61.4745 9.92383L61.4745 6.92383ZM69.3775 9.92383C70.2059 9.92383 70.8775 9.25226 70.8775 8.42383C70.8775 7.59541 70.2059 6.92383 69.3775 6.92383L69.3775 9.92383ZM77.2805 6.92383C76.4521 6.92383 75.7805 7.59541 75.7805 8.42383C75.7805 9.25226 76.452 9.92383 77.2805 9.92383L77.2805 6.92383ZM85.1835 9.92384C86.0119 9.92384 86.6835 9.25226 86.6835 8.42384C86.6835 7.59541 86.0119 6.92384 85.1835 6.92384L85.1835 9.92384ZM93.0864 6.92384C92.258 6.92384 91.5864 7.59541 91.5864 8.42384C91.5864 9.25226 92.258 9.92384 93.0864 9.92384L93.0864 6.92384ZM100.989 9.92384C101.818 9.92384 102.489 9.25226 102.489 8.42384C102.489 7.59541 101.818 6.92384 100.989 6.92384L100.989 9.92384ZM108.892 6.92384C108.064 6.92384 107.392 7.59541 107.392 8.42384C107.392 9.25226 108.064 9.92384 108.892 9.92384L108.892 6.92384ZM116.795 9.92384C117.624 9.92384 118.295 9.25227 118.295 8.42384C118.295 7.59541 117.624 6.92384 116.795 6.92384L116.795 9.92384ZM124.698 6.92384C123.87 6.92384 123.198 7.59541 123.198 8.42384C123.198 9.25227 123.87 9.92384 124.698 9.92384L124.698 6.92384ZM132.601 9.92384C133.43 9.92384 134.101 9.25227 134.101 8.42384C134.101 7.59541 133.43 6.92384 132.601 6.92384L132.601 9.92384ZM140.504 6.92384C139.676 6.92384 139.004 7.59541 139.004 8.42384C139.004 9.25227 139.676 9.92384 140.504 9.92384L140.504 6.92384ZM148.407 9.92384C149.236 9.92384 149.907 9.25227 149.907 8.42384C149.907 7.59541 149.236 6.92384 148.407 6.92384L148.407 9.92384ZM156.31 6.92384C155.482 6.92384 154.81 7.59541 154.81 8.42384C154.81 9.25227 155.482 9.92384 156.31 9.92384L156.31 6.92384ZM164.213 9.92384C165.042 9.92384 165.713 9.25227 165.713 8.42384C165.713 7.59542 165.042 6.92384 164.213 6.92384L164.213 9.92384ZM172.116 6.92384C171.288 6.92384 170.616 7.59542 170.616 8.42384C170.616 9.25227 171.288 9.92384 172.116 9.92384L172.116 6.92384ZM180.019 9.92384C180.848 9.92384 181.519 9.25227 181.519 8.42384C181.519 7.59542 180.848 6.92384 180.019 6.92384L180.019 9.92384ZM187.922 6.92384C187.094 6.92384 186.422 7.59542 186.422 8.42384C186.422 9.25227 187.094 9.92384 187.922 9.92384L187.922 6.92384ZM195.825 9.92385C196.654 9.92385 197.325 9.25227 197.325 8.42385C197.325 7.59542 196.654 6.92385 195.825 6.92385L195.825 9.92385ZM203.728 6.92385C202.9 6.92385 202.228 7.59542 202.228 8.42385C202.228 9.25227 202.9 9.92385 203.728 9.92385L203.728 6.92385ZM211.631 9.92385C212.46 9.92385 213.131 9.25227 213.131 8.42385C213.131 7.59542 212.46 6.92385 211.631 6.92385L211.631 9.92385ZM219.534 6.92385C218.706 6.92385 218.034 7.59542 218.034 8.42385C218.034 9.25227 218.706 9.92385 219.534 9.92385L219.534 6.92385ZM227.437 9.92385C228.266 9.92385 228.937 9.25228 228.937 8.42385C228.937 7.59542 228.266 6.92385 227.437 6.92385L227.437 9.92385ZM235.34 6.92385C234.512 6.92385 233.84 7.59542 233.84 8.42385C233.84 9.25228 234.512 9.92385 235.34 9.92385L235.34 6.92385ZM2.20215 9.92383L6.15364 9.92383L6.15364 6.92383L2.20215 6.92383L2.20215 9.92383ZM14.0566 9.92383L21.9596 9.92383L21.9596 6.92383L14.0566 6.92383L14.0566 9.92383ZM29.8626 9.92383L37.7656 9.92383L37.7656 6.92383L29.8626 6.92383L29.8626 9.92383ZM45.6685 9.92383L53.5715 9.92383L53.5715 6.92383L45.6685 6.92383L45.6685 9.92383ZM61.4745 9.92383L69.3775 9.92383L69.3775 6.92383L61.4745 6.92383L61.4745 9.92383ZM77.2805 9.92383L85.1835 9.92384L85.1835 6.92384L77.2805 6.92383L77.2805 9.92383ZM93.0864 9.92384L100.989 9.92384L100.989 6.92384L93.0864 6.92384L93.0864 9.92384ZM108.892 9.92384L116.795 9.92384L116.795 6.92384L108.892 6.92384L108.892 9.92384ZM124.698 9.92384L132.601 9.92384L132.601 6.92384L124.698 6.92384L124.698 9.92384ZM140.504 9.92384L148.407 9.92384L148.407 6.92384L140.504 6.92384L140.504 9.92384ZM156.31 9.92384L164.213 9.92384L164.213 6.92384L156.31 6.92384L156.31 9.92384ZM172.116 9.92384L180.019 9.92384L180.019 6.92384L172.116 6.92384L172.116 9.92384ZM187.922 9.92384L195.825 9.92385L195.825 6.92385L187.922 6.92384L187.922 9.92384ZM203.728 9.92385L211.631 9.92385L211.631 6.92385L203.728 6.92385L203.728 9.92385ZM219.534 9.92385L227.437 9.92385L227.437 6.92385L219.534 6.92385L219.534 9.92385ZM235.34 9.92385L239.292 9.92385L239.292 6.92385L235.34 6.92385L235.34 9.92385Z" fill="#FF9D54"/>
</svg>
