<svg width="200" height="57" viewBox="0 0 200 57" fill="none" xmlns="http://www.w3.org/2000/svg">
<path d="M99.9998 0.764648C-0.880797 0.764648 0.000259664 13.5135 0.000259664 13.5135C0.000259664 48.5569 11.726 56.6468 11.726 56.6468V14.1085C13.4234 14.2098 15.2632 14.3237 17.2326 14.4503V56.6468H21.9618V14.7795C23.4907 14.8934 25.0714 15.0074 26.691 15.134V56.6468H31.4202V15.5264C32.962 15.653 34.5427 15.7923 36.1494 15.9442V56.6468H40.8785V16.4C42.4333 16.5519 44.0141 16.7165 45.6077 16.8937V56.6468H50.3369V17.4255C51.9047 17.6027 53.4854 17.7926 55.0661 17.9952V56.6594H59.7953V18.6029C61.376 18.8181 62.9567 19.0333 64.5245 19.2739V56.6594H69.2537V19.9955C70.8473 20.2487 72.4151 20.5146 73.9828 20.7804V56.6468H78.712V21.6413C80.3186 21.9452 81.8864 22.2617 83.4412 22.5908V56.6468H88.1704V23.6543C89.79 24.0341 91.3707 24.4392 92.8996 24.857V56.6468H97.6287V26.237C99.1447 25.7559 100.725 25.3001 102.358 24.857V56.6468H107.087V23.6543C108.629 23.2871 110.21 22.9327 111.816 22.5908V56.6468H116.545V21.6413C118.1 21.3375 119.681 21.0589 121.275 20.7804V56.6468H126.004V19.9955C127.572 19.7423 129.152 19.5017 130.733 19.2739V56.6594H135.462V18.6029C137.043 18.3876 138.611 18.1851 140.191 17.9825V56.6468H144.921V17.4255C146.501 17.2482 148.082 17.071 149.65 16.8937V56.6468H154.379V16.4C155.973 16.2481 157.553 16.0835 159.108 15.9442V56.6468H163.837V15.5264C165.457 15.3872 167.025 15.2606 168.567 15.134V56.6468H173.296V14.7795C174.941 14.6655 176.522 14.5516 178.025 14.4503V56.6468H182.754V14.1591C184.814 14.0325 186.667 13.9313 188.274 13.8426V56.6468C188.274 56.6468 199.999 48.5442 199.999 13.5135C199.999 13.5135 200.88 0.764648 99.9998 0.764648Z" fill="#42B1E2"/>
</svg>
