<svg width="56" height="120" viewBox="0 0 56 120" fill="none" xmlns="http://www.w3.org/2000/svg">
<path d="M54 0.500002C54.8284 0.500002 55.5 1.17157 55.5 2C55.5 2.82843 54.8284 3.5 54 3.5L54 0.500002ZM8.42202 2L6.92203 1.99425C6.9252 1.16807 7.59584 0.5 8.42202 0.5L8.42202 2ZM8 104C12.4183 104 16 107.582 16 112C16 116.418 12.4183 120 7.99999 120C3.58172 120 -5.00138e-06 116.418 -4.80825e-06 112C-4.61512e-06 107.582 3.58172 104 8 104ZM50.2018 3.5C49.3734 3.5 48.7018 2.82843 48.7018 2C48.7018 1.17157 49.3734 0.500002 50.2018 0.500002L50.2018 3.5ZM42.6055 0.500002C43.4339 0.500002 44.1055 1.17157 44.1055 2C44.1055 2.82843 43.4339 3.5 42.6055 3.5L42.6055 0.500002ZM35.0092 3.5C34.1807 3.5 33.5092 2.82843 33.5092 2C33.5092 1.17157 34.1807 0.500001 35.0092 0.500001L35.0092 3.5ZM27.4128 0.500001C28.2413 0.500001 28.9128 1.17157 28.9128 2C28.9128 2.82843 28.2413 3.5 27.4128 3.5L27.4128 0.500001ZM19.8165 3.5C18.9881 3.5 18.3165 2.82843 18.3165 2C18.3165 1.17157 18.9881 0.5 19.8165 0.500001L19.8165 3.5ZM12.2202 0.5C13.0486 0.5 13.7202 1.17157 13.7202 2C13.7202 2.82843 13.0486 3.5 12.2202 3.5L12.2202 0.5ZM9.90694 5.93433C9.90376 6.76275 9.22961 7.43174 8.40119 7.42856C7.57277 7.42538 6.90378 6.75124 6.90696 5.92282L9.90694 5.93433ZM6.87681 13.78C6.87999 12.9515 7.55414 12.2825 8.38256 12.2857C9.21098 12.2889 9.87997 12.963 9.87679 13.7915L6.87681 13.78ZM9.84665 21.6486C9.84347 22.477 9.16932 23.146 8.3409 23.1428C7.51248 23.1397 6.84349 22.4655 6.84667 21.6371L9.84665 21.6486ZM6.81652 29.4942C6.8197 28.6658 7.49385 27.9968 8.32227 28C9.15069 28.0032 9.81968 28.6773 9.8165 29.5058L6.81652 29.4942ZM9.78636 37.3629C9.78318 38.1913 9.10903 38.8603 8.28061 38.8571C7.45219 38.854 6.7832 38.1798 6.78638 37.3514L9.78636 37.3629ZM6.75623 45.2085C6.75941 44.3801 7.43356 43.7111 8.26198 43.7143C9.0904 43.7175 9.75939 44.3916 9.75621 45.22L6.75623 45.2085ZM9.72607 53.0772C9.72289 53.9056 9.04875 54.5746 8.22032 54.5714C7.3919 54.5682 6.72291 53.8941 6.72609 53.0657L9.72607 53.0772ZM6.69595 60.9228C6.69912 60.0944 7.37327 59.4254 8.20169 59.4286C9.03011 59.4318 9.6991 60.1059 9.69592 60.9343L6.69595 60.9228ZM9.66578 68.7915C9.6626 69.6199 8.98846 70.2889 8.16004 70.2857C7.33161 70.2825 6.66262 69.6084 6.6658 68.78L9.66578 68.7915ZM6.63566 76.6371C6.63883 75.8087 7.31298 75.1397 8.1414 75.1429C8.96982 75.146 9.63881 75.8202 9.63563 76.6486L6.63566 76.6371ZM9.60549 84.5058C9.60231 85.3342 8.92817 86.0032 8.09975 86C7.27133 85.9968 6.60233 85.3227 6.60551 84.4943L9.60549 84.5058ZM6.57537 92.3514C6.57855 91.523 7.25269 90.854 8.08111 90.8572C8.90953 90.8603 9.57852 91.5345 9.57535 92.3629L6.57537 92.3514ZM9.5452 100.22C9.54202 101.048 8.86788 101.717 8.03946 101.714C7.21104 101.711 6.54204 101.037 6.54522 100.209L9.5452 100.22ZM6.51508 108.066C6.51826 107.237 7.1924 106.568 8.02082 106.571C8.84924 106.575 9.51823 107.249 9.51506 108.077L6.51508 108.066ZM54 3.5L50.2018 3.5L50.2018 0.500002L54 0.500002L54 3.5ZM42.6055 3.5L35.0092 3.5L35.0092 0.500001L42.6055 0.500002L42.6055 3.5ZM27.4128 3.5L19.8165 3.5L19.8165 0.500001L27.4128 0.500001L27.4128 3.5ZM12.2202 3.5L8.42202 3.5L8.42202 0.5L12.2202 0.5L12.2202 3.5ZM9.92201 2.00575L9.90694 5.93433L6.90696 5.92282L6.92203 1.99425L9.92201 2.00575ZM9.87679 13.7915L9.84665 21.6486L6.84667 21.6371L6.87681 13.78L9.87679 13.7915ZM9.8165 29.5058L9.78636 37.3629L6.78638 37.3514L6.81652 29.4942L9.8165 29.5058ZM9.75621 45.22L9.72607 53.0772L6.72609 53.0657L6.75623 45.2085L9.75621 45.22ZM9.69592 60.9343L9.66578 68.7915L6.6658 68.78L6.69595 60.9228L9.69592 60.9343ZM9.63563 76.6486L9.60549 84.5058L6.60551 84.4943L6.63566 76.6371L9.63563 76.6486ZM9.57535 92.3629L9.5452 100.22L6.54522 100.209L6.57537 92.3514L9.57535 92.3629ZM9.51506 108.077L9.49998 112.006L6.50001 111.994L6.51508 108.066L9.51506 108.077Z" fill="#FF9D54"/>
</svg>
