<svg width="296" height="119" viewBox="0 0 296 119" fill="none" xmlns="http://www.w3.org/2000/svg">
<path d="M1.66211 0.00390826C0.833679 0.0039083 0.162106 0.675481 0.162106 1.50391C0.162106 2.33234 0.833679 3.00391 1.66211 3.00391L1.66211 0.00390826ZM47.2401 1.50391L48.7401 1.4981C48.7369 0.671945 48.0663 0.00390623 47.2401 0.00390627L47.2401 1.50391ZM47.6621 102.504C43.2438 102.504 39.6621 106.086 39.6621 110.504C39.6621 114.922 43.2438 118.504 47.6621 118.504C52.0804 118.504 55.6621 114.922 55.6621 110.504C55.6621 106.086 52.0804 102.504 47.6621 102.504ZM5.46027 3.00391C6.2887 3.00391 6.96027 2.33234 6.96027 1.50391C6.96027 0.675481 6.2887 0.00390806 5.46027 0.00390809L5.46027 3.00391ZM13.0566 0.00390776C12.2282 0.0039078 11.5566 0.675481 11.5566 1.50391C11.5566 2.33233 12.2282 3.00391 13.0566 3.00391L13.0566 0.00390776ZM20.6529 3.00391C21.4814 3.00391 22.1529 2.33233 22.1529 1.50391C22.1529 0.67548 21.4814 0.00390739 20.6529 0.00390743L20.6529 3.00391ZM28.2493 0.0039071C27.4208 0.00390713 26.7493 0.67548 26.7493 1.50391C26.7493 2.33233 27.4208 3.00391 28.2493 3.00391L28.2493 0.0039071ZM35.8456 3.00391C36.674 3.00391 37.3456 2.33233 37.3456 1.50391C37.3456 0.67548 36.674 0.00390673 35.8456 0.00390677L35.8456 3.00391ZM43.4419 0.00390643C42.6135 0.00390647 41.9419 0.675479 41.9419 1.50391C41.9419 2.33233 42.6135 3.00391 43.4419 3.00391L43.4419 0.00390643ZM45.7552 5.40257C45.7584 6.23099 46.4325 6.89996 47.261 6.89675C48.0894 6.89354 48.7584 6.21938 48.7552 5.39096L45.7552 5.40257ZM48.7853 13.1767C48.7821 12.3482 48.1079 11.6793 47.2795 11.6825C46.4511 11.6857 45.7821 12.3599 45.7853 13.1883L48.7853 13.1767ZM45.8155 20.974C45.8187 21.8024 46.4928 22.4714 47.3213 22.4682C48.1497 22.465 48.8186 21.7908 48.8154 20.9624L45.8155 20.974ZM48.8456 28.7481C48.8424 27.9197 48.1682 27.2507 47.3398 27.2539C46.5114 27.2571 45.8424 27.9313 45.8456 28.7597L48.8456 28.7481ZM45.8758 36.5454C45.879 37.3738 46.5531 38.0428 47.3815 38.0396C48.21 38.0364 48.8789 37.3622 48.8757 36.5338L45.8758 36.5454ZM48.9059 44.3195C48.9027 43.4911 48.2285 42.8221 47.4001 42.8253C46.5717 42.8286 45.9027 43.5027 45.9059 44.3311L48.9059 44.3195ZM45.936 52.1169C45.9392 52.9453 46.6134 53.6142 47.4418 53.611C48.2703 53.6078 48.9392 52.9337 48.936 52.1052L45.936 52.1169ZM48.9662 59.891C48.963 59.0625 48.2888 58.3936 47.4604 58.3968C46.6319 58.4 45.963 59.0742 45.9662 59.9026L48.9662 59.891ZM45.9963 67.6883C45.9995 68.5167 46.6737 69.1857 47.5021 69.1825C48.3305 69.1793 48.9995 68.5051 48.9963 67.6767L45.9963 67.6883ZM49.0265 75.4624C49.0232 74.634 48.3491 73.965 47.5207 73.9682C46.6922 73.9714 46.0233 74.6456 46.0265 75.474L49.0265 75.4624ZM46.0566 83.2597C46.0598 84.0881 46.734 84.7571 47.5624 84.7539C48.3908 84.7507 49.0598 84.0765 49.0566 83.2481L46.0566 83.2597ZM49.0867 91.0338C49.0835 90.2054 48.4094 89.5364 47.5809 89.5396C46.7525 89.5428 46.0836 90.217 46.0868 91.0454L49.0867 91.0338ZM46.1169 98.8312C46.1201 99.6596 46.7943 100.329 47.6227 100.325C48.4511 100.322 49.1201 99.648 49.1169 98.8195L46.1169 98.8312ZM49.147 106.605C49.1438 105.777 48.4697 105.108 47.6412 105.111C46.8128 105.114 46.1438 105.788 46.1471 106.617L49.147 106.605ZM1.66211 3.00391L5.46027 3.00391L5.46027 0.00390809L1.66211 0.00390826L1.66211 3.00391ZM13.0566 3.00391L20.6529 3.00391L20.6529 0.00390743L13.0566 0.00390776L13.0566 3.00391ZM28.2493 3.00391L35.8456 3.00391L35.8456 0.00390677L28.2493 0.0039071L28.2493 3.00391ZM43.4419 3.00391L47.2401 3.00391L47.2401 0.00390627L43.4419 0.00390643L43.4419 3.00391ZM45.7401 1.50971L45.7552 5.40257L48.7552 5.39096L48.7401 1.4981L45.7401 1.50971ZM45.7853 13.1883L45.8155 20.974L48.8154 20.9624L48.7853 13.1767L45.7853 13.1883ZM45.8456 28.7597L45.8758 36.5454L48.8757 36.5338L48.8456 28.7481L45.8456 28.7597ZM45.9059 44.3311L45.936 52.1169L48.936 52.1052L48.9059 44.3195L45.9059 44.3311ZM45.9662 59.9026L45.9963 67.6883L48.9963 67.6767L48.9662 59.891L45.9662 59.9026ZM46.0265 75.474L46.0566 83.2597L49.0566 83.2481L49.0265 75.4624L46.0265 75.474ZM46.0868 91.0454L46.1169 98.8312L49.1169 98.8195L49.0867 91.0338L46.0868 91.0454ZM46.1471 106.617L46.1621 110.51L49.1621 110.498L49.147 106.605L46.1471 106.617Z" fill="#FFD02B"/>
<path d="M47.6621 0.00391674C46.8337 0.00391678 46.1621 0.67549 46.1621 1.50392C46.1621 2.33234 46.8337 3.00392 47.6621 3.00392L47.6621 0.00391674ZM285.46 1.50391L286.96 1.47361C286.943 0.657158 286.277 0.00390631 285.46 0.00390635L285.46 1.50391ZM287.662 102.504C283.244 102.504 279.662 106.086 279.662 110.504C279.662 114.922 283.244 118.504 287.662 118.504C292.08 118.504 295.662 114.922 295.662 110.504C295.662 106.086 292.08 102.504 287.662 102.504ZM51.6254 3.00392C52.4538 3.00392 53.1254 2.33234 53.1254 1.50392C53.1254 0.675489 52.4538 0.00391653 51.6254 0.00391657L51.6254 3.00392ZM59.552 0.00391622C58.7236 0.00391626 58.052 0.675489 58.052 1.50392C58.052 2.33234 58.7236 3.00392 59.552 3.00392L59.552 0.00391622ZM67.4786 3.00392C68.3071 3.00392 68.9786 2.33234 68.9786 1.50392C68.9786 0.675489 68.3071 0.00391584 67.4786 0.00391587L67.4786 3.00392ZM75.4052 0.00391553C74.5768 0.00391556 73.9052 0.675488 73.9052 1.50392C73.9052 2.33234 74.5768 3.00392 75.4052 3.00392L75.4052 0.00391553ZM83.3318 3.00392C84.1603 3.00392 84.8318 2.33234 84.8318 1.50392C84.8318 0.675488 84.1603 0.00391515 83.3318 0.00391518L83.3318 3.00392ZM91.2584 0.00391484C90.43 0.00391487 89.7584 0.675488 89.7584 1.50391C89.7584 2.33234 90.43 3.00391 91.2584 3.00391L91.2584 0.00391484ZM99.185 3.00391C100.013 3.00391 100.685 2.33234 100.685 1.50391C100.685 0.675487 100.013 0.00391445 99.185 0.00391449L99.185 3.00391ZM107.112 0.00391414C106.283 0.00391418 105.612 0.675487 105.612 1.50391C105.612 2.33234 106.283 3.00391 107.112 3.00391L107.112 0.00391414ZM115.038 3.00391C115.867 3.00391 116.538 2.33234 116.538 1.50391C116.538 0.675487 115.867 0.00391376 115.038 0.0039138L115.038 3.00391ZM122.965 0.00391345C122.136 0.00391349 121.465 0.675486 121.465 1.50391C121.465 2.33234 122.136 3.00391 122.965 3.00391L122.965 0.00391345ZM130.891 3.00391C131.72 3.00391 132.391 2.33234 132.391 1.50391C132.391 0.675486 131.72 0.00391307 130.891 0.0039131L130.891 3.00391ZM138.818 0.00391276C137.99 0.00391279 137.318 0.675486 137.318 1.50391C137.318 2.33234 137.99 3.00391 138.818 3.00391L138.818 0.00391276ZM146.745 3.00391C147.573 3.00391 148.245 2.33234 148.245 1.50391C148.245 0.675485 147.573 0.00391237 146.745 0.00391241L146.745 3.00391ZM154.671 0.00391206C153.843 0.0039121 153.171 0.675485 153.171 1.50391C153.171 2.33234 153.843 3.00391 154.671 3.00391L154.671 0.00391206ZM162.598 3.00391C163.426 3.00391 164.098 2.33234 164.098 1.50391C164.098 0.675485 163.426 0.00391168 162.598 0.00391172L162.598 3.00391ZM170.524 0.00391137C169.696 0.00391141 169.024 0.675484 169.024 1.50391C169.024 2.33234 169.696 3.00391 170.524 3.00391L170.524 0.00391137ZM178.451 3.00391C179.28 3.00391 179.951 2.33234 179.951 1.50391C179.951 0.675484 179.28 0.00391099 178.451 0.00391102L178.451 3.00391ZM186.378 0.00391068C185.549 0.00391071 184.878 0.675484 184.878 1.50391C184.878 2.33234 185.549 3.00391 186.378 3.00391L186.378 0.00391068ZM194.304 3.00391C195.133 3.00391 195.804 2.33234 195.804 1.50391C195.804 0.675483 195.133 0.00391029 194.304 0.00391033L194.304 3.00391ZM202.231 0.00390998C201.402 0.00391002 200.731 0.675483 200.731 1.50391C200.731 2.33234 201.402 3.00391 202.231 3.00391L202.231 0.00390998ZM210.158 3.00391C210.986 3.00391 211.658 2.33234 211.658 1.50391C211.658 0.675482 210.986 0.0039096 210.158 0.00390964L210.158 3.00391ZM218.084 0.00390929C217.256 0.00390933 216.584 0.675482 216.584 1.50391C216.584 2.33234 217.256 3.00391 218.084 3.00391L218.084 0.00390929ZM226.011 3.00391C226.839 3.00391 227.511 2.33234 227.511 1.50391C227.511 0.675482 226.839 0.00390891 226.011 0.00390894L226.011 3.00391ZM233.937 0.0039086C233.109 0.00390863 232.437 0.675482 232.437 1.50391C232.437 2.33234 233.109 3.00391 233.937 3.00391L233.937 0.0039086ZM241.864 3.00391C242.692 3.00391 243.364 2.33234 243.364 1.50391C243.364 0.675481 242.692 0.00390822 241.864 0.00390825L241.864 3.00391ZM249.791 0.00390791C248.962 0.00390794 248.291 0.675481 248.291 1.50391C248.291 2.33234 248.962 3.00391 249.791 3.00391L249.791 0.00390791ZM257.717 3.00391C258.546 3.00391 259.217 2.33233 259.217 1.50391C259.217 0.67548 258.546 0.00390752 257.717 0.00390756L257.717 3.00391ZM265.644 0.00390721C264.815 0.00390725 264.144 0.67548 264.144 1.50391C264.144 2.33233 264.815 3.00391 265.644 3.00391L265.644 0.00390721ZM273.57 3.00391C274.399 3.00391 275.07 2.33233 275.07 1.50391C275.07 0.67548 274.399 0.00390683 273.57 0.00390687L273.57 3.00391ZM281.497 0.00390652C280.669 0.00390656 279.997 0.675479 279.997 1.50391C279.997 2.33233 280.669 3.00391 281.497 3.00391L281.497 0.00390652ZM284.039 5.42706C284.056 6.25532 284.741 6.91319 285.569 6.89646C286.397 6.87973 287.055 6.19473 287.039 5.36647L284.039 5.42706ZM287.196 13.1522C287.179 12.3239 286.494 11.6661 285.666 11.6828C284.838 11.6995 284.18 12.3845 284.196 13.2128L287.196 13.1522ZM284.354 20.9985C284.37 21.8267 285.055 22.4846 285.884 22.4679C286.712 22.4512 287.37 21.7662 287.353 20.9379L284.354 20.9985ZM287.51 28.7236C287.494 27.8954 286.809 27.2375 285.98 27.2542C285.152 27.2709 284.494 27.9559 284.511 28.7842L287.51 28.7236ZM284.668 36.5699C284.685 37.3982 285.37 38.056 286.198 38.0393C287.027 38.0226 287.684 37.3376 287.668 36.5093L284.668 36.5699ZM287.825 44.295C287.808 43.4668 287.123 42.8089 286.295 42.8256C285.467 42.8424 284.809 43.5274 284.826 44.3556L287.825 44.295ZM284.983 52.1413C285 52.9696 285.685 53.6275 286.513 53.6107C287.341 53.594 287.999 52.909 287.982 52.0808L284.983 52.1413ZM288.14 59.8665C288.123 59.0382 287.438 58.3803 286.61 58.3971C285.781 58.4138 285.123 59.0988 285.14 59.9271L288.14 59.8665ZM285.297 67.7128C285.314 68.541 285.999 69.1989 286.827 69.1822C287.656 69.1654 288.314 68.4804 288.297 67.6522L285.297 67.7128ZM288.454 75.4379C288.437 74.6096 287.752 73.9518 286.924 73.9685C286.096 73.9852 285.438 74.6702 285.455 75.4985L288.454 75.4379ZM285.612 83.2842C285.629 84.1125 286.314 84.7703 287.142 84.7536C287.97 84.7369 288.628 84.0519 288.611 83.2236L285.612 83.2842ZM288.769 91.0093C288.752 90.1811 288.067 89.5232 287.239 89.5399C286.41 89.5567 285.753 90.2417 285.769 91.0699L288.769 91.0093ZM285.927 98.8556C285.943 99.6839 286.628 100.342 287.456 100.325C288.285 100.308 288.943 99.6233 288.926 98.795L285.927 98.8556ZM289.083 106.581C289.066 105.752 288.381 105.095 287.553 105.111C286.725 105.128 286.067 105.813 286.084 106.641L289.083 106.581ZM47.6621 3.00392L51.6254 3.00392L51.6254 0.00391657L47.6621 0.00391674L47.6621 3.00392ZM59.552 3.00392L67.4786 3.00392L67.4786 0.00391587L59.552 0.00391622L59.552 3.00392ZM75.4052 3.00392L83.3318 3.00392L83.3318 0.00391518L75.4052 0.00391553L75.4052 3.00392ZM91.2584 3.00391L99.185 3.00391L99.185 0.00391449L91.2584 0.00391484L91.2584 3.00391ZM107.112 3.00391L115.038 3.00391L115.038 0.0039138L107.112 0.00391414L107.112 3.00391ZM122.965 3.00391L130.891 3.00391L130.891 0.0039131L122.965 0.00391345L122.965 3.00391ZM138.818 3.00391L146.745 3.00391L146.745 0.00391241L138.818 0.00391276L138.818 3.00391ZM154.671 3.00391L162.598 3.00391L162.598 0.00391172L154.671 0.00391206L154.671 3.00391ZM170.524 3.00391L178.451 3.00391L178.451 0.00391102L170.524 0.00391137L170.524 3.00391ZM186.378 3.00391L194.304 3.00391L194.304 0.00391033L186.378 0.00391068L186.378 3.00391ZM202.231 3.00391L210.158 3.00391L210.158 0.00390964L202.231 0.00390998L202.231 3.00391ZM218.084 3.00391L226.011 3.00391L226.011 0.00390894L218.084 0.00390929L218.084 3.00391ZM233.937 3.00391L241.864 3.00391L241.864 0.00390825L233.937 0.0039086L233.937 3.00391ZM249.791 3.00391L257.717 3.00391L257.717 0.00390756L249.791 0.00390791L249.791 3.00391ZM265.644 3.00391L273.57 3.00391L273.57 0.00390687L265.644 0.00390721L265.644 3.00391ZM281.497 3.00391L285.46 3.00391L285.46 0.00390635L281.497 0.00390652L281.497 3.00391ZM283.961 1.5342L284.039 5.42706L287.039 5.36647L286.96 1.47361L283.961 1.5342ZM284.196 13.2128L284.354 20.9985L287.353 20.9379L287.196 13.1522L284.196 13.2128ZM284.511 28.7842L284.668 36.5699L287.668 36.5093L287.51 28.7236L284.511 28.7842ZM284.826 44.3556L284.983 52.1413L287.982 52.0808L287.825 44.295L284.826 44.3556ZM285.14 59.9271L285.297 67.7128L288.297 67.6522L288.14 59.8665L285.14 59.9271ZM285.455 75.4985L285.612 83.2842L288.611 83.2236L288.454 75.4379L285.455 75.4985ZM285.769 91.0699L285.927 98.8556L288.926 98.795L288.769 91.0093L285.769 91.0699ZM286.084 106.641L286.162 110.534L289.162 110.474L289.083 106.581L286.084 106.641Z" fill="#FFD02B"/>
</svg>
