<svg width="56" height="87" viewBox="0 0 56 87" fill="none" xmlns="http://www.w3.org/2000/svg">
<path d="M54 86.083C54.8284 86.083 55.5 85.4114 55.5 84.583C55.5 83.7546 54.8284 83.083 54 83.083L54 86.083ZM8.42202 84.583L6.92204 84.5914C6.92664 85.4165 7.59685 86.083 8.42202 86.083L8.42202 84.583ZM8 16.8672C12.4183 16.8672 16 13.2855 16 8.86719C16 4.44891 12.4183 0.867187 8 0.867188C3.58172 0.867188 -3.50277e-06 4.44891 -3.30964e-06 8.86719C-3.11651e-06 13.2855 3.58172 16.8672 8 16.8672ZM50.2018 83.083C49.3734 83.083 48.7018 83.7546 48.7018 84.583C48.7018 85.4114 49.3734 86.083 50.2018 86.083L50.2018 83.083ZM42.6055 86.083C43.4339 86.083 44.1055 85.4114 44.1055 84.583C44.1055 83.7546 43.4339 83.083 42.6055 83.083L42.6055 86.083ZM35.0092 83.083C34.1807 83.083 33.5092 83.7546 33.5092 84.583C33.5092 85.4114 34.1807 86.083 35.0092 86.083L35.0092 83.083ZM27.4128 86.083C28.2413 86.083 28.9128 85.4114 28.9128 84.583C28.9128 83.7546 28.2413 83.083 27.4128 83.083L27.4128 86.083ZM19.8165 83.083C18.9881 83.083 18.3165 83.7546 18.3165 84.583C18.3165 85.4114 18.9881 86.083 19.8165 86.083L19.8165 83.083ZM12.2202 86.083C13.0486 86.083 13.7202 85.4114 13.7202 84.583C13.7202 83.7546 13.0486 83.083 12.2202 83.083L12.2202 86.083ZM9.90089 80.7889C9.89628 79.9604 9.22097 79.2926 8.39256 79.2972C7.56414 79.3019 6.89632 79.9772 6.90094 80.8056L9.90089 80.7889ZM6.85874 73.234C6.86336 74.0624 7.53866 74.7302 8.36708 74.7256C9.19549 74.721 9.86331 74.0457 9.85869 73.2173L6.85874 73.234ZM9.81649 65.6457C9.81187 64.8173 9.13657 64.1495 8.30815 64.1541C7.47974 64.1587 6.81192 64.834 6.81654 65.6624L9.81649 65.6457ZM6.77433 58.0908C6.77895 58.9192 7.45426 59.5871 8.28267 59.5824C9.11109 59.5778 9.7789 58.9025 9.77429 58.0741L6.77433 58.0908ZM9.73209 50.5025C9.72747 49.6741 9.05216 49.0063 8.22375 49.0109C7.39533 49.0155 6.72751 49.6908 6.73213 50.5192L9.73209 50.5025ZM6.68993 42.9477C6.69455 43.7761 7.36985 44.4439 8.19827 44.4393C9.02668 44.4347 9.6945 43.7594 9.68988 42.9309L6.68993 42.9477ZM9.64768 35.3594C9.64306 34.5309 8.96776 33.8631 8.13934 33.8677C7.31093 33.8724 6.64311 34.5477 6.64773 35.3761L9.64768 35.3594ZM6.60553 27.8045C6.61014 28.6329 7.28545 29.3007 8.11386 29.2961C8.94228 29.2915 9.6101 28.6162 9.60548 27.7878L6.60553 27.8045ZM9.56328 20.2162C9.55866 19.3878 8.88335 18.72 8.05494 18.7246C7.22653 18.7292 6.55871 19.4045 6.56332 20.2329L9.56328 20.2162ZM6.52112 12.6613C6.52574 13.4897 7.20104 14.1576 8.02946 14.1529C8.85787 14.1483 9.52569 13.473 9.52107 12.6446L6.52112 12.6613ZM54 83.083L50.2018 83.083L50.2018 86.083L54 86.083L54 83.083ZM42.6055 83.083L35.0092 83.083L35.0092 86.083L42.6055 86.083L42.6055 83.083ZM27.4128 83.083L19.8165 83.083L19.8165 86.083L27.4128 86.083L27.4128 83.083ZM12.2202 83.083L8.42202 83.083L8.42202 86.083L12.2202 86.083L12.2202 83.083ZM9.922 84.5746L9.90089 80.7889L6.90094 80.8056L6.92204 84.5914L9.922 84.5746ZM9.85869 73.2173L9.81649 65.6457L6.81654 65.6624L6.85874 73.234L9.85869 73.2173ZM9.77429 58.0741L9.73209 50.5025L6.73213 50.5192L6.77433 58.0908L9.77429 58.0741ZM9.68988 42.9309L9.64768 35.3594L6.64773 35.3761L6.68993 42.9477L9.68988 42.9309ZM9.60548 27.7878L9.56328 20.2162L6.56332 20.2329L6.60553 27.8045L9.60548 27.7878ZM9.52107 12.6446L9.49997 8.85883L6.50002 8.87555L6.52112 12.6613L9.52107 12.6446Z" fill="#FFD02B"/>
</svg>
