<svg width="674" height="133" viewBox="0 0 674 133" fill="none" xmlns="http://www.w3.org/2000/svg">
<g clip-path="url(#clip0_884_64739)">
<path d="M661.728 31.9678C621.242 39.2575 580.651 45.187 539.955 49.7561C541.106 63.5159 542.311 77.3281 543.515 91.0879C544.719 104.848 545.871 118.607 547.075 132.42C589.202 127.641 631.224 121.485 673.141 113.951C657.854 102.685 642.794 91.2448 627.96 79.6301C639.426 64.0391 650.629 47.9773 661.728 31.9678Z" fill="#FFC48D"/>
<path d="M614.61 80.7285C592.482 98.3773 569.883 115.608 546.813 132.419L542.415 81.5133C566.533 81.7226 590.598 81.461 614.61 80.7285Z" fill="#F0A957"/>
<path d="M11.5019 31.9678C51.9883 39.397 92.5795 45.3265 133.275 49.7561C132.071 63.5159 130.919 77.3281 129.715 91.0879C128.511 104.848 127.307 118.607 126.155 132.42C83.9936 127.641 41.9714 121.485 0.0888672 113.951C15.376 102.72 30.4188 91.3146 45.2173 79.7347C33.909 63.8647 22.6705 47.9424 11.5019 31.9678Z" fill="#FFC48D"/>
<path d="M58.3579 80.7285C80.4859 98.3773 103.172 115.608 126.417 132.419L130.815 81.5133C106.628 81.7226 82.4753 81.461 58.3579 80.7285Z" fill="#F0A957"/>
<path d="M605.449 0.367188L614.872 81.3042C430.403 109.243 242.775 109.243 58.3056 81.3042L67.7292 0.367188C245.947 27.4176 427.231 27.4176 605.449 0.367188Z" fill="#FFC48D"/>
<path d="M326.027 56.2275C325.677 55.8775 325.257 55.6675 324.767 55.6675H321.582L321.827 48.5275C321.827 47.8975 321.617 47.3025 321.127 46.8125C320.637 46.3225 320.042 46.0425 319.377 46.0425C318.677 46.0425 318.047 46.3225 317.557 46.8125C317.032 47.3025 316.787 47.8975 316.822 48.5275L317.172 68.5125C317.172 69.0725 317.347 69.5275 317.732 69.9125C318.117 70.2975 318.572 70.4725 319.132 70.4725C319.692 70.4725 320.147 70.2975 320.532 69.9125C320.882 69.5625 321.092 69.0725 321.127 68.5125L321.442 59.3425H324.767C325.257 59.3425 325.677 59.1675 326.027 58.8175C326.377 58.4675 326.552 58.0475 326.552 57.5225C326.552 57.0325 326.377 56.6125 326.027 56.2275ZM296.662 63.5425C296.277 63.9275 296.102 64.3475 296.102 64.8375C296.102 65.3625 296.277 65.7825 296.662 66.1325C297.012 66.4825 297.467 66.6575 298.027 66.6575H314.477C314.967 66.6575 315.387 66.4825 315.737 66.1325C316.087 65.7825 316.262 65.3625 316.262 64.8375C316.262 64.3475 316.087 63.9275 315.737 63.5425C315.387 63.1925 314.967 62.9825 314.477 62.9825H308.317L308.527 60.5325C310.277 60.1125 311.677 59.2725 312.762 57.9775C313.847 56.7175 314.407 55.2125 314.407 53.5325C314.407 52.2025 314.057 51.0125 313.392 49.9275C312.727 48.8775 311.782 48.0375 310.522 47.4075C309.262 46.7775 307.827 46.4625 306.182 46.4625C304.502 46.4625 303.067 46.7775 301.842 47.4075C300.582 48.0375 299.637 48.8775 298.972 49.9275C298.307 51.0125 297.992 52.2025 297.992 53.5325C297.992 55.2125 298.517 56.7175 299.602 57.9775C300.652 59.2375 302.087 60.1125 303.837 60.5325L304.047 62.9825H298.027C297.502 62.9825 297.047 63.1925 296.662 63.5425ZM300.757 69.1775C300.232 69.7025 299.987 70.2975 300.022 70.9625L300.267 74.3575C300.302 75.4775 300.687 76.3525 301.457 77.0175C302.227 77.7175 303.137 78.0325 304.187 78.0325H320.252C320.742 78.0325 321.162 77.8575 321.512 77.5075C321.862 77.1575 322.037 76.7375 322.037 76.2125C322.037 75.7225 321.862 75.3025 321.512 74.9175C321.162 74.5675 320.742 74.3575 320.252 74.3575H305.272C305.062 74.3575 304.887 74.3225 304.782 74.1825C304.642 74.0425 304.607 73.8675 304.607 73.6225V73.5175L304.992 70.9625C305.027 70.3325 304.817 69.7375 304.327 69.2125C303.837 68.6875 303.242 68.4075 302.577 68.4075C301.877 68.4075 301.247 68.6875 300.757 69.1775ZM303.662 56.0875C302.927 55.4575 302.577 54.6175 302.577 53.5325C302.577 52.5175 302.892 51.7475 303.592 51.1875C304.257 50.6275 305.132 50.3475 306.182 50.3475C307.232 50.3475 308.107 50.6275 308.807 51.1875C309.472 51.7475 309.822 52.5175 309.822 53.5325C309.822 54.6175 309.437 55.4575 308.737 56.0875C308.002 56.7175 307.162 57.0325 306.182 57.0325C305.202 57.0325 304.362 56.7175 303.662 56.0875ZM354.041 46.8125C353.551 46.3225 352.956 46.0425 352.291 46.0425C351.591 46.0425 350.961 46.3225 350.471 46.8125C349.946 47.3025 349.701 47.8975 349.736 48.5275L349.841 52.8675H345.536C345.046 52.8675 344.626 53.0775 344.276 53.4275C343.926 53.8125 343.751 54.2325 343.751 54.7225C343.751 55.2475 343.926 55.6675 344.276 56.0175C344.626 56.3675 345.046 56.5425 345.536 56.5425H349.946L350.121 62.9825C350.121 63.5425 350.331 63.9975 350.716 64.3825C351.066 64.7675 351.521 64.9425 352.081 64.9425C352.641 64.9425 353.096 64.7675 353.446 64.3825C353.796 64.0325 354.006 63.5425 354.076 62.9825L354.741 48.5275C354.741 47.8975 354.531 47.3025 354.041 46.8125ZM328.526 61.3725C328.526 61.7925 328.666 62.1775 328.946 62.5275C329.331 63.0175 329.856 63.2625 330.486 63.2625C330.906 63.2625 331.326 63.1225 331.676 62.8425L337.801 58.1525L343.891 62.8425C344.241 63.1225 344.626 63.2625 345.116 63.2625C345.746 63.2625 346.236 63.0175 346.621 62.5275C346.901 62.1775 347.041 61.7925 347.041 61.3725C347.041 60.8125 346.796 60.2875 346.306 59.8325L339.936 54.2675L340.286 49.0525C340.286 48.4225 340.076 47.8275 339.586 47.3375C339.096 46.8475 338.501 46.6025 337.836 46.6025C337.136 46.6025 336.506 46.8475 336.016 47.3375C335.491 47.8275 335.246 48.4225 335.281 49.0525L335.631 54.2675L329.261 59.8325C328.771 60.2875 328.526 60.8125 328.526 61.3725ZM337.241 67.9525C336.506 69.0025 336.156 70.2275 336.156 71.5575C336.156 72.9225 336.541 74.1825 337.346 75.3025C338.116 76.4225 339.201 77.3325 340.601 77.9975C341.966 78.6625 343.506 78.9775 345.221 78.9775C346.901 78.9775 348.441 78.6625 349.841 77.9975C351.206 77.3325 352.291 76.4225 353.096 75.3025C353.866 74.1825 354.286 72.9225 354.286 71.5575C354.286 70.2275 353.901 69.0025 353.201 67.9525C352.466 66.9025 351.416 66.0975 350.051 65.4675C348.651 64.8725 347.041 64.5575 345.221 64.5575C343.366 64.5575 341.756 64.8725 340.391 65.4675C338.991 66.0975 337.941 66.9025 337.241 67.9525ZM342.071 74.2175C341.161 73.5175 340.741 72.6425 340.741 71.5575C340.741 70.5425 341.161 69.7375 342.001 69.1425C342.841 68.5825 343.891 68.2675 345.221 68.2675C346.481 68.2675 347.566 68.5825 348.406 69.1425C349.246 69.7375 349.701 70.5425 349.701 71.5575C349.701 72.2575 349.456 72.9225 349.036 73.4825C348.616 74.0425 348.056 74.4975 347.356 74.8125C346.656 75.1275 345.921 75.2675 345.221 75.2675C344.031 75.2675 342.981 74.9175 342.071 74.2175ZM371.441 47.0925C371.021 47.5475 370.811 48.1425 370.846 48.8775L371.371 64.6975C371.371 65.4675 371.546 66.0975 371.826 66.5175C372.106 66.9725 372.561 67.1825 373.156 67.1825C373.716 67.1825 374.171 66.9725 374.451 66.5175C374.731 66.0975 374.871 65.4675 374.906 64.6975L375.466 48.8775C375.466 48.1425 375.291 47.5475 374.871 47.0925C374.451 46.6375 373.856 46.3925 373.156 46.3925C372.421 46.3925 371.861 46.6375 371.441 47.0925ZM371.231 71.3825C370.741 71.8725 370.496 72.5375 370.496 73.3075C370.496 74.1125 370.741 74.7425 371.231 75.2325C371.721 75.7225 372.351 75.9325 373.156 75.9325C373.926 75.9325 374.591 75.7225 375.081 75.2325C375.571 74.7425 375.816 74.1125 375.816 73.3075C375.816 72.5375 375.571 71.8725 375.081 71.3825C374.591 70.8925 373.926 70.6475 373.156 70.6475C372.351 70.6475 371.721 70.8925 371.231 71.3825Z" fill="#555555"/>
</g>
<defs>
<clipPath id="clip0_884_64739">
<rect width="673" height="132" fill="white" transform="translate(0.0888672 0.367188)"/>
</clipPath>
</defs>
</svg>
