<svg width="87" height="87" viewBox="0 0 87 87" fill="none" xmlns="http://www.w3.org/2000/svg">
<g filter="url(#filter0_d_884_65135)">
<rect x="7.66211" y="6.50391" width="70" height="70" rx="35" fill="#54C1FF"/>
</g>
<path d="M54.9623 40.4039L50.6623 36.7039V32.5039C50.6623 31.9039 50.2623 31.5039 49.6623 31.5039H47.6623C47.0623 31.5039 46.6623 31.9039 46.6623 32.5039V33.4039L43.3623 30.6039C42.9623 30.3039 42.3623 30.3039 41.9623 30.6039L30.3623 40.4039C29.8623 40.8039 30.1623 41.5039 30.7623 41.5039H32.6623V52.5039C32.6623 53.1039 33.0623 53.5039 33.6623 53.5039H39.6623V47.5039C39.6623 45.8039 40.9623 44.5039 42.6623 44.5039C44.3623 44.5039 45.6623 45.8039 45.6623 47.5039V53.5039H51.6623C52.2623 53.5039 52.6623 53.1039 52.6623 52.5039V41.5039H54.5623C55.1623 41.5039 55.4623 40.8039 54.9623 40.4039Z" fill="white"/>
<defs>
<filter id="filter0_d_884_65135" x="0.662109" y="0.503906" width="86" height="86" filterUnits="userSpaceOnUse" color-interpolation-filters="sRGB">
<feFlood flood-opacity="0" result="BackgroundImageFix"/>
<feColorMatrix in="SourceAlpha" type="matrix" values="0 0 0 0 0 0 0 0 0 0 0 0 0 0 0 0 0 0 127 0" result="hardAlpha"/>
<feOffset dx="1" dy="2"/>
<feGaussianBlur stdDeviation="4"/>
<feComposite in2="hardAlpha" operator="out"/>
<feColorMatrix type="matrix" values="0 0 0 0 0 0 0 0 0 0 0 0 0 0 0 0 0 0 0.09 0"/>
<feBlend mode="normal" in2="BackgroundImageFix" result="effect1_dropShadow_884_65135"/>
<feBlend mode="normal" in="SourceGraphic" in2="effect1_dropShadow_884_65135" result="shape"/>
</filter>
</defs>
</svg>
