<svg width="87" height="87" viewBox="0 0 87 87" fill="none" xmlns="http://www.w3.org/2000/svg">
<g filter="url(#filter0_d_884_65127)">
<rect x="7.66211" y="6.50391" width="70" height="70" rx="35" fill="#FF7F21"/>
</g>
<g clip-path="url(#clip0_884_65127)">
<path d="M38.7246 31.0039L40.5752 32.8545L37.189 36.2539H43.9746C46.4105 36.2566 48.7458 37.2255 50.4682 38.9479C52.1906 40.6703 53.1594 43.0056 53.1621 45.4414V52.0039H50.5371V45.4414C50.5351 43.7015 49.8431 42.0335 48.6128 40.8032C47.3825 39.5729 45.7145 38.8809 43.9746 38.8789H37.189L40.5752 42.2783L38.7246 44.1289L32.1621 37.5664L38.7246 31.0039Z" fill="white"/>
</g>
<defs>
<filter id="filter0_d_884_65127" x="0.662109" y="0.503906" width="86" height="86" filterUnits="userSpaceOnUse" color-interpolation-filters="sRGB">
<feFlood flood-opacity="0" result="BackgroundImageFix"/>
<feColorMatrix in="SourceAlpha" type="matrix" values="0 0 0 0 0 0 0 0 0 0 0 0 0 0 0 0 0 0 127 0" result="hardAlpha"/>
<feOffset dx="1" dy="2"/>
<feGaussianBlur stdDeviation="4"/>
<feComposite in2="hardAlpha" operator="out"/>
<feColorMatrix type="matrix" values="0 0 0 0 0 0 0 0 0 0 0 0 0 0 0 0 0 0 0.09 0"/>
<feBlend mode="normal" in2="BackgroundImageFix" result="effect1_dropShadow_884_65127"/>
<feBlend mode="normal" in="SourceGraphic" in2="effect1_dropShadow_884_65127" result="shape"/>
</filter>
<clipPath id="clip0_884_65127">
<rect width="42" height="42" fill="white" transform="matrix(-1 0 0 1 63.6621 20.5039)"/>
</clipPath>
</defs>
</svg>
