<svg width="216" height="64" viewBox="0 0 216 64" fill="none" xmlns="http://www.w3.org/2000/svg">
<path d="M0.5 62C0.5 62.8284 1.17157 63.5 2 63.5C2.82843 63.5 3.5 62.8284 3.5 62H0.5ZM2 8.49541L1.99639 6.99542C1.16938 6.99741 0.5 7.66839 0.5 8.49541H2ZM200 8C200 12.4183 203.582 16 208 16C212.418 16 216 12.4183 216 8C216 3.58172 212.418 0 208 0C203.582 0 200 3.58172 200 8ZM3.5 57.5413C3.5 56.7129 2.82843 56.0413 2 56.0413C1.17157 56.0413 0.5 56.7129 0.5 57.5413H3.5ZM0.5 48.6239C0.5 49.4523 1.17157 50.1239 2 50.1239C2.82843 50.1239 3.5 49.4523 3.5 48.6239H0.5ZM3.5 39.7064C3.5 38.878 2.82843 38.2064 2 38.2064C1.17157 38.2064 0.5 38.878 0.5 39.7064H3.5ZM0.5 30.789C0.5 31.6174 1.17157 32.289 2 32.289C2.82843 32.289 3.5 31.6174 3.5 30.789H0.5ZM3.5 21.8716C3.5 21.0431 2.82843 20.3716 2 20.3716C1.17157 20.3716 0.5 21.0431 0.5 21.8716H3.5ZM0.5 12.9541C0.5 13.7826 1.17157 14.4541 2 14.4541C2.82843 14.4541 3.5 13.7826 3.5 12.9541H0.5ZM5.96515 9.98588C6.79357 9.98389 7.46353 9.3107 7.46153 8.48228C7.45954 7.65385 6.78636 6.9839 5.95793 6.98589L5.96515 9.98588ZM13.881 6.96684C13.0526 6.96883 12.3826 7.64201 12.3846 8.47044C12.3866 9.29886 13.0598 9.96882 13.8882 9.96683L13.881 6.96684ZM21.8113 9.94777C22.6397 9.94578 23.3097 9.27259 23.3077 8.44417C23.3057 7.61574 22.6325 6.94579 21.8041 6.94778L21.8113 9.94777ZM29.7272 6.92873C28.8987 6.93072 28.2288 7.60391 28.2308 8.43233C28.2328 9.26075 28.906 9.93071 29.7344 9.92872L29.7272 6.92873ZM37.6575 9.90966C38.4859 9.90767 39.1558 9.23449 39.1538 8.40606C39.1519 7.57764 38.4787 6.90768 37.6502 6.90967L37.6575 9.90966ZM45.5733 6.89062C44.7449 6.89261 44.0749 7.5658 44.0769 8.39422C44.0789 9.22265 44.7521 9.8926 45.5805 9.89061L45.5733 6.89062ZM53.5036 9.87156C54.332 9.86956 55.002 9.19638 55 8.36795C54.998 7.53953 54.3248 6.86957 53.4964 6.87156L53.5036 9.87156ZM61.4195 6.85251C60.591 6.8545 59.9211 7.52769 59.9231 8.35611C59.9251 9.18454 60.5983 9.85449 61.4267 9.8525L61.4195 6.85251ZM69.3498 9.83345C70.1782 9.83145 70.8481 9.15827 70.8462 8.32984C70.8442 7.50142 70.171 6.83146 69.3426 6.83346L69.3498 9.83345ZM77.2656 6.8144C76.4372 6.81639 75.7673 7.48958 75.7692 8.318C75.7712 9.14643 76.4444 9.81638 77.2728 9.81439L77.2656 6.8144ZM85.1959 9.79534C86.0243 9.79335 86.6943 9.12016 86.6923 8.29173C86.6903 7.46331 86.0171 6.79335 85.1887 6.79535L85.1959 9.79534ZM93.1118 6.77629C92.2834 6.77828 91.6134 7.45147 91.6154 8.2799C91.6174 9.10832 92.2906 9.77828 93.119 9.77628L93.1118 6.77629ZM101.042 9.75723C101.871 9.75524 102.54 9.08205 102.538 8.25363C102.536 7.4252 101.863 6.75525 101.035 6.75724L101.042 9.75723ZM108.958 6.73818C108.13 6.74018 107.46 7.41336 107.462 8.24179C107.464 9.07021 108.137 9.74017 108.965 9.73817L108.958 6.73818ZM116.888 9.71912C117.717 9.71713 118.387 9.04394 118.385 8.21552C118.383 7.38709 117.709 6.71714 116.881 6.71913L116.888 9.71912ZM124.804 6.70007C123.976 6.70207 123.306 7.37525 123.308 8.20368C123.31 9.0321 123.983 9.70206 124.811 9.70007L124.804 6.70007ZM132.734 9.68101C133.563 9.67902 134.233 9.00583 134.231 8.17741C134.229 7.34898 133.556 6.67903 132.727 6.68102L132.734 9.68101ZM140.65 6.66197C139.822 6.66396 139.152 7.33714 139.154 8.16557C139.156 8.99399 139.829 9.66395 140.657 9.66196L140.65 6.66197ZM148.581 9.6429C149.409 9.64091 150.079 8.96772 150.077 8.1393C150.075 7.31088 149.402 6.64092 148.573 6.64291L148.581 9.6429ZM156.496 6.62386C155.668 6.62585 154.998 7.29904 155 8.12746C155.002 8.95589 155.675 9.62584 156.504 9.62385L156.496 6.62386ZM164.427 9.60479C165.255 9.6028 165.925 8.92962 165.923 8.10119C165.921 7.27277 165.248 6.60281 164.419 6.6048L164.427 9.60479ZM172.343 6.58575C171.514 6.58774 170.844 7.26093 170.846 8.08935C170.848 8.91778 171.521 9.58773 172.35 9.58574L172.343 6.58575ZM180.273 9.56669C181.101 9.56469 181.771 8.89151 181.769 8.06308C181.767 7.23466 181.094 6.5647 180.266 6.56669L180.273 9.56669ZM188.189 6.54764C187.36 6.54963 186.69 7.22282 186.692 8.05124C186.694 8.87967 187.367 9.54962 188.196 9.54763L188.189 6.54764ZM196.119 9.52858C196.947 9.52658 197.617 8.8534 197.615 8.02497C197.613 7.19655 196.94 6.52659 196.112 6.52859L196.119 9.52858ZM204.035 6.50953C203.206 6.51152 202.536 7.18471 202.538 8.01313C202.54 8.84156 203.214 9.51152 204.042 9.50952L204.035 6.50953ZM3.5 62V57.5413H0.5V62H3.5ZM3.5 48.6239V39.7064H0.5V48.6239H3.5ZM3.5 30.789V21.8716H0.5V30.789H3.5ZM3.5 12.9541V8.49541H0.5V12.9541H3.5ZM2.00361 9.99541L5.96515 9.98588L5.95793 6.98589L1.99639 6.99542L2.00361 9.99541ZM13.8882 9.96683L21.8113 9.94777L21.8041 6.94778L13.881 6.96684L13.8882 9.96683ZM29.7344 9.92872L37.6575 9.90966L37.6502 6.90967L29.7272 6.92873L29.7344 9.92872ZM45.5805 9.89061L53.5036 9.87156L53.4964 6.87156L45.5733 6.89062L45.5805 9.89061ZM61.4267 9.8525L69.3498 9.83345L69.3426 6.83346L61.4195 6.85251L61.4267 9.8525ZM77.2728 9.81439L85.1959 9.79534L85.1887 6.79535L77.2656 6.8144L77.2728 9.81439ZM93.119 9.77628L101.042 9.75723L101.035 6.75724L93.1118 6.77629L93.119 9.77628ZM108.965 9.73817L116.888 9.71912L116.881 6.71913L108.958 6.73818L108.965 9.73817ZM124.811 9.70007L132.734 9.68101L132.727 6.68102L124.804 6.70007L124.811 9.70007ZM140.657 9.66196L148.581 9.6429L148.573 6.64291L140.65 6.66197L140.657 9.66196ZM156.504 9.62385L164.427 9.60479L164.419 6.6048L156.496 6.62386L156.504 9.62385ZM172.35 9.58574L180.273 9.56669L180.266 6.56669L172.343 6.58575L172.35 9.58574ZM188.196 9.54763L196.119 9.52858L196.112 6.52859L188.189 6.54764L188.196 9.54763ZM204.042 9.50952L208.004 9.5L207.996 6.5L204.035 6.50953L204.042 9.50952Z" fill="#FF8D85"/>
</svg>
