<svg width="912" height="61" viewBox="0 0 912 61" fill="none" xmlns="http://www.w3.org/2000/svg">
<path d="M784.872 0.0274277L784.872 60.8271L110.548 60.8272L110.548 0.0274571L784.872 0.0274277Z" fill="#FEC84D"/>
<path d="M110.545 60.8271L110.545 0.0274544L23.6498 0.0274582C10.5912 0.0274587 4.35763e-05 10.4959 4.41395e-05 23.3792L4.47552e-05 37.4648C4.53188e-05 50.3588 10.602 60.8165 23.6498 60.8165L110.545 60.8165L110.545 60.8271Z" fill="#DB7B07"/>
<path d="M143.71 0.027462L143.71 60.8271L127.128 60.8271L127.128 0.0274627L143.71 0.027462Z" fill="#DB7B07"/>
<path d="M781.886 60.8165C784.503 60.8165 867.457 44.5075 867.457 44.5075L867.781 14.1023L781.886 0.0274581C781.886 0.0274581 770.882 2.99563 768.556 10.4107C766.23 17.8259 779.927 23.7516 779.927 23.7516L768.298 30.422C768.761 37.0924 779.927 45.9969 779.927 45.9969L769.579 51.4971C769.407 60.391 781.897 60.8272 781.897 60.8272L781.886 60.8165Z" fill="#FCD695"/>
<path d="M867.781 44.2451C869.368 43.9937 911.999 35.465 911.999 31.4423C911.999 27.4197 868.045 16.6089 868.045 16.6089L867.781 44.2451Z" fill="#87867B"/>
<path opacity="0.31" d="M196.139 50.766C143.235 47.213 90.0067 60.091 37.3322 53.2761C33.1655 52.7425 28.7898 51.9665 25.5316 48.8985C22.2734 45.8427 20.801 39.7069 23.5579 36.0448C26.1582 32.5888 30.7845 32.989 34.7006 33.5953C94.184 42.884 154.565 35.3536 214.561 36.9542C220.931 37.124 232.042 41.2712 223.531 49.0198C217.286 54.707 203.397 51.251 196.139 50.766Z" fill="white"/>
<path opacity="0.31" d="M686.97 48.822C555.413 46.5628 442.863 52.3613 311.9 48.0278C301.543 47.6886 270.858 49.5854 262.76 47.6346C254.662 45.6915 250.998 41.7898 257.847 39.4611C264.301 37.2635 282.568 40.6254 292.311 40.772C440.011 42.9772 583.59 39.0216 732.779 40.0471C748.611 40.1551 776.256 42.7922 755.075 47.7194C739.555 51.3358 705.008 49.1382 686.98 48.8297L686.97 48.822Z" fill="white"/>
</svg>
