<svg width="248" height="18" viewBox="0 0 248 18" fill="none" xmlns="http://www.w3.org/2000/svg">
<path d="M213.483 0.802845L213.483 17.3105L30.3981 17.3106L30.3981 0.802853L213.483 0.802845Z" fill="#FEC84D"/>
<path d="M30.3989 17.3105L30.3989 0.802853L6.80606 0.802854C3.26055 0.802854 0.384939 3.64512 0.384939 7.14308L0.384939 10.9674C0.384939 14.4683 3.26348 17.3077 6.80606 17.3077L30.3989 17.3077L30.3989 17.3105Z" fill="#DB7B07"/>
<path d="M39.4028 0.802855L39.4028 17.3105L34.9007 17.3105L34.9007 0.802855L39.4028 0.802855Z" fill="#DB7B07"/>
<path d="M212.673 17.3077C213.383 17.3077 235.906 12.8796 235.906 12.8796L235.994 4.62432L212.673 0.802854C212.673 0.802854 209.685 1.60874 209.053 3.62202C208.422 5.63529 212.141 7.24418 212.141 7.24418L208.983 9.05526C209.109 10.8663 212.141 13.284 212.141 13.284L209.331 14.7773C209.284 17.1921 212.676 17.3105 212.676 17.3105L212.673 17.3077Z" fill="#FCD695"/>
<path d="M235.994 12.8086C236.425 12.7403 248 10.4247 248 9.33252C248 8.24033 236.066 5.3051 236.066 5.3051L235.994 12.8086Z" fill="#87867B"/>
<path opacity="0.31" d="M53.6376 14.5786C39.2736 13.6139 24.8217 17.1104 10.52 15.2601C9.3887 15.1152 8.20068 14.9045 7.31604 14.0716C6.43141 13.2419 6.03163 11.5759 6.78017 10.5817C7.48618 9.64333 8.74225 9.75197 9.80552 9.91659C25.9558 12.4385 42.35 10.394 58.6392 10.8286C60.3688 10.8747 63.3856 12.0007 61.0748 14.1045C59.3792 15.6486 55.6082 14.7103 53.6376 14.5786Z" fill="white"/>
<path opacity="0.31" d="M186.903 14.0505C151.184 13.4371 120.626 15.0115 85.0681 13.8349C82.2562 13.7428 73.9249 14.2578 71.7262 13.7281C69.5275 13.2006 68.5327 12.1412 70.3923 11.509C72.1445 10.9123 77.1042 11.8251 79.7495 11.8649C119.852 12.4636 158.835 11.3896 199.341 11.6681C203.639 11.6974 211.145 12.4134 205.394 13.7512C201.181 14.733 191.801 14.1364 186.906 14.0526L186.903 14.0505Z" fill="white"/>
</svg>
