<svg width="17" height="52" viewBox="0 0 17 52" fill="none" xmlns="http://www.w3.org/2000/svg">
<path d="M7.50002 1.84378C7.50621 1.01537 8.18278 0.348835 9.01118 0.355022C9.83958 0.36121 10.5061 1.03778 10.4999 1.86618L7.50002 1.84378ZM8.68519 36C13.1035 36 16.6852 39.5817 16.6852 44C16.6852 48.4183 13.1035 52 8.68519 52C4.26691 52 0.685187 48.4183 0.685186 44C0.685186 39.5817 4.26691 36 8.68519 36ZM10.4737 5.37827C10.4675 6.20667 9.79094 6.87321 8.96254 6.86702C8.13414 6.86084 7.4676 6.18427 7.47379 5.35586L10.4737 5.37827ZM7.42132 12.38C7.42751 11.5516 8.10408 10.8851 8.93248 10.8913C9.76089 10.8975 10.4274 11.574 10.4212 12.4024L7.42132 12.38ZM10.3688 19.4266C10.3626 20.255 9.68601 20.9216 8.85761 20.9154C8.02921 20.9092 7.36267 20.2326 7.36886 19.4042L10.3688 19.4266ZM7.31639 26.4284C7.32258 25.6 7.99915 24.9334 8.82755 24.9396C9.65596 24.9458 10.3225 25.6224 10.3163 26.4508L7.31639 26.4284ZM10.2638 33.475C10.2577 34.3034 9.58108 34.9699 8.75268 34.9637C7.92428 34.9575 7.25774 34.2809 7.26393 33.4525L10.2638 33.475ZM7.21146 40.4767C7.21765 39.6483 7.89422 38.9818 8.72262 38.988C9.55103 38.9941 10.2176 39.6707 10.2114 40.4991L7.21146 40.4767ZM10.4999 1.86618L10.4737 5.37827L7.47379 5.35586L7.50002 1.84378L10.4999 1.86618ZM10.4212 12.4024L10.3688 19.4266L7.36886 19.4042L7.42132 12.38L10.4212 12.4024ZM10.3163 26.4508L10.2638 33.475L7.26393 33.4525L7.31639 26.4284L10.3163 26.4508ZM10.2114 40.4991L10.1851 44.0112L7.18523 43.9888L7.21146 40.4767L10.2114 40.4991Z" fill="#FFD02B"/>
</svg>
