<svg width="41" height="233" viewBox="0 0 41 233" fill="none" xmlns="http://www.w3.org/2000/svg">
<path d="M39.1282 0.787109C39.9566 0.787109 40.6282 1.45868 40.6282 2.28711C40.6282 3.11554 39.9566 3.78711 39.1282 3.78711L39.1282 0.787109ZM9.2406 2.28711L7.74061 2.28524C7.74164 1.45754 8.41291 0.787111 9.2406 0.787111L9.2406 2.28711ZM8.96386 216.101C13.3821 216.101 16.9639 219.683 16.9639 224.101C16.9639 228.52 13.3821 232.101 8.96386 232.101C4.54558 232.101 0.963857 228.52 0.963857 224.101C0.963858 219.683 4.54558 216.101 8.96386 216.101ZM35.3922 3.78711C34.5638 3.78711 33.8922 3.11554 33.8922 2.28711C33.8922 1.45868 34.5638 0.787109 35.3922 0.787109L35.3922 3.78711ZM27.9203 0.78711C28.7488 0.78711 29.4203 1.45868 29.4203 2.28711C29.4203 3.11554 28.7488 3.78711 27.9203 3.78711L27.9203 0.78711ZM20.4484 3.78711C19.62 3.78711 18.9484 3.11554 18.9484 2.28711C18.9484 1.45868 19.62 0.78711 20.4484 0.78711L20.4484 3.78711ZM12.9766 0.787111C13.805 0.787111 14.4766 1.45868 14.4766 2.28711C14.4766 3.11554 13.805 3.78711 12.9766 3.78711L12.9766 0.787111ZM10.7357 6.24995C10.7346 7.07838 10.0622 7.74911 9.23379 7.74808C8.40536 7.74705 7.73463 7.07463 7.73566 6.24621L10.7357 6.24995ZM7.72578 14.1681C7.72681 13.3397 8.39922 12.669 9.22765 12.67C10.0561 12.6711 10.7268 13.3435 10.7258 14.1719L7.72578 14.1681ZM10.7159 22.0938C10.7149 22.9223 10.0424 23.593 9.21402 23.592C8.3856 23.5909 7.71486 22.9185 7.7159 22.0901L10.7159 22.0938ZM7.70601 30.012C7.70705 29.1836 8.37946 28.5129 9.20788 28.5139C10.0363 28.5149 10.707 29.1873 10.706 30.0158L7.70601 30.012ZM10.6961 37.9377C10.6951 38.7661 10.0227 39.4369 9.19426 39.4358C8.36583 39.4348 7.69509 38.7624 7.69613 37.934L10.6961 37.9377ZM7.68624 45.8559C7.68728 45.0275 8.35969 44.3567 9.18811 44.3578C10.0165 44.3588 10.6873 45.0312 10.6862 45.8596L7.68624 45.8559ZM10.6764 53.7816C10.6753 54.61 10.0029 55.2807 9.17449 55.2797C8.34606 55.2787 7.67533 54.6063 7.67636 53.7778L10.6764 53.7816ZM7.66648 61.6998C7.66751 60.8713 8.33992 60.2006 9.16835 60.2016C9.99677 60.2027 10.6675 60.8751 10.6665 61.7035L7.66648 61.6998ZM10.6566 69.6255C10.6556 70.4539 9.98315 71.1246 9.15472 71.1236C8.32629 71.1226 7.65556 70.4501 7.65659 69.6217L10.6566 69.6255ZM7.64671 77.5436C7.64774 76.7152 8.32015 76.0445 9.14858 76.0455C9.97701 76.0466 10.6477 76.719 10.6467 77.5474L7.64671 77.5436ZM10.6368 85.4693C10.6358 86.2978 9.96338 86.9685 9.13495 86.9675C8.30653 86.9664 7.63579 86.294 7.63683 85.4656L10.6368 85.4693ZM7.62694 93.3875C7.62798 92.5591 8.30039 91.8884 9.12881 91.8894C9.95724 91.8904 10.628 92.5628 10.6269 93.3913L7.62694 93.3875ZM10.6171 101.313C10.616 102.142 9.94361 102.812 9.11519 102.811C8.28676 102.81 7.61602 102.138 7.61706 101.309L10.6171 101.313ZM7.60717 109.231C7.60821 108.403 8.28062 107.732 9.10904 107.733C9.93747 107.734 10.6082 108.407 10.6072 109.235L7.60717 109.231ZM10.5973 117.157C10.5963 117.986 9.92384 118.656 9.09542 118.655C8.26699 118.654 7.59626 117.982 7.59729 117.153L10.5973 117.157ZM7.58741 125.075C7.58844 124.247 8.26085 123.576 9.08928 123.577C9.9177 123.578 10.5884 124.251 10.5874 125.079L7.58741 125.075ZM10.5775 133.001C10.5765 133.829 9.90408 134.5 9.07565 134.499C8.24722 134.498 7.57649 133.826 7.57752 132.997L10.5775 133.001ZM7.56764 140.919C7.56867 140.091 8.24108 139.42 9.06951 139.421C9.89794 139.422 10.5687 140.094 10.5676 140.923L7.56764 140.919ZM10.5578 148.845C10.5567 149.673 9.88431 150.344 9.05588 150.343C8.22746 150.342 7.55672 149.67 7.55775 148.841L10.5578 148.845ZM7.54787 156.763C7.5489 155.935 8.22131 155.264 9.04974 155.265C9.87817 155.266 10.5489 155.938 10.5479 156.767L7.54787 156.763ZM10.538 164.689C10.537 165.517 9.86454 166.188 9.03611 166.187C8.20769 166.186 7.53695 165.513 7.53799 164.685L10.538 164.689ZM7.5281 172.607C7.52914 171.779 8.20155 171.108 9.02997 171.109C9.8584 171.11 10.5291 171.782 10.5281 172.611L7.5281 172.607ZM10.5182 180.533C10.5172 181.361 9.84477 182.032 9.01635 182.031C8.18792 182.03 7.51719 181.357 7.51822 180.529L10.5182 180.533ZM7.50834 188.451C7.50937 187.622 8.18178 186.952 9.01021 186.953C9.83863 186.954 10.5094 187.626 10.5083 188.455L7.50834 188.451ZM10.4984 196.377C10.4974 197.205 9.82501 197.876 8.99658 197.875C8.16815 197.874 7.49742 197.201 7.49845 196.373L10.4984 196.377ZM7.48857 204.295C7.4896 203.466 8.16201 202.796 8.99044 202.797C9.81886 202.798 10.4896 203.47 10.4886 204.298L7.48857 204.295ZM10.4787 212.22C10.4776 213.049 9.80524 213.72 8.97681 213.719C8.14839 213.717 7.47765 213.045 7.47868 212.217L10.4787 212.22ZM7.4688 220.139C7.46983 219.31 8.14224 218.639 8.97067 218.64C9.7991 218.642 10.4698 219.314 10.4688 220.142L7.4688 220.139ZM39.1282 3.78711L35.3922 3.78711L35.3922 0.787109L39.1282 0.787109L39.1282 3.78711ZM27.9203 3.78711L20.4484 3.78711L20.4484 0.78711L27.9203 0.78711L27.9203 3.78711ZM12.9766 3.78711L9.2406 3.78711L9.2406 0.787111L12.9766 0.787111L12.9766 3.78711ZM10.7406 2.28898L10.7357 6.24995L7.73566 6.24621L7.74061 2.28524L10.7406 2.28898ZM10.7258 14.1719L10.7159 22.0938L7.7159 22.0901L7.72578 14.1681L10.7258 14.1719ZM10.706 30.0158L10.6961 37.9377L7.69613 37.934L7.70601 30.012L10.706 30.0158ZM10.6862 45.8596L10.6764 53.7816L7.67636 53.7778L7.68624 45.8559L10.6862 45.8596ZM10.6665 61.7035L10.6566 69.6255L7.65659 69.6217L7.66648 61.6998L10.6665 61.7035ZM10.6467 77.5474L10.6368 85.4693L7.63683 85.4656L7.64671 77.5436L10.6467 77.5474ZM10.6269 93.3913L10.6171 101.313L7.61706 101.309L7.62694 93.3875L10.6269 93.3913ZM10.6072 109.235L10.5973 117.157L7.59729 117.153L7.60717 109.231L10.6072 109.235ZM10.5874 125.079L10.5775 133.001L7.57752 132.997L7.58741 125.075L10.5874 125.079ZM10.5676 140.923L10.5578 148.845L7.55775 148.841L7.56764 140.919L10.5676 140.923ZM10.5479 156.767L10.538 164.689L7.53799 164.685L7.54787 156.763L10.5479 156.767ZM10.5281 172.611L10.5182 180.533L7.51822 180.529L7.5281 172.607L10.5281 172.611ZM10.5083 188.455L10.4984 196.377L7.49845 196.373L7.50834 188.451L10.5083 188.455ZM10.4886 204.298L10.4787 212.22L7.47868 212.217L7.48857 204.295L10.4886 204.298ZM10.4688 220.142L10.4639 224.103L7.46386 224.1L7.4688 220.139L10.4688 220.142Z" fill="#FFD02B"/>
</svg>
