<svg width="447" height="116" viewBox="0 0 447 116" fill="none" xmlns="http://www.w3.org/2000/svg">
<path d="M18.125 76.9473L316.676 68.6159L316.676 52.4824L18.0327 43.2961C8.14703 43.0654 6.07134e-05 50.6709 6.0301e-05 60.1285C5.98886e-05 69.5861 8.19671 77.2322 18.125 76.9541L18.125 76.9473ZM17.2664 60.3795C17.2664 54.8637 21.9431 50.3927 27.7127 50.3927C33.4823 50.3927 38.1591 54.8637 38.1591 60.3795C38.1591 65.8953 33.4823 70.3663 27.7127 70.3663C21.9431 70.3663 17.2664 65.8953 17.2664 60.3795Z" fill="#A86F48"/>
<path d="M16.9406 76.9473L81.5684 75.0205L81.1538 45.4129L16.8563 43.2961C7.60972 43.0655 0.000259078 50.6709 0.000258665 60.1285C0.000258251 69.62 7.66592 77.2322 16.9406 76.954L16.9406 76.9473ZM16.6947 60.3795C16.6947 54.8637 21.325 50.3927 27.0374 50.3927C32.7497 50.3927 37.3801 54.8637 37.3801 60.3795C37.3801 65.8953 32.7497 70.3663 27.0374 70.3663C21.325 70.3663 16.6947 65.8953 16.6947 60.3795Z" fill="#24484E"/>
<path d="M283.089 57.7207C283.089 89.599 319.608 115.441 364.657 115.441C409.706 115.441 446.225 89.599 446.225 57.7207C446.225 25.8424 409.706 -1.60028e-06 364.657 -3.57432e-06C319.608 -5.54837e-06 283.089 25.8424 283.089 57.7207Z" fill="#BA8459"/>
<path opacity="0.3" d="M302.283 57.7207C302.283 78.9729 329.136 96.2012 362.26 96.2012C395.384 96.2012 422.236 78.9729 422.236 57.7207C422.236 36.4685 395.384 19.2402 362.26 19.2402C329.136 19.2402 302.283 36.4685 302.283 57.7207Z" fill="#A86F48"/>
</svg>
