<svg width="163" height="43" viewBox="0 0 163 43" fill="none" xmlns="http://www.w3.org/2000/svg">
<path d="M6.91682 28.052L115.768 25.022L115.768 19.1543L6.88319 15.8134C3.27889 15.7295 0.308525 18.4955 0.308525 21.9352C0.308525 25.3748 3.297 28.1557 6.91682 28.0545L6.91682 28.052ZM6.60376 22.0265C6.60376 20.0204 8.30887 18.3944 10.4125 18.3944C12.516 18.3944 14.2212 20.0204 14.2212 22.0265C14.2212 24.0325 12.516 25.6586 10.4125 25.6586C8.30887 25.6586 6.60376 24.0325 6.60376 22.0265Z" fill="#A86F48"/>
<path d="M6.48382 28.052L30.0469 27.3513L29.8957 16.5832L6.45308 15.8134C3.0818 15.7295 0.307423 18.4955 0.307422 21.9352C0.307422 25.3872 3.1023 28.1557 6.48382 28.0545L6.48382 28.052ZM6.39416 22.0265C6.39416 20.0204 8.08235 18.3944 10.1651 18.3944C12.2478 18.3944 13.936 20.0204 13.936 22.0265C13.936 24.0325 12.2478 25.6586 10.1651 25.6586C8.08235 25.6586 6.39416 24.0325 6.39416 22.0265Z" fill="#24484E"/>
<path d="M103.521 21.0599C103.521 32.6538 116.836 42.0525 133.261 42.0525C149.685 42.0525 163 32.6538 163 21.0599C163 9.46607 149.685 0.0673822 133.261 0.0673815C116.836 0.0673808 103.521 9.46607 103.521 21.0599Z" fill="#BA8459"/>
<path opacity="0.3" d="M110.519 21.0595C110.519 28.7887 120.31 35.0545 132.387 35.0545C144.464 35.0545 154.254 28.7887 154.254 21.0595C154.254 13.3302 144.464 7.06445 132.387 7.06445C120.31 7.06445 110.519 13.3302 110.519 21.0595Z" fill="#A86F48"/>
</svg>
