<svg width="64" height="65" viewBox="0 0 64 65" fill="none" xmlns="http://www.w3.org/2000/svg">
<path d="M56.0508 1.4052C56.8792 1.41139 57.5457 2.08796 57.5395 2.91636C57.5333 3.74477 56.8568 4.4113 56.0283 4.40512L56.0508 1.4052ZM51.3828 4.37042C50.5544 4.36423 49.8879 3.68766 49.8941 2.85925C49.9003 2.03085 50.5768 1.36431 51.4052 1.3705L51.3828 4.37042ZM42.1142 1.3011C42.9426 1.30729 43.6092 1.98386 43.603 2.81226C43.5968 3.64067 42.9202 4.3072 42.0918 4.30102L42.1142 1.3011ZM32.8008 4.23162C31.9724 4.22543 31.3059 3.54886 31.3121 2.72046C31.3182 1.89205 31.9948 1.22551 32.8232 1.2317L32.8008 4.23162ZM23.5322 1.1623C24.3606 1.16849 25.0271 1.84506 25.021 2.67347C25.0148 3.50187 24.3382 4.16841 23.5098 4.16222L23.5322 1.1623ZM14.2188 4.09282C13.3904 4.08663 12.7238 3.41006 12.73 2.58166C12.7362 1.75325 13.4128 1.08672 14.2412 1.0929L14.2188 4.09282ZM4.95017 1.02351C5.77857 1.02969 6.44511 1.70626 6.43892 2.53467C6.43274 3.36307 5.75616 4.02961 4.92776 4.02342L4.95017 1.02351ZM56.0283 4.40512L51.3828 4.37042L51.4052 1.3705L56.0508 1.4052L56.0283 4.40512ZM42.0918 4.30102L32.8008 4.23162L32.8232 1.2317L42.1142 1.3011L42.0918 4.30102ZM23.5098 4.16222L14.2188 4.09282L14.2412 1.0929L23.5322 1.1623L23.5098 4.16222ZM4.92776 4.02342L0.282254 3.98872L0.304662 0.988807L4.95017 1.02351L4.92776 4.02342Z" fill="#FFD02B"/>
<path d="M54.5821 2.84378C54.5883 2.01537 55.2649 1.34883 56.0933 1.35502C56.9217 1.36121 57.5882 2.03778 57.582 2.86618L54.5821 2.84378ZM55.6782 48.9223C60.0965 48.9223 63.6782 52.504 63.6782 56.9223C63.6782 61.3405 60.0965 64.9223 55.6782 64.9223C51.26 64.9223 47.6782 61.3405 47.6782 56.9223C47.6782 52.504 51.26 48.9223 55.6782 48.9223ZM57.5484 7.37179C57.5422 8.20019 56.8656 8.86673 56.0372 8.86055C55.2088 8.85436 54.5423 8.17779 54.5485 7.34938L57.5484 7.37179ZM54.4812 16.3606C54.4873 15.5322 55.1639 14.8657 55.9923 14.8718C56.8207 14.878 57.4873 15.5546 57.4811 16.383L54.4812 16.3606ZM57.4138 25.3942C57.4076 26.2226 56.731 26.8892 55.9026 26.883C55.0742 26.8768 54.4077 26.2002 54.4138 25.3718L57.4138 25.3942ZM54.3465 34.383C54.3527 33.5546 55.0293 32.8881 55.8577 32.8943C56.6861 32.9005 57.3526 33.577 57.3465 34.4054L54.3465 34.383ZM57.2791 43.4166C57.273 44.245 56.5964 44.9116 55.768 44.9054C54.9396 44.8992 54.273 44.2226 54.2792 43.3942L57.2791 43.4166ZM54.2119 52.4054C54.2181 51.577 54.8947 50.9105 55.7231 50.9167C56.5515 50.9229 57.218 51.5995 57.2118 52.4279L54.2119 52.4054ZM57.582 2.86618L57.5484 7.37179L54.5485 7.34938L54.5821 2.84378L57.582 2.86618ZM57.4811 16.383L57.4138 25.3942L54.4138 25.3718L54.4812 16.3606L57.4811 16.383ZM57.3465 34.4054L57.2791 43.4166L54.2792 43.3942L54.3465 34.383L57.3465 34.4054ZM57.2118 52.4279L57.1782 56.9335L54.1783 56.9111L54.2119 52.4054L57.2118 52.4279Z" fill="#FFD02B"/>
</svg>
