<svg width="277" height="124" viewBox="0 0 277 124" fill="none" xmlns="http://www.w3.org/2000/svg">
<path d="M119.874 59.7158C119.874 59.7158 85.8561 76.3815 76.9485 77.9736C68.0409 79.5657 60.3747 74.7509 60.3747 74.7509C54.1035 70.18 45.1575 68.4595 36.1603 70.8477C21.647 74.6995 12.509 87.7444 15.747 99.9805C15.7854 100.109 15.8366 100.237 15.875 100.366C7.1849 103.653 0.516986 111.305 0.00505361 120.832C-0.199719 124.671 5.7387 124.645 5.94347 120.832C6.32742 113.68 11.8307 108.082 18.3706 105.784C23.9507 114.232 35.8403 118.367 47.8451 115.182C58.391 112.383 66.0699 104.718 68.2585 96.0516V96.0901C74.7856 84.7271 123.048 65.6733 123.048 65.6733L119.887 59.7158H119.874ZM46.5909 110.432C35.1876 113.462 23.8995 108.108 21.3526 98.4782C18.8186 88.8486 25.9984 78.6027 37.4017 75.5726C48.805 72.5425 60.0931 77.8965 62.64 87.5133C65.174 97.1429 57.9942 107.389 46.5909 110.419V110.432Z" fill="#1C8CC9"/>
<path d="M68.272 20.1695V20.208C66.0707 11.5285 58.3917 3.87619 47.8459 1.07719C33.3454 -2.77466 18.9729 4.03027 15.7477 16.2791C12.5225 28.5152 21.6605 41.5601 36.161 45.4119C45.1582 47.8001 54.117 46.0796 60.3754 41.5087C60.3754 41.5087 68.0544 36.7068 76.9492 38.286C85.844 39.8781 119.875 56.5438 119.875 56.5438L123.036 50.5862C123.036 50.5862 74.7735 31.5324 68.272 20.1695ZM37.4152 40.6613C26.0119 37.6312 18.8321 27.3853 21.3662 17.7685C23.913 8.1389 35.2011 2.79768 46.6044 5.81496C58.0077 8.84507 65.1876 19.091 62.6535 28.7206C60.1194 38.3374 48.8185 43.6914 37.4152 40.6613Z" fill="#1C8CC9"/>
<path d="M276.856 58.6492C276.856 45.5273 120.679 48.5445 120.679 48.5445L112.923 53.1924V63.0403L120.679 68.741C120.679 68.741 276.856 71.7583 276.856 58.6364V58.6492Z" fill="#1C8CC9"/>
<path d="M130.892 63.1558C128.192 63.1558 126.016 60.9602 126.016 58.2639C126.016 55.5676 128.204 53.3721 130.892 53.3721C133.58 53.3721 135.768 55.5676 135.768 58.2639C135.768 60.9602 133.58 63.1558 130.892 63.1558Z" fill="#72CEF7"/>
</svg>
