<svg width="185" height="83" viewBox="0 0 185 83" fill="none" xmlns="http://www.w3.org/2000/svg">
<path d="M80.3211 39.8887C80.3211 39.8887 57.6376 50.942 51.6979 51.9979C45.7582 53.0539 40.6463 49.8605 40.6463 49.8605C36.4646 46.8289 30.4993 45.6878 24.4998 47.2717C14.8222 49.8264 8.72892 58.4783 10.888 66.5938C10.9136 66.6789 10.9478 66.7641 10.9734 66.8492C5.17875 69.0292 0.732509 74.1046 0.391147 80.4232C0.254602 82.9693 4.2144 82.9523 4.35095 80.4232C4.60697 75.68 8.27661 71.9671 12.6375 70.4428C16.3584 76.0461 24.2865 78.7882 32.2914 76.6763C39.3235 74.8199 44.4439 69.736 45.9033 63.988V64.0135C50.2556 56.4772 82.4375 43.8399 82.4375 43.8399L80.3296 39.8887H80.3211ZM31.4551 73.5255C23.8513 75.5352 16.3242 71.9842 14.6259 65.5974C12.9362 59.2107 17.7238 52.4152 25.3276 50.4055C32.9315 48.3958 40.4585 51.9468 42.1568 58.3251C43.8465 64.7118 39.0589 71.5073 31.4551 73.517V73.5255Z" fill="#1C8CC9"/>
<path d="M45.912 13.6614V13.6869C44.4442 7.93035 39.3238 2.85502 32.2917 0.998611C22.6226 -1.55608 13.0389 2.95721 10.8883 11.0811C8.73771 19.1966 14.831 27.8485 24.5001 30.4031C30.4995 31.9871 36.4734 30.846 40.6465 27.8144C40.6465 27.8144 45.767 24.6295 51.6981 25.677C57.6293 26.7329 80.3214 37.7862 80.3214 37.7862L82.4293 33.835C82.4293 33.835 50.2473 21.1977 45.912 13.6614ZM25.3364 27.2524C17.7326 25.2427 12.945 18.4472 14.6347 12.069C16.333 5.68222 23.86 2.13971 31.4639 4.14089C39.0677 6.15058 43.8553 12.9461 42.1656 19.3328C40.4759 25.711 32.9403 29.2621 25.3364 27.2524Z" fill="#1C8CC9"/>
<path d="M185 39.1826C185 30.4796 80.8591 32.4808 80.8591 32.4808L75.6875 35.5635V42.095L80.8591 45.8759C80.8591 45.8759 185 47.8771 185 39.1741V39.1826Z" fill="#1C8CC9"/>
<path d="M87.6699 42.1715C85.8692 42.1715 84.4185 40.7154 84.4185 38.9271C84.4185 37.1388 85.8778 35.6826 87.6699 35.6826C89.4621 35.6826 90.9214 37.1388 90.9214 38.9271C90.9214 40.7154 89.4621 42.1715 87.6699 42.1715Z" fill="#72CEF7"/>
</svg>
