<svg width="56" height="119" viewBox="0 0 56 119" fill="none" xmlns="http://www.w3.org/2000/svg">
<path d="M54 0.500002C54.8284 0.500002 55.5 1.17157 55.5 2C55.5 2.82843 54.8284 3.5 54 3.5L54 0.500002ZM8.42202 2L6.92203 1.99419C6.92523 1.16804 7.59586 0.5 8.42202 0.5L8.42202 2ZM8 103C12.4183 103 16 106.582 16 111C16 115.418 12.4183 119 7.99999 119C3.58172 119 -4.95767e-06 115.418 -4.76454e-06 111C-4.57141e-06 106.582 3.58172 103 8 103ZM50.2018 3.5C49.3734 3.5 48.7018 2.82843 48.7018 2C48.7018 1.17157 49.3734 0.500002 50.2018 0.500002L50.2018 3.5ZM42.6055 0.500002C43.4339 0.500002 44.1055 1.17157 44.1055 2C44.1055 2.82843 43.4339 3.5 42.6055 3.5L42.6055 0.500002ZM35.0092 3.5C34.1807 3.5 33.5092 2.82843 33.5092 2C33.5092 1.17157 34.1807 0.500001 35.0092 0.500001L35.0092 3.5ZM27.4128 0.500001C28.2413 0.500001 28.9128 1.17157 28.9128 2C28.9128 2.82843 28.2413 3.5 27.4128 3.5L27.4128 0.500001ZM19.8165 3.5C18.9881 3.5 18.3165 2.82843 18.3165 2C18.3165 1.17157 18.9881 0.5 19.8165 0.500001L19.8165 3.5ZM12.2202 0.5C13.0486 0.5 13.7202 1.17157 13.7202 2C13.7202 2.82843 13.0486 3.5 12.2202 3.5L12.2202 0.5ZM9.90693 5.89866C9.90373 6.72709 9.22956 7.39605 8.40114 7.39285C7.57272 7.38964 6.90375 6.71547 6.90696 5.88705L9.90693 5.89866ZM6.87681 13.6728C6.88002 12.8443 7.55419 12.1754 8.38261 12.1786C9.21103 12.1818 9.88 12.856 9.87679 13.6844L6.87681 13.6728ZM9.84665 21.4701C9.84344 22.2985 9.16927 22.9675 8.34085 22.9643C7.51243 22.9611 6.84346 22.2869 6.84667 21.4585L9.84665 21.4701ZM6.81652 29.2442C6.81973 28.4158 7.4939 27.7468 8.32232 27.75C9.15074 27.7532 9.81971 28.4274 9.8165 29.2558L6.81652 29.2442ZM9.78636 37.0415C9.78315 37.8699 9.10898 38.5389 8.28056 38.5357C7.45214 38.5325 6.78317 37.8583 6.78638 37.0299L9.78636 37.0415ZM6.75623 44.8156C6.75944 43.9872 7.43361 43.3182 8.26203 43.3214C9.09045 43.3246 9.75942 43.9988 9.75621 44.8272L6.75623 44.8156ZM9.72607 52.6129C9.72286 53.4414 9.04869 54.1103 8.22027 54.1071C7.39185 54.1039 6.72288 53.4298 6.72609 52.6013L9.72607 52.6129ZM6.69595 60.3871C6.69915 59.5586 7.37332 58.8897 8.20174 58.8929C9.03016 58.8961 9.69913 59.5702 9.69592 60.3987L6.69595 60.3871ZM9.66578 68.1844C9.66257 69.0128 8.9884 69.6818 8.15998 69.6786C7.33156 69.6754 6.66259 69.0012 6.6658 68.1728L9.66578 68.1844ZM6.63566 75.9585C6.63886 75.1301 7.31303 74.4611 8.14145 74.4643C8.96987 74.4675 9.63884 75.1417 9.63563 75.9701L6.63566 75.9585ZM9.60549 83.7558C9.60228 84.5842 8.92811 85.2532 8.09969 85.25C7.27127 85.2468 6.6023 84.5726 6.60551 83.7442L9.60549 83.7558ZM6.57537 91.5299C6.57858 90.7015 7.25274 90.0325 8.08116 90.0357C8.90959 90.0389 9.57855 90.7131 9.57535 91.5415L6.57537 91.5299ZM9.5452 99.3272C9.54199 100.156 8.86783 100.825 8.0394 100.821C7.21098 100.818 6.54202 100.144 6.54522 99.3156L9.5452 99.3272ZM6.51508 107.101C6.51829 106.273 7.19245 105.604 8.02088 105.607C8.8493 105.61 9.51826 106.285 9.51506 107.113L6.51508 107.101ZM54 3.5L50.2018 3.5L50.2018 0.500002L54 0.500002L54 3.5ZM42.6055 3.5L35.0092 3.5L35.0092 0.500001L42.6055 0.500002L42.6055 3.5ZM27.4128 3.5L19.8165 3.5L19.8165 0.500001L27.4128 0.500001L27.4128 3.5ZM12.2202 3.5L8.42202 3.5L8.42202 0.5L12.2202 0.5L12.2202 3.5ZM9.92201 2.00581L9.90693 5.89866L6.90696 5.88705L6.92203 1.99419L9.92201 2.00581ZM9.87679 13.6844L9.84665 21.4701L6.84667 21.4585L6.87681 13.6728L9.87679 13.6844ZM9.8165 29.2558L9.78636 37.0415L6.78638 37.0299L6.81652 29.2442L9.8165 29.2558ZM9.75621 44.8272L9.72607 52.6129L6.72609 52.6013L6.75623 44.8156L9.75621 44.8272ZM9.69592 60.3987L9.66578 68.1844L6.6658 68.1728L6.69595 60.3871L9.69592 60.3987ZM9.63563 75.9701L9.60549 83.7558L6.60551 83.7442L6.63566 75.9585L9.63563 75.9701ZM9.57535 91.5415L9.5452 99.3272L6.54522 99.3156L6.57537 91.5299L9.57535 91.5415ZM9.51506 107.113L9.49998 111.006L6.50001 110.994L6.51508 107.101L9.51506 107.113Z" fill="#FFD02B"/>
</svg>
